%TF.GenerationSoftware,KiCad,Pcbnew,9.0.3*%
%TF.CreationDate,2026-07-02T03:56:50+01:00*%
%TF.ProjectId,Cell Tap Fuse Board 2x,43656c6c-2054-4617-9020-467573652042,rev?*%
%TF.SameCoordinates,Original*%
%TF.FileFunction,Legend,Top*%
%TF.FilePolarity,Positive*%
%FSLAX46Y46*%
G04 Gerber Fmt 4.6, Leading zero omitted, Abs format (unit mm)*
G04 Created by KiCad (PCBNEW 9.0.3) date 2026-07-02 03:56:50*
%MOMM*%
%LPD*%
G01*
G04 APERTURE LIST*
%ADD10C,0.100000*%
%ADD11C,0.150000*%
%ADD12C,0.000000*%
%ADD13C,0.120000*%
G04 APERTURE END LIST*
D10*
X88406390Y-316846666D02*
X88406390Y-316513333D01*
X87882580Y-316513333D02*
X88882580Y-316513333D01*
X88882580Y-316513333D02*
X88882580Y-316989523D01*
X88882580Y-317846666D02*
X88882580Y-317370476D01*
X88882580Y-317370476D02*
X88406390Y-317322857D01*
X88406390Y-317322857D02*
X88454009Y-317370476D01*
X88454009Y-317370476D02*
X88501628Y-317465714D01*
X88501628Y-317465714D02*
X88501628Y-317703809D01*
X88501628Y-317703809D02*
X88454009Y-317799047D01*
X88454009Y-317799047D02*
X88406390Y-317846666D01*
X88406390Y-317846666D02*
X88311152Y-317894285D01*
X88311152Y-317894285D02*
X88073057Y-317894285D01*
X88073057Y-317894285D02*
X87977819Y-317846666D01*
X87977819Y-317846666D02*
X87930200Y-317799047D01*
X87930200Y-317799047D02*
X87882580Y-317703809D01*
X87882580Y-317703809D02*
X87882580Y-317465714D01*
X87882580Y-317465714D02*
X87930200Y-317370476D01*
X87930200Y-317370476D02*
X87977819Y-317322857D01*
D11*
X84596666Y-329694819D02*
X84596666Y-330409104D01*
X84596666Y-330409104D02*
X84549047Y-330551961D01*
X84549047Y-330551961D02*
X84453809Y-330647200D01*
X84453809Y-330647200D02*
X84310952Y-330694819D01*
X84310952Y-330694819D02*
X84215714Y-330694819D01*
X85549047Y-329694819D02*
X85072857Y-329694819D01*
X85072857Y-329694819D02*
X85025238Y-330171009D01*
X85025238Y-330171009D02*
X85072857Y-330123390D01*
X85072857Y-330123390D02*
X85168095Y-330075771D01*
X85168095Y-330075771D02*
X85406190Y-330075771D01*
X85406190Y-330075771D02*
X85501428Y-330123390D01*
X85501428Y-330123390D02*
X85549047Y-330171009D01*
X85549047Y-330171009D02*
X85596666Y-330266247D01*
X85596666Y-330266247D02*
X85596666Y-330504342D01*
X85596666Y-330504342D02*
X85549047Y-330599580D01*
X85549047Y-330599580D02*
X85501428Y-330647200D01*
X85501428Y-330647200D02*
X85406190Y-330694819D01*
X85406190Y-330694819D02*
X85168095Y-330694819D01*
X85168095Y-330694819D02*
X85072857Y-330647200D01*
X85072857Y-330647200D02*
X85025238Y-330599580D01*
D12*
%TO.C,G\u002A\u002A\u002A*%
G36*
X91597538Y-327475331D02*
G01*
X91597538Y-327696179D01*
X91217878Y-327696179D01*
X90838218Y-327696179D01*
X90838218Y-327626699D01*
X90838218Y-327557218D01*
X91155842Y-327557218D01*
X91473466Y-327557218D01*
X91473466Y-327405851D01*
X91473466Y-327254483D01*
X91535502Y-327254483D01*
X91597538Y-327254483D01*
X91597538Y-327475331D01*
G37*
G36*
X92049159Y-326631642D02*
G01*
X92049159Y-326733381D01*
X92366783Y-326733381D01*
X92684407Y-326733381D01*
X92684407Y-326800380D01*
X92684407Y-326867379D01*
X92366783Y-326867379D01*
X92049159Y-326867379D01*
X92049159Y-326969118D01*
X92049159Y-327070857D01*
X91984642Y-327070857D01*
X91920125Y-327070857D01*
X91920125Y-326800380D01*
X91920125Y-326529903D01*
X91984642Y-326529903D01*
X92049159Y-326529903D01*
X92049159Y-326631642D01*
G37*
G36*
X92049159Y-330046101D02*
G01*
X92049159Y-330147840D01*
X92366783Y-330147840D01*
X92684407Y-330147840D01*
X92684407Y-330214839D01*
X92684407Y-330281837D01*
X92366783Y-330281837D01*
X92049159Y-330281837D01*
X92049159Y-330383576D01*
X92049159Y-330485315D01*
X91984642Y-330485315D01*
X91920125Y-330485315D01*
X91920125Y-330214839D01*
X91920125Y-329944362D01*
X91984642Y-329944362D01*
X92049159Y-329944362D01*
X92049159Y-330046101D01*
G37*
G36*
X90962289Y-330802939D02*
G01*
X90962289Y-330966714D01*
X91056584Y-330966714D01*
X91150879Y-330966714D01*
X91150879Y-330817828D01*
X91150879Y-330668942D01*
X91215396Y-330668942D01*
X91279914Y-330668942D01*
X91279914Y-330817828D01*
X91279914Y-330966714D01*
X91438726Y-330966714D01*
X91597538Y-330966714D01*
X91597538Y-331033713D01*
X91597538Y-331100712D01*
X91217878Y-331100712D01*
X90838218Y-331100712D01*
X90838218Y-330869938D01*
X90838218Y-330639165D01*
X90900253Y-330639165D01*
X90962289Y-330639165D01*
X90962289Y-330802939D01*
G37*
G36*
X92684275Y-327285501D02*
G01*
X92684143Y-327351259D01*
X92441756Y-327490220D01*
X92199368Y-327629180D01*
X92441888Y-327630468D01*
X92684407Y-327631755D01*
X92684407Y-327698738D01*
X92684407Y-327765721D01*
X92303507Y-327764449D01*
X91922606Y-327763178D01*
X91921229Y-327698550D01*
X91919852Y-327633922D01*
X92166891Y-327492591D01*
X92413931Y-327351259D01*
X92167028Y-327349972D01*
X91920125Y-327348685D01*
X91920125Y-327284214D01*
X91920125Y-327219743D01*
X92302266Y-327219743D01*
X92684407Y-327219743D01*
X92684275Y-327285501D01*
G37*
G36*
X92684407Y-328177430D02*
G01*
X92684407Y-328405870D01*
X92302216Y-328405870D01*
X91920024Y-328405870D01*
X91921315Y-328178819D01*
X91922606Y-327951767D01*
X91985883Y-327950378D01*
X92049159Y-327948989D01*
X92049159Y-328110540D01*
X92049159Y-328272092D01*
X92142213Y-328270741D01*
X92235267Y-328269391D01*
X92236583Y-328124227D01*
X92237899Y-327979063D01*
X92299785Y-327979063D01*
X92361671Y-327979063D01*
X92362986Y-328124227D01*
X92364302Y-328269391D01*
X92459768Y-328270739D01*
X92555235Y-328272086D01*
X92556544Y-328111927D01*
X92557854Y-327951767D01*
X92621131Y-327950378D01*
X92684407Y-327948989D01*
X92684407Y-328177430D01*
G37*
G36*
X89813504Y-331834600D02*
G01*
X89815140Y-331835022D01*
X89841566Y-331846860D01*
X89861981Y-331866111D01*
X89876101Y-331892083D01*
X89883645Y-331924085D01*
X89884329Y-331961425D01*
X89879949Y-331993657D01*
X89866492Y-332042953D01*
X89845792Y-332093332D01*
X89818930Y-332143425D01*
X89786988Y-332191863D01*
X89751045Y-332237275D01*
X89712184Y-332278293D01*
X89671485Y-332313547D01*
X89630029Y-332341667D01*
X89590134Y-332360826D01*
X89567741Y-332367032D01*
X89543003Y-332370483D01*
X89519204Y-332371018D01*
X89499628Y-332368477D01*
X89491711Y-332365639D01*
X89468429Y-332348402D01*
X89451866Y-332324494D01*
X89442042Y-332294569D01*
X89438979Y-332259284D01*
X89442699Y-332219294D01*
X89453222Y-332175252D01*
X89470570Y-332127815D01*
X89483083Y-332100402D01*
X89508939Y-332053160D01*
X89538734Y-332008637D01*
X89571589Y-331967537D01*
X89606626Y-331930561D01*
X89642967Y-331898410D01*
X89679734Y-331871787D01*
X89716049Y-331851393D01*
X89751035Y-331837929D01*
X89783813Y-331832097D01*
X89813504Y-331834600D01*
G37*
G36*
X91597538Y-328584483D02*
G01*
X91597538Y-328648950D01*
X91373737Y-328650241D01*
X91149936Y-328651533D01*
X91309211Y-328721013D01*
X91468485Y-328790493D01*
X91467253Y-328849351D01*
X91466021Y-328908209D01*
X91309691Y-328977044D01*
X91153360Y-329045879D01*
X91375449Y-329045980D01*
X91597538Y-329046081D01*
X91597538Y-329113080D01*
X91597538Y-329180079D01*
X91217878Y-329180079D01*
X90838218Y-329180079D01*
X90838218Y-329113914D01*
X90838218Y-329047749D01*
X91068744Y-328949065D01*
X91113598Y-328929823D01*
X91155515Y-328911763D01*
X91193640Y-328895257D01*
X91227122Y-328880680D01*
X91255107Y-328868403D01*
X91276742Y-328858799D01*
X91291175Y-328852243D01*
X91297553Y-328849106D01*
X91297786Y-328848896D01*
X91293074Y-328846699D01*
X91280116Y-328840956D01*
X91259782Y-328832047D01*
X91232944Y-328820350D01*
X91200472Y-328806245D01*
X91163237Y-328790109D01*
X91122110Y-328772322D01*
X91077962Y-328753262D01*
X91068500Y-328749181D01*
X90840699Y-328650951D01*
X90839314Y-328585483D01*
X90837929Y-328520016D01*
X91217734Y-328520016D01*
X91597538Y-328520016D01*
X91597538Y-328584483D01*
G37*
G36*
X91229361Y-327855075D02*
G01*
X91293215Y-327855324D01*
X91349292Y-327855733D01*
X91397242Y-327856295D01*
X91436718Y-327857007D01*
X91467368Y-327857863D01*
X91488845Y-327858857D01*
X91500799Y-327859984D01*
X91501758Y-327860166D01*
X91531663Y-327871447D01*
X91558341Y-327890623D01*
X91579232Y-327915688D01*
X91584473Y-327925017D01*
X91597538Y-327951235D01*
X91597343Y-328107831D01*
X91597181Y-328154930D01*
X91596798Y-328193016D01*
X91596158Y-328222999D01*
X91595226Y-328245790D01*
X91593964Y-328262301D01*
X91592337Y-328273442D01*
X91590498Y-328279703D01*
X91575860Y-328303476D01*
X91554676Y-328325426D01*
X91530219Y-328342281D01*
X91525612Y-328344572D01*
X91500761Y-328356145D01*
X91169490Y-328356193D01*
X90838218Y-328356242D01*
X90838218Y-328289243D01*
X90838218Y-328222244D01*
X91143660Y-328222244D01*
X91449102Y-328222244D01*
X91461284Y-328210062D01*
X91465581Y-328205485D01*
X91468727Y-328200607D01*
X91470900Y-328193905D01*
X91472280Y-328183858D01*
X91473048Y-328168947D01*
X91473383Y-328147648D01*
X91473464Y-328118441D01*
X91473466Y-328106946D01*
X91473321Y-328073240D01*
X91472817Y-328048042D01*
X91471846Y-328029940D01*
X91470301Y-328017520D01*
X91468075Y-328009368D01*
X91465740Y-328004982D01*
X91458014Y-327993952D01*
X91148116Y-327993952D01*
X90838218Y-327993952D01*
X90838218Y-327924471D01*
X90838218Y-327854991D01*
X91158079Y-327854991D01*
X91229361Y-327855075D01*
G37*
G36*
X91594708Y-326534048D02*
G01*
X91596239Y-326540707D01*
X91597094Y-326553063D01*
X91597463Y-326572563D01*
X91597538Y-326597977D01*
X91597538Y-326666720D01*
X91515569Y-326693705D01*
X91433600Y-326720690D01*
X91434922Y-326846972D01*
X91436244Y-326973254D01*
X91516891Y-326998147D01*
X91597538Y-327023041D01*
X91597538Y-327091949D01*
X91597446Y-327119318D01*
X91597046Y-327138210D01*
X91596146Y-327150074D01*
X91594556Y-327156357D01*
X91592086Y-327158508D01*
X91588853Y-327158075D01*
X91582871Y-327156099D01*
X91568208Y-327151227D01*
X91545596Y-327143703D01*
X91515770Y-327133773D01*
X91479462Y-327121679D01*
X91437407Y-327107668D01*
X91390338Y-327091983D01*
X91338989Y-327074869D01*
X91309691Y-327065102D01*
X91284094Y-327056569D01*
X91226386Y-327037330D01*
X91210433Y-327032011D01*
X90840699Y-326908728D01*
X90840699Y-326847814D01*
X91032814Y-326847814D01*
X91039388Y-326850176D01*
X91054853Y-326855110D01*
X91078566Y-326862423D01*
X91109887Y-326871920D01*
X91148173Y-326883408D01*
X91192783Y-326896694D01*
X91243073Y-326911584D01*
X91296043Y-326927191D01*
X91309691Y-326931203D01*
X91309691Y-326847181D01*
X91309386Y-326812064D01*
X91308480Y-326786253D01*
X91306985Y-326769938D01*
X91304911Y-326763308D01*
X91304492Y-326763158D01*
X91296929Y-326764538D01*
X91281971Y-326768385D01*
X91261030Y-326774260D01*
X91235515Y-326781722D01*
X91206838Y-326790333D01*
X91176409Y-326799652D01*
X91145637Y-326809241D01*
X91115935Y-326818660D01*
X91088712Y-326827469D01*
X91065379Y-326835229D01*
X91047346Y-326841501D01*
X91036024Y-326845844D01*
X91032814Y-326847814D01*
X90840699Y-326847814D01*
X90840699Y-326845046D01*
X90840699Y-326781364D01*
X91210433Y-326658081D01*
X91268774Y-326638629D01*
X91324501Y-326620052D01*
X91376878Y-326602594D01*
X91425174Y-326586500D01*
X91468654Y-326572013D01*
X91506584Y-326559378D01*
X91538231Y-326548840D01*
X91562861Y-326540643D01*
X91579741Y-326535032D01*
X91588136Y-326532250D01*
X91588853Y-326532016D01*
X91592309Y-326531634D01*
X91594708Y-326534048D01*
G37*
G36*
X90138452Y-326687911D02*
G01*
X90186877Y-326710231D01*
X90230815Y-326740237D01*
X90269071Y-326776740D01*
X90300453Y-326818552D01*
X90323766Y-326864484D01*
X90328355Y-326876946D01*
X90339448Y-326909563D01*
X90340835Y-327377314D01*
X90342221Y-327845065D01*
X89428761Y-327845065D01*
X88515303Y-327845065D01*
X88516733Y-327374833D01*
X88516995Y-327288732D01*
X88818327Y-327288732D01*
X88818327Y-327522478D01*
X89428761Y-327522478D01*
X90039194Y-327522478D01*
X90039187Y-327287982D01*
X90039160Y-327233183D01*
X90039062Y-327187420D01*
X90038862Y-327149803D01*
X90038530Y-327119442D01*
X90038035Y-327095448D01*
X90037346Y-327076931D01*
X90036432Y-327063001D01*
X90035263Y-327052769D01*
X90033809Y-327045344D01*
X90032037Y-327039838D01*
X90030502Y-327036469D01*
X90020672Y-327021933D01*
X90008600Y-327009767D01*
X90007813Y-327009173D01*
X90005556Y-327007592D01*
X90002970Y-327006182D01*
X89999505Y-327004934D01*
X89994611Y-327003836D01*
X89987734Y-327002881D01*
X89978326Y-327002057D01*
X89965835Y-327001356D01*
X89949711Y-327000766D01*
X89929401Y-327000280D01*
X89904357Y-326999885D01*
X89874025Y-326999574D01*
X89837857Y-326999336D01*
X89795300Y-326999161D01*
X89745805Y-326999040D01*
X89688819Y-326998963D01*
X89623793Y-326998919D01*
X89550175Y-326998900D01*
X89467414Y-326998895D01*
X89429637Y-326998895D01*
X88865474Y-326998895D01*
X88849957Y-327009964D01*
X88842930Y-327015068D01*
X88837030Y-327020087D01*
X88832157Y-327025885D01*
X88828214Y-327033330D01*
X88825102Y-327043290D01*
X88822723Y-327056629D01*
X88820978Y-327074217D01*
X88819770Y-327096918D01*
X88818999Y-327125600D01*
X88818567Y-327161131D01*
X88818376Y-327204376D01*
X88818328Y-327256202D01*
X88818327Y-327288732D01*
X88516995Y-327288732D01*
X88518163Y-326904600D01*
X88529694Y-326873717D01*
X88552083Y-326826772D01*
X88582081Y-326783967D01*
X88618366Y-326746590D01*
X88659615Y-326715928D01*
X88704504Y-326693268D01*
X88721345Y-326687303D01*
X88756291Y-326676308D01*
X89431242Y-326676308D01*
X90106193Y-326676308D01*
X90138452Y-326687911D01*
G37*
G36*
X91979100Y-333476696D02*
G01*
X91980373Y-333479740D01*
X91981440Y-333486271D01*
X91982320Y-333496987D01*
X91983028Y-333512584D01*
X91983582Y-333533759D01*
X91983999Y-333561210D01*
X91984297Y-333595632D01*
X91984491Y-333637724D01*
X91984600Y-333688181D01*
X91984641Y-333747701D01*
X91984642Y-333763276D01*
X91984642Y-334054078D01*
X91943698Y-334072920D01*
X91932504Y-334078078D01*
X91913115Y-334087020D01*
X91886347Y-334099369D01*
X91853016Y-334114749D01*
X91813939Y-334132782D01*
X91769932Y-334153093D01*
X91721811Y-334175304D01*
X91670392Y-334199038D01*
X91616493Y-334223920D01*
X91566546Y-334246978D01*
X91230338Y-334402194D01*
X91229071Y-334839071D01*
X91227803Y-335275949D01*
X90302227Y-335900506D01*
X90215554Y-335958986D01*
X90131062Y-336015984D01*
X90049121Y-336071253D01*
X89970098Y-336124545D01*
X89894361Y-336175611D01*
X89822278Y-336224204D01*
X89754218Y-336270076D01*
X89690547Y-336312979D01*
X89631635Y-336352665D01*
X89577849Y-336388886D01*
X89529556Y-336421395D01*
X89487127Y-336449943D01*
X89450927Y-336474282D01*
X89421325Y-336494165D01*
X89398690Y-336509344D01*
X89383389Y-336519571D01*
X89375790Y-336524598D01*
X89374982Y-336525099D01*
X89378105Y-336521627D01*
X89387980Y-336511363D01*
X89404363Y-336494552D01*
X89427010Y-336471442D01*
X89455677Y-336442280D01*
X89490119Y-336407313D01*
X89530092Y-336366789D01*
X89575352Y-336320953D01*
X89625654Y-336270053D01*
X89680754Y-336214336D01*
X89740409Y-336154050D01*
X89804372Y-336089440D01*
X89872401Y-336020755D01*
X89944250Y-335948241D01*
X90019677Y-335872146D01*
X90098435Y-335792715D01*
X90180281Y-335710197D01*
X90264971Y-335624838D01*
X90352260Y-335536885D01*
X90372948Y-335516044D01*
X90823329Y-335062336D01*
X90823479Y-334643589D01*
X90823630Y-334224843D01*
X91397098Y-333852627D01*
X91465618Y-333808158D01*
X91531903Y-333765147D01*
X91595470Y-333723909D01*
X91655837Y-333684754D01*
X91712520Y-333647997D01*
X91765039Y-333613950D01*
X91812909Y-333582926D01*
X91855649Y-333555236D01*
X91892775Y-333531195D01*
X91923806Y-333511114D01*
X91948259Y-333495307D01*
X91965651Y-333484086D01*
X91975499Y-333477764D01*
X91977604Y-333476442D01*
X91979100Y-333476696D01*
G37*
G36*
X91983616Y-332465447D02*
G01*
X91983819Y-332479353D01*
X91984007Y-332501531D01*
X91984176Y-332531152D01*
X91984325Y-332567390D01*
X91984448Y-332609419D01*
X91984544Y-332656409D01*
X91984609Y-332707536D01*
X91984640Y-332761970D01*
X91984642Y-332780477D01*
X91984642Y-333100414D01*
X91819626Y-333198690D01*
X91794463Y-333213673D01*
X91761476Y-333233310D01*
X91721372Y-333257180D01*
X91674858Y-333284862D01*
X91622641Y-333315936D01*
X91565428Y-333349981D01*
X91503925Y-333386576D01*
X91438839Y-333425302D01*
X91370878Y-333465737D01*
X91300748Y-333507460D01*
X91229157Y-333550052D01*
X91156810Y-333593091D01*
X91087602Y-333634262D01*
X90520593Y-333971557D01*
X90520448Y-334495230D01*
X90520303Y-335018903D01*
X89832551Y-335607004D01*
X89760483Y-335668630D01*
X89690094Y-335728819D01*
X89621786Y-335787228D01*
X89555961Y-335843514D01*
X89493021Y-335897332D01*
X89433368Y-335948339D01*
X89377404Y-335996191D01*
X89325530Y-336040545D01*
X89278149Y-336081058D01*
X89235662Y-336117385D01*
X89198471Y-336149183D01*
X89166977Y-336176109D01*
X89141584Y-336197818D01*
X89122692Y-336213968D01*
X89110704Y-336224215D01*
X89107018Y-336227363D01*
X89092195Y-336239644D01*
X89081532Y-336247732D01*
X89076218Y-336250781D01*
X89076539Y-336249129D01*
X89080405Y-336244209D01*
X89090206Y-336231987D01*
X89105619Y-336212863D01*
X89126318Y-336187237D01*
X89151979Y-336155511D01*
X89182278Y-336118084D01*
X89216890Y-336075356D01*
X89255490Y-336027729D01*
X89297754Y-335975602D01*
X89343357Y-335919376D01*
X89391976Y-335859451D01*
X89443284Y-335796228D01*
X89496959Y-335730107D01*
X89552675Y-335661488D01*
X89610107Y-335590773D01*
X89624794Y-335572692D01*
X90165748Y-334906748D01*
X90168229Y-334310683D01*
X90170711Y-333714619D01*
X91076436Y-333087679D01*
X91161816Y-333028583D01*
X91245026Y-332970995D01*
X91325699Y-332915170D01*
X91403467Y-332861361D01*
X91477963Y-332809823D01*
X91548819Y-332760810D01*
X91615668Y-332714574D01*
X91678144Y-332671372D01*
X91735878Y-332631456D01*
X91788503Y-332595080D01*
X91835652Y-332562498D01*
X91876958Y-332533965D01*
X91912053Y-332509734D01*
X91940570Y-332490059D01*
X91962141Y-332475194D01*
X91976400Y-332465393D01*
X91982979Y-332460910D01*
X91983401Y-332460640D01*
X91983616Y-332465447D01*
G37*
G36*
X92365934Y-328609355D02*
G01*
X92419558Y-328609433D01*
X92464885Y-328609672D01*
X92502730Y-328610157D01*
X92533907Y-328610978D01*
X92559230Y-328612222D01*
X92579514Y-328613977D01*
X92595574Y-328616330D01*
X92608222Y-328619370D01*
X92618275Y-328623184D01*
X92626547Y-328627860D01*
X92633851Y-328633485D01*
X92641003Y-328640148D01*
X92647316Y-328646439D01*
X92656090Y-328655477D01*
X92663359Y-328664109D01*
X92669265Y-328673332D01*
X92673949Y-328684145D01*
X92677552Y-328697546D01*
X92680216Y-328714532D01*
X92682082Y-328736101D01*
X92683293Y-328763252D01*
X92683989Y-328796983D01*
X92684312Y-328838290D01*
X92684404Y-328888172D01*
X92684407Y-328908036D01*
X92684407Y-329100735D01*
X92303507Y-329099463D01*
X92302367Y-329099459D01*
X91922606Y-329098192D01*
X91922606Y-328899676D01*
X91922616Y-328863403D01*
X92049159Y-328863403D01*
X92049159Y-328961712D01*
X92302367Y-328961712D01*
X92555574Y-328961712D01*
X92554233Y-328858875D01*
X92552891Y-328756038D01*
X92540484Y-328749688D01*
X92535312Y-328748141D01*
X92525926Y-328746876D01*
X92511589Y-328745880D01*
X92491566Y-328745136D01*
X92465121Y-328744629D01*
X92431517Y-328744345D01*
X92390019Y-328744266D01*
X92339891Y-328744379D01*
X92295660Y-328744582D01*
X92241571Y-328744886D01*
X92196546Y-328745193D01*
X92159722Y-328745542D01*
X92130238Y-328745972D01*
X92107230Y-328746523D01*
X92089836Y-328747233D01*
X92077194Y-328748142D01*
X92068443Y-328749289D01*
X92062719Y-328750713D01*
X92059161Y-328752453D01*
X92056906Y-328754548D01*
X92056201Y-328755461D01*
X92053651Y-328761099D01*
X92051760Y-328770882D01*
X92050447Y-328786041D01*
X92049631Y-328807804D01*
X92049233Y-328837400D01*
X92049159Y-328863403D01*
X91922616Y-328863403D01*
X91922619Y-328850052D01*
X91922691Y-328809351D01*
X91922873Y-328776572D01*
X91923215Y-328750713D01*
X91923767Y-328730774D01*
X91924578Y-328715750D01*
X91925700Y-328704642D01*
X91927182Y-328696447D01*
X91929074Y-328690163D01*
X91931426Y-328684788D01*
X91933565Y-328680674D01*
X91947746Y-328660330D01*
X91966971Y-328640854D01*
X91988159Y-328624935D01*
X92008234Y-328615264D01*
X92008498Y-328615185D01*
X92016740Y-328613776D01*
X92031639Y-328612580D01*
X92053647Y-328611587D01*
X92083213Y-328610787D01*
X92120791Y-328610173D01*
X92166829Y-328609735D01*
X92221781Y-328609465D01*
X92286096Y-328609353D01*
X92303198Y-328609348D01*
X92365934Y-328609355D01*
G37*
G36*
X92253878Y-329304260D02*
G01*
X92319622Y-329304289D01*
X92376187Y-329304345D01*
X92424320Y-329304448D01*
X92464768Y-329304621D01*
X92498277Y-329304885D01*
X92525595Y-329305261D01*
X92547467Y-329305770D01*
X92564641Y-329306435D01*
X92577864Y-329307276D01*
X92587882Y-329308315D01*
X92595443Y-329309573D01*
X92601292Y-329311072D01*
X92606177Y-329312834D01*
X92609964Y-329314478D01*
X92640179Y-329332975D01*
X92663306Y-329358190D01*
X92671214Y-329371150D01*
X92674226Y-329377132D01*
X92676624Y-329383459D01*
X92678484Y-329391300D01*
X92679886Y-329401822D01*
X92680906Y-329416195D01*
X92681623Y-329435589D01*
X92682114Y-329461171D01*
X92682458Y-329494111D01*
X92682732Y-329535577D01*
X92682785Y-329544850D01*
X92682860Y-329588765D01*
X92682590Y-329628020D01*
X92682001Y-329661555D01*
X92681118Y-329688313D01*
X92679967Y-329707235D01*
X92678614Y-329717121D01*
X92670067Y-329735662D01*
X92655394Y-329755692D01*
X92637303Y-329774173D01*
X92618502Y-329788069D01*
X92612638Y-329791116D01*
X92608224Y-329792908D01*
X92602962Y-329794450D01*
X92596114Y-329795760D01*
X92586945Y-329796858D01*
X92574717Y-329797763D01*
X92558692Y-329798493D01*
X92538134Y-329799067D01*
X92512306Y-329799506D01*
X92480470Y-329799827D01*
X92441889Y-329800050D01*
X92395827Y-329800194D01*
X92341546Y-329800278D01*
X92278309Y-329800321D01*
X92256359Y-329800329D01*
X91920125Y-329800438D01*
X91920125Y-329733440D01*
X91920125Y-329666441D01*
X92229535Y-329666441D01*
X92292721Y-329666429D01*
X92346725Y-329666379D01*
X92392289Y-329666270D01*
X92430157Y-329666080D01*
X92461072Y-329665789D01*
X92485777Y-329665374D01*
X92505016Y-329664816D01*
X92519531Y-329664092D01*
X92530065Y-329663181D01*
X92537363Y-329662063D01*
X92542166Y-329660715D01*
X92545219Y-329659117D01*
X92547159Y-329657365D01*
X92550043Y-329652970D01*
X92552178Y-329646147D01*
X92553669Y-329635512D01*
X92554624Y-329619683D01*
X92555151Y-329597276D01*
X92555356Y-329566910D01*
X92555373Y-329551432D01*
X92555296Y-329517776D01*
X92554987Y-329492645D01*
X92554324Y-329474638D01*
X92553186Y-329462355D01*
X92551452Y-329454396D01*
X92549001Y-329449360D01*
X92546297Y-329446362D01*
X92543751Y-329444675D01*
X92539636Y-329443234D01*
X92533213Y-329442019D01*
X92523744Y-329441013D01*
X92510490Y-329440195D01*
X92492713Y-329439547D01*
X92469674Y-329439049D01*
X92440634Y-329438683D01*
X92404856Y-329438429D01*
X92361601Y-329438268D01*
X92310129Y-329438182D01*
X92249704Y-329438150D01*
X92228673Y-329438149D01*
X91920125Y-329438149D01*
X91920125Y-329371150D01*
X91920125Y-329304151D01*
X92253878Y-329304260D01*
G37*
G36*
X91596384Y-329308827D02*
G01*
X91596747Y-329321716D01*
X91596838Y-329341108D01*
X91596643Y-329365293D01*
X91596426Y-329379012D01*
X91595056Y-329453873D01*
X91449892Y-329523786D01*
X91304728Y-329593699D01*
X91304728Y-329664810D01*
X91304728Y-329735921D01*
X91451133Y-329735921D01*
X91597538Y-329735921D01*
X91597538Y-329802920D01*
X91597538Y-329869919D01*
X91217878Y-329869919D01*
X91125316Y-329869919D01*
X90838218Y-329869919D01*
X90838218Y-329658837D01*
X90838279Y-329604852D01*
X90838480Y-329559954D01*
X90838845Y-329523305D01*
X90839053Y-329512331D01*
X90962099Y-329512331D01*
X90963435Y-329622885D01*
X90964771Y-329733440D01*
X91066376Y-329734787D01*
X91097437Y-329735075D01*
X91125316Y-329735100D01*
X91148417Y-329734880D01*
X91165140Y-329734431D01*
X91173888Y-329733772D01*
X91174583Y-329733600D01*
X91176766Y-329730923D01*
X91178365Y-329724089D01*
X91179426Y-329712024D01*
X91179998Y-329693653D01*
X91180128Y-329667902D01*
X91179865Y-329633696D01*
X91179680Y-329618901D01*
X91179169Y-329582762D01*
X91178638Y-329555239D01*
X91177946Y-329535024D01*
X91176950Y-329520808D01*
X91175508Y-329511283D01*
X91173478Y-329505139D01*
X91170716Y-329501069D01*
X91167082Y-329497763D01*
X91166458Y-329497256D01*
X91161226Y-329493747D01*
X91154487Y-329491219D01*
X91144650Y-329489517D01*
X91130123Y-329488482D01*
X91109313Y-329487957D01*
X91080628Y-329487784D01*
X91070697Y-329487777D01*
X91039976Y-329487822D01*
X91017579Y-329488094D01*
X91001907Y-329488796D01*
X90991358Y-329490132D01*
X90984331Y-329492307D01*
X90979226Y-329495524D01*
X90974442Y-329499988D01*
X90974376Y-329500054D01*
X90962099Y-329512331D01*
X90839053Y-329512331D01*
X90839400Y-329494066D01*
X90840170Y-329471399D01*
X90841180Y-329454466D01*
X90842456Y-329442429D01*
X90844021Y-329434449D01*
X90845041Y-329431425D01*
X90859607Y-329407061D01*
X90880884Y-329384736D01*
X90905725Y-329367638D01*
X90910143Y-329365449D01*
X90917835Y-329362022D01*
X90925312Y-329359349D01*
X90933873Y-329357337D01*
X90944819Y-329355893D01*
X90959452Y-329354923D01*
X90979072Y-329354336D01*
X91004979Y-329354039D01*
X91038474Y-329353938D01*
X91071473Y-329353937D01*
X91112574Y-329354013D01*
X91145011Y-329354250D01*
X91170042Y-329354723D01*
X91188930Y-329355505D01*
X91202933Y-329356671D01*
X91213312Y-329358295D01*
X91221328Y-329360451D01*
X91228128Y-329363162D01*
X91255357Y-329379449D01*
X91277730Y-329400544D01*
X91292210Y-329423015D01*
X91298421Y-329435146D01*
X91303515Y-329442298D01*
X91304903Y-329443111D01*
X91310092Y-329441014D01*
X91323103Y-329435067D01*
X91342845Y-329425790D01*
X91368228Y-329413700D01*
X91398161Y-329399315D01*
X91431553Y-329383155D01*
X91451133Y-329373631D01*
X91485888Y-329356727D01*
X91517707Y-329341308D01*
X91545515Y-329327891D01*
X91568235Y-329316993D01*
X91584791Y-329309130D01*
X91594109Y-329304820D01*
X91595764Y-329304151D01*
X91596384Y-329308827D01*
G37*
G36*
X89313374Y-329801605D02*
G01*
X90111156Y-329802920D01*
X90142039Y-329814496D01*
X90191071Y-329837828D01*
X90234702Y-329868613D01*
X90272033Y-329905873D01*
X90302168Y-329948632D01*
X90324211Y-329995913D01*
X90332018Y-330021342D01*
X90333957Y-330029294D01*
X90335624Y-330037391D01*
X90337039Y-330046407D01*
X90338221Y-330057118D01*
X90339189Y-330070296D01*
X90339963Y-330086718D01*
X90340563Y-330107158D01*
X90341007Y-330132389D01*
X90341316Y-330163187D01*
X90341508Y-330200326D01*
X90341603Y-330244581D01*
X90341621Y-330296726D01*
X90341581Y-330357536D01*
X90341535Y-330400500D01*
X90341413Y-330471088D01*
X90341211Y-330532403D01*
X90340919Y-330585094D01*
X90340523Y-330629814D01*
X90340011Y-330667213D01*
X90339371Y-330697943D01*
X90338589Y-330722655D01*
X90337654Y-330742000D01*
X90336553Y-330756629D01*
X90335274Y-330767194D01*
X90334429Y-330771794D01*
X90320550Y-330814347D01*
X90298361Y-330855979D01*
X90269421Y-330894718D01*
X90235288Y-330928592D01*
X90197521Y-330955627D01*
X90182888Y-330963527D01*
X90174482Y-330967746D01*
X90166886Y-330971589D01*
X90159622Y-330975071D01*
X90152213Y-330978212D01*
X90144182Y-330981027D01*
X90135051Y-330983536D01*
X90124344Y-330985756D01*
X90111582Y-330987705D01*
X90096289Y-330989400D01*
X90077987Y-330990859D01*
X90056200Y-330992100D01*
X90030448Y-330993140D01*
X90000256Y-330993997D01*
X89965146Y-330994689D01*
X89924641Y-330995233D01*
X89878263Y-330995648D01*
X89825535Y-330995950D01*
X89765980Y-330996158D01*
X89699120Y-330996290D01*
X89624478Y-330996362D01*
X89541577Y-330996393D01*
X89449940Y-330996400D01*
X89349088Y-330996402D01*
X89296004Y-330996405D01*
X88515592Y-330996492D01*
X88515592Y-330835278D01*
X88515592Y-330674064D01*
X89254207Y-330672743D01*
X89992822Y-330671423D01*
X90010885Y-330657645D01*
X90026682Y-330641044D01*
X90034349Y-330625386D01*
X90035857Y-330615036D01*
X90037032Y-330595379D01*
X90037875Y-330566303D01*
X90038388Y-330527697D01*
X90038573Y-330479450D01*
X90038431Y-330421451D01*
X90038231Y-330387657D01*
X90037854Y-330335248D01*
X90037485Y-330291845D01*
X90037077Y-330256531D01*
X90036583Y-330228387D01*
X90035958Y-330206493D01*
X90035154Y-330189932D01*
X90034126Y-330177784D01*
X90032827Y-330169131D01*
X90031210Y-330163054D01*
X90029228Y-330158635D01*
X90026837Y-330154954D01*
X90026434Y-330154402D01*
X90014675Y-330142378D01*
X90000095Y-330132219D01*
X89999139Y-330131718D01*
X89996394Y-330130536D01*
X89992706Y-330129466D01*
X89987593Y-330128502D01*
X89980575Y-330127640D01*
X89971171Y-330126872D01*
X89958903Y-330126195D01*
X89943290Y-330125602D01*
X89923851Y-330125087D01*
X89900106Y-330124646D01*
X89871575Y-330124273D01*
X89837778Y-330123961D01*
X89798236Y-330123706D01*
X89752466Y-330123502D01*
X89699990Y-330123343D01*
X89640327Y-330123225D01*
X89572998Y-330123140D01*
X89497521Y-330123084D01*
X89413417Y-330123051D01*
X89320205Y-330123036D01*
X89248856Y-330123033D01*
X88515592Y-330123025D01*
X88515592Y-329961658D01*
X88515592Y-329800291D01*
X89313374Y-329801605D01*
G37*
G36*
X91334749Y-330033931D02*
G01*
X91380301Y-330034085D01*
X91418333Y-330034453D01*
X91449646Y-330035121D01*
X91475042Y-330036177D01*
X91495322Y-330037708D01*
X91511290Y-330039801D01*
X91523745Y-330042544D01*
X91533491Y-330046023D01*
X91541328Y-330050326D01*
X91548059Y-330055541D01*
X91554486Y-330061754D01*
X91561409Y-330069053D01*
X91563796Y-330071564D01*
X91572580Y-330080972D01*
X91579690Y-330089715D01*
X91585303Y-330098928D01*
X91589595Y-330109748D01*
X91592745Y-330123311D01*
X91594928Y-330140754D01*
X91596321Y-330163213D01*
X91597102Y-330191825D01*
X91597448Y-330227725D01*
X91597535Y-330272050D01*
X91597538Y-330288232D01*
X91597538Y-330448795D01*
X91583890Y-330475706D01*
X91564275Y-330504184D01*
X91538466Y-330525344D01*
X91507547Y-330538341D01*
X91501591Y-330539735D01*
X91490135Y-330541123D01*
X91470277Y-330542247D01*
X91441782Y-330543107D01*
X91404417Y-330543709D01*
X91357945Y-330544054D01*
X91302131Y-330544147D01*
X91236741Y-330543990D01*
X91202474Y-330543830D01*
X90977407Y-330542639D01*
X90930031Y-330542388D01*
X90906470Y-330530786D01*
X90882192Y-330514757D01*
X90861545Y-330493452D01*
X90847141Y-330469778D01*
X90843977Y-330461204D01*
X90842004Y-330449017D01*
X90840444Y-330426997D01*
X90839296Y-330395124D01*
X90838560Y-330353378D01*
X90838497Y-330343419D01*
X90962789Y-330343419D01*
X90963262Y-330362796D01*
X90964303Y-330376423D01*
X90965991Y-330385689D01*
X90968405Y-330391983D01*
X90969555Y-330393926D01*
X90977407Y-330405909D01*
X91217711Y-330405909D01*
X91458014Y-330405909D01*
X91465942Y-330394743D01*
X91468668Y-330389610D01*
X91470646Y-330382102D01*
X91471955Y-330370845D01*
X91472674Y-330354461D01*
X91472884Y-330331576D01*
X91472664Y-330300811D01*
X91472427Y-330282670D01*
X91471874Y-330248392D01*
X91471240Y-330222684D01*
X91470385Y-330204188D01*
X91469169Y-330191547D01*
X91467454Y-330183405D01*
X91465100Y-330178406D01*
X91461968Y-330175192D01*
X91461351Y-330174727D01*
X91453969Y-330172929D01*
X91437875Y-330171364D01*
X91414281Y-330170033D01*
X91384397Y-330168937D01*
X91349436Y-330168073D01*
X91310608Y-330167444D01*
X91269124Y-330167048D01*
X91226197Y-330166886D01*
X91183036Y-330166958D01*
X91140854Y-330167264D01*
X91100861Y-330167803D01*
X91064269Y-330168577D01*
X91032289Y-330169584D01*
X91006133Y-330170825D01*
X90987011Y-330172299D01*
X90976135Y-330174008D01*
X90974404Y-330174727D01*
X90971114Y-330177790D01*
X90968629Y-330182426D01*
X90966807Y-330189996D01*
X90965507Y-330201864D01*
X90964586Y-330219392D01*
X90963902Y-330243943D01*
X90963314Y-330276879D01*
X90963237Y-330281852D01*
X90962807Y-330316901D01*
X90962789Y-330343419D01*
X90838497Y-330343419D01*
X90838235Y-330301740D01*
X90838218Y-330284824D01*
X90838263Y-330238031D01*
X90838520Y-330200011D01*
X90839171Y-330169614D01*
X90840399Y-330145689D01*
X90842385Y-330127083D01*
X90845312Y-330112645D01*
X90849362Y-330101223D01*
X90854717Y-330091667D01*
X90861559Y-330082824D01*
X90870071Y-330073543D01*
X90871959Y-330071564D01*
X90879202Y-330063909D01*
X90885697Y-330057367D01*
X90892247Y-330051850D01*
X90899653Y-330047272D01*
X90908718Y-330043545D01*
X90920243Y-330040582D01*
X90935029Y-330038296D01*
X90953879Y-330036599D01*
X90977594Y-330035405D01*
X91006975Y-330034625D01*
X91042826Y-330034173D01*
X91085947Y-330033961D01*
X91137140Y-330033903D01*
X91197207Y-330033910D01*
X91217878Y-330033912D01*
X91280875Y-330033902D01*
X91334749Y-330033931D01*
G37*
G36*
X92153380Y-330688793D02*
G01*
X92153380Y-330758274D01*
X92109483Y-330758274D01*
X92089498Y-330758343D01*
X92074497Y-330759381D01*
X92063765Y-330762630D01*
X92056588Y-330769335D01*
X92052253Y-330780739D01*
X92050046Y-330798086D01*
X92049252Y-330822620D01*
X92049157Y-330855584D01*
X92049159Y-330863356D01*
X92049125Y-330897876D01*
X92049651Y-330923727D01*
X92051675Y-330942157D01*
X92056140Y-330954417D01*
X92063984Y-330961756D01*
X92076148Y-330965422D01*
X92093571Y-330966666D01*
X92117196Y-330966736D01*
X92126946Y-330966714D01*
X92153021Y-330966511D01*
X92171001Y-330965746D01*
X92182713Y-330964183D01*
X92189982Y-330961587D01*
X92194364Y-330958029D01*
X92197870Y-330950946D01*
X92203526Y-330935731D01*
X92210861Y-330913828D01*
X92219403Y-330886678D01*
X92228679Y-330855723D01*
X92234857Y-330834320D01*
X92247113Y-330791601D01*
X92257277Y-330757267D01*
X92265811Y-330730112D01*
X92273175Y-330708927D01*
X92279829Y-330692507D01*
X92286235Y-330679643D01*
X92292853Y-330669130D01*
X92300144Y-330659760D01*
X92302548Y-330656972D01*
X92312766Y-330645829D01*
X92322442Y-330637129D01*
X92332945Y-330630570D01*
X92345642Y-330625852D01*
X92361900Y-330622673D01*
X92383088Y-330620732D01*
X92410572Y-330619727D01*
X92445721Y-330619356D01*
X92473447Y-330619313D01*
X92514442Y-330619474D01*
X92546589Y-330619995D01*
X92570960Y-330620930D01*
X92588627Y-330622335D01*
X92600663Y-330624263D01*
X92606762Y-330626137D01*
X92629192Y-330639343D01*
X92650840Y-330658642D01*
X92668040Y-330680630D01*
X92671052Y-330685842D01*
X92674155Y-330692035D01*
X92676615Y-330698509D01*
X92678516Y-330706460D01*
X92679941Y-330717084D01*
X92680974Y-330731578D01*
X92681698Y-330751139D01*
X92682198Y-330776963D01*
X92682556Y-330810247D01*
X92682857Y-330852187D01*
X92682875Y-330855050D01*
X92682988Y-330893087D01*
X92682844Y-330928371D01*
X92682470Y-330959548D01*
X92681890Y-330985268D01*
X92681129Y-331004179D01*
X92680212Y-331014928D01*
X92679906Y-331016375D01*
X92665084Y-331048815D01*
X92643060Y-331074465D01*
X92613510Y-331093690D01*
X92609964Y-331095348D01*
X92599191Y-331099578D01*
X92587440Y-331102471D01*
X92572564Y-331104270D01*
X92552418Y-331105216D01*
X92524856Y-331105552D01*
X92519392Y-331105566D01*
X92451152Y-331105675D01*
X92451152Y-331038676D01*
X92451152Y-330971677D01*
X92495049Y-330971677D01*
X92514639Y-330971634D01*
X92529455Y-330970695D01*
X92540162Y-330967645D01*
X92547427Y-330961269D01*
X92551915Y-330950353D01*
X92554293Y-330933682D01*
X92555226Y-330910041D01*
X92555380Y-330878215D01*
X92555373Y-330861632D01*
X92555289Y-330828928D01*
X92554951Y-330804705D01*
X92554228Y-330787521D01*
X92552988Y-330775932D01*
X92551101Y-330768495D01*
X92548437Y-330763766D01*
X92546297Y-330761524D01*
X92540788Y-330758042D01*
X92532176Y-330755671D01*
X92518733Y-330754220D01*
X92498732Y-330753497D01*
X92472208Y-330753311D01*
X92443262Y-330753457D01*
X92422502Y-330754523D01*
X92408189Y-330757446D01*
X92398586Y-330763164D01*
X92391951Y-330772615D01*
X92386548Y-330786738D01*
X92381950Y-330802003D01*
X92377269Y-330817954D01*
X92370491Y-330841058D01*
X92362314Y-330868940D01*
X92353433Y-330899230D01*
X92346922Y-330921442D01*
X92335010Y-330960985D01*
X92324712Y-330992322D01*
X92315378Y-331016909D01*
X92306358Y-331036205D01*
X92297003Y-331051665D01*
X92286662Y-331064747D01*
X92279753Y-331072022D01*
X92268271Y-331082719D01*
X92257015Y-331090943D01*
X92244519Y-331096986D01*
X92229318Y-331101142D01*
X92209947Y-331103703D01*
X92184941Y-331104962D01*
X92152835Y-331105212D01*
X92115719Y-331104802D01*
X92080555Y-331104184D01*
X92053800Y-331103466D01*
X92033939Y-331102497D01*
X92019456Y-331101126D01*
X92008834Y-331099204D01*
X92000557Y-331096580D01*
X91993110Y-331093103D01*
X91992021Y-331092526D01*
X91961506Y-331070722D01*
X91937932Y-331041862D01*
X91933274Y-331033778D01*
X91930111Y-331027375D01*
X91927619Y-331020512D01*
X91925701Y-331011933D01*
X91924258Y-331000385D01*
X91923194Y-330984610D01*
X91922410Y-330963356D01*
X91921809Y-330935365D01*
X91921293Y-330899383D01*
X91921015Y-330876135D01*
X91920604Y-330828812D01*
X91920713Y-330790214D01*
X91921552Y-330759147D01*
X91923329Y-330734415D01*
X91926254Y-330714824D01*
X91930534Y-330699179D01*
X91936379Y-330686284D01*
X91943997Y-330674944D01*
X91953599Y-330663965D01*
X91959073Y-330658372D01*
X91976078Y-330643579D01*
X91994328Y-330632846D01*
X92015731Y-330625623D01*
X92042197Y-330621360D01*
X92075634Y-330619507D01*
X92094726Y-330619313D01*
X92153380Y-330619313D01*
X92153380Y-330688793D01*
G37*
G36*
X89130988Y-328385422D02*
G01*
X89130988Y-328549345D01*
X88994900Y-328550810D01*
X88858813Y-328552275D01*
X88845543Y-328564682D01*
X88839226Y-328570646D01*
X88833971Y-328576290D01*
X88829680Y-328582539D01*
X88826255Y-328590319D01*
X88823598Y-328600555D01*
X88821613Y-328614175D01*
X88820201Y-328632102D01*
X88819265Y-328655264D01*
X88818708Y-328684585D01*
X88818430Y-328720992D01*
X88818336Y-328765410D01*
X88818327Y-328818765D01*
X88818327Y-328822752D01*
X88818332Y-328877007D01*
X88818416Y-328922256D01*
X88818687Y-328959418D01*
X88819250Y-328989411D01*
X88820211Y-329013156D01*
X88821676Y-329031570D01*
X88823752Y-329045574D01*
X88826543Y-329056087D01*
X88830157Y-329064027D01*
X88834698Y-329070314D01*
X88840274Y-329075868D01*
X88846990Y-329081606D01*
X88848307Y-329082712D01*
X88863754Y-329095710D01*
X89427135Y-329095710D01*
X89515683Y-329095726D01*
X89594844Y-329095751D01*
X89665158Y-329095754D01*
X89727162Y-329095704D01*
X89781397Y-329095567D01*
X89828401Y-329095311D01*
X89868712Y-329094906D01*
X89902871Y-329094319D01*
X89931415Y-329093517D01*
X89954884Y-329092469D01*
X89973817Y-329091143D01*
X89988752Y-329089507D01*
X90000229Y-329087529D01*
X90008786Y-329085176D01*
X90014963Y-329082417D01*
X90019298Y-329079220D01*
X90022331Y-329075553D01*
X90024599Y-329071384D01*
X90026643Y-329066681D01*
X90029001Y-329061411D01*
X90029741Y-329059927D01*
X90032010Y-329055014D01*
X90033885Y-329049308D01*
X90035404Y-329041870D01*
X90036603Y-329031764D01*
X90037520Y-329018051D01*
X90038193Y-328999794D01*
X90038658Y-328976056D01*
X90038953Y-328945899D01*
X90039116Y-328908386D01*
X90039184Y-328862579D01*
X90039194Y-328822752D01*
X90039175Y-328770248D01*
X90039091Y-328726730D01*
X90038904Y-328691256D01*
X90038575Y-328662887D01*
X90038068Y-328640682D01*
X90037342Y-328623700D01*
X90036361Y-328611001D01*
X90035085Y-328601645D01*
X90033476Y-328594690D01*
X90031497Y-328589198D01*
X90029516Y-328585019D01*
X90024228Y-328575440D01*
X90018447Y-328567773D01*
X90011069Y-328561806D01*
X90000988Y-328557327D01*
X89987098Y-328554123D01*
X89968296Y-328551982D01*
X89943474Y-328550692D01*
X89911528Y-328550040D01*
X89871353Y-328549813D01*
X89846133Y-328549794D01*
X89706682Y-328549794D01*
X89706682Y-328385662D01*
X89706682Y-328221529D01*
X89901475Y-328223322D01*
X90096268Y-328225115D01*
X90135971Y-328238457D01*
X90185719Y-328260305D01*
X90230561Y-328290402D01*
X90269441Y-328327850D01*
X90301306Y-328371751D01*
X90309517Y-328386380D01*
X90315493Y-328397887D01*
X90320682Y-328408601D01*
X90325138Y-328419282D01*
X90328915Y-328430692D01*
X90332071Y-328443592D01*
X90334660Y-328458746D01*
X90336737Y-328476913D01*
X90338358Y-328498856D01*
X90339578Y-328525336D01*
X90340452Y-328557116D01*
X90341036Y-328594956D01*
X90341384Y-328639619D01*
X90341553Y-328691866D01*
X90341598Y-328752460D01*
X90341574Y-328822160D01*
X90341570Y-328827715D01*
X90341519Y-328894533D01*
X90341432Y-328952192D01*
X90341289Y-329001460D01*
X90341071Y-329043104D01*
X90340759Y-329077891D01*
X90340333Y-329106588D01*
X90339773Y-329129964D01*
X90339061Y-329148784D01*
X90338177Y-329163816D01*
X90337101Y-329175828D01*
X90335815Y-329185586D01*
X90334298Y-329193858D01*
X90332532Y-329201412D01*
X90332077Y-329203171D01*
X90320426Y-329239877D01*
X90305336Y-329271432D01*
X90284499Y-329302483D01*
X90279381Y-329309114D01*
X90243599Y-329346751D01*
X90200721Y-329378121D01*
X90151927Y-329402437D01*
X90125833Y-329411656D01*
X90121261Y-329412955D01*
X90116058Y-329414125D01*
X90109707Y-329415172D01*
X90101692Y-329416104D01*
X90091499Y-329416927D01*
X90078611Y-329417647D01*
X90062513Y-329418272D01*
X90042689Y-329418808D01*
X90018624Y-329419263D01*
X89989803Y-329419642D01*
X89955708Y-329419952D01*
X89915826Y-329420201D01*
X89869641Y-329420394D01*
X89816636Y-329420540D01*
X89756296Y-329420643D01*
X89688106Y-329420712D01*
X89611549Y-329420753D01*
X89526112Y-329420773D01*
X89431277Y-329420778D01*
X89428761Y-329420778D01*
X89333683Y-329420774D01*
X89248015Y-329420754D01*
X89171242Y-329420714D01*
X89102847Y-329420646D01*
X89042314Y-329420543D01*
X88989129Y-329420399D01*
X88942775Y-329420206D01*
X88902736Y-329419959D01*
X88868496Y-329419651D01*
X88839540Y-329419273D01*
X88815353Y-329418821D01*
X88795417Y-329418287D01*
X88779218Y-329417664D01*
X88766240Y-329416946D01*
X88755967Y-329416126D01*
X88747882Y-329415197D01*
X88741472Y-329414152D01*
X88736218Y-329412985D01*
X88731607Y-329411688D01*
X88731477Y-329411648D01*
X88682064Y-329391901D01*
X88637329Y-329364865D01*
X88598245Y-329331546D01*
X88565786Y-329292948D01*
X88540924Y-329250077D01*
X88524632Y-329203937D01*
X88522870Y-329196244D01*
X88521423Y-329187767D01*
X88520176Y-329176512D01*
X88519116Y-329161776D01*
X88518229Y-329142855D01*
X88517502Y-329119046D01*
X88516922Y-329089643D01*
X88516476Y-329053943D01*
X88516149Y-329011242D01*
X88515928Y-328960836D01*
X88515800Y-328902022D01*
X88515752Y-328834094D01*
X88515751Y-328822752D01*
X88515756Y-328753088D01*
X88515813Y-328692576D01*
X88515976Y-328640446D01*
X88516301Y-328595922D01*
X88516842Y-328558234D01*
X88517654Y-328526608D01*
X88518792Y-328500272D01*
X88520310Y-328478452D01*
X88522264Y-328460377D01*
X88524707Y-328445273D01*
X88527695Y-328432368D01*
X88531282Y-328420889D01*
X88535523Y-328410064D01*
X88540474Y-328399119D01*
X88546188Y-328387282D01*
X88546676Y-328386281D01*
X88563372Y-328358875D01*
X88586594Y-328330011D01*
X88613822Y-328302220D01*
X88642537Y-328278033D01*
X88670221Y-328259980D01*
X88674629Y-328257711D01*
X88690821Y-328249869D01*
X88705268Y-328243418D01*
X88719148Y-328238209D01*
X88733638Y-328234094D01*
X88749915Y-328230926D01*
X88769156Y-328228556D01*
X88792540Y-328226836D01*
X88821242Y-328225617D01*
X88856441Y-328224752D01*
X88899315Y-328224092D01*
X88946121Y-328223544D01*
X89130988Y-328221499D01*
X89130988Y-328385422D01*
G37*
G36*
X91933336Y-331517518D02*
G01*
X92019570Y-331528980D01*
X92104173Y-331549448D01*
X92186343Y-331578875D01*
X92265282Y-331617211D01*
X92312192Y-331645396D01*
X92382961Y-331697074D01*
X92446699Y-331755649D01*
X92503262Y-331820869D01*
X92552504Y-331892483D01*
X92594282Y-331970240D01*
X92628449Y-332053888D01*
X92654861Y-332143176D01*
X92673374Y-332237851D01*
X92679174Y-332282922D01*
X92679893Y-332294613D01*
X92680554Y-332315939D01*
X92681159Y-332346922D01*
X92681707Y-332387586D01*
X92682198Y-332437951D01*
X92682633Y-332498041D01*
X92683011Y-332567876D01*
X92683333Y-332647481D01*
X92683598Y-332736876D01*
X92683807Y-332836083D01*
X92683960Y-332945126D01*
X92684057Y-333064027D01*
X92684099Y-333192807D01*
X92684084Y-333331488D01*
X92684081Y-333342496D01*
X92684035Y-333462294D01*
X92683975Y-333572561D01*
X92683899Y-333673690D01*
X92683804Y-333766077D01*
X92683686Y-333850115D01*
X92683544Y-333926199D01*
X92683373Y-333994723D01*
X92683172Y-334056080D01*
X92682937Y-334110667D01*
X92682666Y-334158876D01*
X92682355Y-334201102D01*
X92682003Y-334237739D01*
X92681604Y-334269182D01*
X92681158Y-334295825D01*
X92680661Y-334318061D01*
X92680111Y-334336287D01*
X92679503Y-334350895D01*
X92678837Y-334362279D01*
X92678107Y-334370835D01*
X92677313Y-334376957D01*
X92676518Y-334380792D01*
X92658980Y-334427704D01*
X92631987Y-334473853D01*
X92596010Y-334518562D01*
X92551519Y-334561152D01*
X92550995Y-334561597D01*
X92535972Y-334573866D01*
X92514620Y-334590654D01*
X92488645Y-334610653D01*
X92459755Y-334632555D01*
X92429654Y-334655052D01*
X92413931Y-334666669D01*
X92372611Y-334697188D01*
X92338098Y-334723008D01*
X92309098Y-334745172D01*
X92284320Y-334764723D01*
X92262472Y-334782702D01*
X92242263Y-334800153D01*
X92222401Y-334818117D01*
X92201593Y-334837637D01*
X92199056Y-334840054D01*
X92137862Y-334903014D01*
X92083159Y-334969356D01*
X92034193Y-335040288D01*
X91990211Y-335117019D01*
X91950462Y-335200758D01*
X91914193Y-335292713D01*
X91910070Y-335304268D01*
X91881609Y-335380816D01*
X91853695Y-335447624D01*
X91826232Y-335504859D01*
X91799121Y-335552685D01*
X91772266Y-335591269D01*
X91745570Y-335620777D01*
X91718935Y-335641373D01*
X91708873Y-335646866D01*
X91681111Y-335655971D01*
X91653233Y-335657332D01*
X91627923Y-335650952D01*
X91619988Y-335646779D01*
X91599960Y-335628636D01*
X91586350Y-335602943D01*
X91579156Y-335569722D01*
X91578381Y-335528996D01*
X91584022Y-335480788D01*
X91596082Y-335425121D01*
X91614560Y-335362016D01*
X91617225Y-335353897D01*
X91629639Y-335317605D01*
X91642521Y-335282464D01*
X91656475Y-335247085D01*
X91672108Y-335210084D01*
X91690025Y-335170074D01*
X91710833Y-335125669D01*
X91735136Y-335075482D01*
X91763540Y-335018128D01*
X91766873Y-335011458D01*
X91794968Y-334955588D01*
X91819784Y-334907101D01*
X91842274Y-334864404D01*
X91863390Y-334825900D01*
X91884081Y-334789995D01*
X91905301Y-334755092D01*
X91928000Y-334719598D01*
X91953131Y-334681915D01*
X91981644Y-334640450D01*
X92014491Y-334593607D01*
X92024801Y-334579018D01*
X92060442Y-334527914D01*
X92090418Y-334483144D01*
X92115422Y-334443419D01*
X92136147Y-334407450D01*
X92153285Y-334373949D01*
X92167528Y-334341627D01*
X92179571Y-334309196D01*
X92190106Y-334275367D01*
X92192350Y-334267393D01*
X92205490Y-334219880D01*
X92205490Y-333286859D01*
X92205490Y-332353838D01*
X92191558Y-332309357D01*
X92169648Y-332252111D01*
X92142103Y-332202806D01*
X92108529Y-332160954D01*
X92068529Y-332126065D01*
X92021707Y-332097650D01*
X92019168Y-332096385D01*
X91981340Y-332079701D01*
X91945069Y-332068366D01*
X91907047Y-332061653D01*
X91863970Y-332058834D01*
X91847558Y-332058633D01*
X91818207Y-332059310D01*
X91790032Y-332061679D01*
X91762235Y-332066106D01*
X91734017Y-332072960D01*
X91704578Y-332082606D01*
X91673119Y-332095411D01*
X91638841Y-332111743D01*
X91600944Y-332131968D01*
X91558630Y-332156453D01*
X91511098Y-332185564D01*
X91457550Y-332219669D01*
X91397186Y-332259134D01*
X91366764Y-332279286D01*
X91227269Y-332373811D01*
X91088473Y-332471431D01*
X90951029Y-332571596D01*
X90815586Y-332673752D01*
X90682797Y-332777347D01*
X90553312Y-332881830D01*
X90427784Y-332986648D01*
X90306862Y-333091249D01*
X90191199Y-333195081D01*
X90081446Y-333297592D01*
X89978255Y-333398229D01*
X89882275Y-333496441D01*
X89794159Y-333591675D01*
X89724567Y-333671482D01*
X89689479Y-333712422D01*
X89659182Y-333746287D01*
X89632559Y-333773976D01*
X89608492Y-333796389D01*
X89585863Y-333814425D01*
X89563555Y-333828986D01*
X89540451Y-333840970D01*
X89515433Y-333851277D01*
X89490797Y-333859723D01*
X89425616Y-333875669D01*
X89357742Y-333882563D01*
X89286864Y-333880392D01*
X89212669Y-333869146D01*
X89134844Y-333848814D01*
X89128507Y-333846812D01*
X89050167Y-333817237D01*
X88974581Y-333779848D01*
X88902440Y-333735403D01*
X88834435Y-333684659D01*
X88771258Y-333628372D01*
X88713600Y-333567299D01*
X88662154Y-333502197D01*
X88617611Y-333433822D01*
X88580662Y-333362931D01*
X88552000Y-333290280D01*
X88532315Y-333216627D01*
X88527441Y-333189243D01*
X88521643Y-333128030D01*
X88521830Y-333061200D01*
X88527847Y-332990936D01*
X88539537Y-332919419D01*
X88549979Y-332873783D01*
X88572241Y-332800152D01*
X88601979Y-332722954D01*
X88638285Y-332643934D01*
X88680250Y-332564836D01*
X88726966Y-332487404D01*
X88777522Y-332413382D01*
X88816480Y-332362316D01*
X88842469Y-332331297D01*
X88872845Y-332297344D01*
X88905588Y-332262547D01*
X88938676Y-332228996D01*
X88970090Y-332198780D01*
X88997809Y-332173989D01*
X89001953Y-332170509D01*
X89047855Y-332134929D01*
X89093033Y-332104751D01*
X89136440Y-332080506D01*
X89177030Y-332062721D01*
X89213756Y-332051926D01*
X89243173Y-332048621D01*
X89265811Y-332053061D01*
X89283967Y-332065719D01*
X89296866Y-332085608D01*
X89303732Y-332111739D01*
X89304661Y-332126996D01*
X89303222Y-332144593D01*
X89299331Y-332168293D01*
X89293701Y-332194793D01*
X89287041Y-332220787D01*
X89280062Y-332242971D01*
X89279245Y-332245197D01*
X89264901Y-332272256D01*
X89242150Y-332300628D01*
X89212205Y-332329178D01*
X89176279Y-332356771D01*
X89135584Y-332382274D01*
X89128507Y-332386197D01*
X89098706Y-332403116D01*
X89076913Y-332417503D01*
X89061969Y-332430628D01*
X89052713Y-332443757D01*
X89047984Y-332458160D01*
X89046620Y-332475105D01*
X89046619Y-332475679D01*
X89048107Y-332490482D01*
X89053961Y-332502368D01*
X89064014Y-332513668D01*
X89077000Y-332524788D01*
X89086504Y-332528203D01*
X89090069Y-332527447D01*
X89098540Y-332525672D01*
X89114334Y-332523820D01*
X89134854Y-332522161D01*
X89148890Y-332521344D01*
X89181171Y-332520692D01*
X89205611Y-332522690D01*
X89224046Y-332527791D01*
X89238315Y-332536446D01*
X89247453Y-332545621D01*
X89255029Y-332556622D01*
X89258837Y-332568898D01*
X89260006Y-332586416D01*
X89260023Y-332589902D01*
X89259646Y-332602613D01*
X89258189Y-332614861D01*
X89255166Y-332627745D01*
X89250089Y-332642366D01*
X89242471Y-332659822D01*
X89231824Y-332681214D01*
X89217662Y-332707640D01*
X89199497Y-332740200D01*
X89176842Y-332779993D01*
X89172151Y-332788181D01*
X89148762Y-332829408D01*
X89130214Y-332863118D01*
X89116060Y-332890195D01*
X89105855Y-332911523D01*
X89099153Y-332927985D01*
X89095705Y-332939549D01*
X89092809Y-332958616D01*
X89090658Y-332986011D01*
X89089347Y-333020161D01*
X89088960Y-333053604D01*
X89089044Y-333085190D01*
X89089480Y-333108800D01*
X89090468Y-333126381D01*
X89092209Y-333139881D01*
X89094905Y-333151248D01*
X89098757Y-333162431D01*
X89100689Y-333167347D01*
X89119213Y-333201917D01*
X89143776Y-333228803D01*
X89174096Y-333247971D01*
X89209891Y-333259390D01*
X89250880Y-333263026D01*
X89296779Y-333258849D01*
X89347307Y-333246825D01*
X89402183Y-333226922D01*
X89445828Y-333206901D01*
X89469493Y-333193798D01*
X89500363Y-333174484D01*
X89538109Y-333149209D01*
X89582401Y-333118222D01*
X89632912Y-333081774D01*
X89689310Y-333040114D01*
X89751267Y-332993492D01*
X89818453Y-332942159D01*
X89890539Y-332886363D01*
X89967195Y-332826356D01*
X90048092Y-332762386D01*
X90132901Y-332694703D01*
X90221292Y-332623559D01*
X90312936Y-332549202D01*
X90314634Y-332547818D01*
X90341273Y-332526108D01*
X90366855Y-332505234D01*
X90391985Y-332484700D01*
X90417269Y-332464004D01*
X90443314Y-332442649D01*
X90470723Y-332420135D01*
X90500103Y-332395963D01*
X90532060Y-332369635D01*
X90567198Y-332340651D01*
X90606124Y-332308512D01*
X90649443Y-332272720D01*
X90697760Y-332232774D01*
X90751681Y-332188177D01*
X90811812Y-332138429D01*
X90878758Y-332083031D01*
X90905216Y-332061135D01*
X90977676Y-332001174D01*
X91042946Y-331947190D01*
X91101484Y-331898831D01*
X91153746Y-331855743D01*
X91200189Y-331817575D01*
X91241268Y-331783974D01*
X91277440Y-331754586D01*
X91309162Y-331729060D01*
X91336889Y-331707042D01*
X91361079Y-331688179D01*
X91382187Y-331672119D01*
X91400670Y-331658509D01*
X91416984Y-331646997D01*
X91431586Y-331637229D01*
X91444932Y-331628853D01*
X91457478Y-331621516D01*
X91469681Y-331614866D01*
X91481997Y-331608549D01*
X91494882Y-331602213D01*
X91505724Y-331596982D01*
X91588103Y-331562692D01*
X91672855Y-331537649D01*
X91759178Y-331521804D01*
X91846272Y-331515110D01*
X91933336Y-331517518D01*
G37*
D13*
%TO.C,F5*%
X88392500Y-311860000D02*
X88392500Y-312550000D01*
X88392500Y-321880000D02*
X88392500Y-321190000D01*
X90012500Y-312550000D02*
X86772500Y-312550000D01*
X86772500Y-321190000D01*
X90012500Y-321190000D01*
X90012500Y-312550000D01*
D12*
%TO.C,G\u002A\u002A\u002A*%
G36*
X87111430Y-339954734D02*
G01*
X87104307Y-339961857D01*
X87097184Y-339954734D01*
X87104307Y-339947611D01*
X87111430Y-339954734D01*
G37*
G36*
X90929265Y-344413623D02*
G01*
X90922142Y-344420746D01*
X90915019Y-344413623D01*
X90922142Y-344406500D01*
X90929265Y-344413623D01*
G37*
G36*
X92068917Y-342205547D02*
G01*
X92061795Y-342212670D01*
X92054672Y-342205547D01*
X92061795Y-342198424D01*
X92068917Y-342205547D01*
G37*
G36*
X92368076Y-337931851D02*
G01*
X92360953Y-337938974D01*
X92353830Y-337931851D01*
X92360953Y-337924728D01*
X92368076Y-337931851D01*
G37*
G36*
X92823937Y-338145536D02*
G01*
X92816814Y-338152659D01*
X92809691Y-338145536D01*
X92816814Y-338138413D01*
X92823937Y-338145536D01*
G37*
G36*
X91997689Y-338793713D02*
G01*
X91997689Y-338921924D01*
X92503410Y-338921924D01*
X93009131Y-338921924D01*
X93009131Y-339007398D01*
X93009131Y-339092872D01*
X92503944Y-339092872D01*
X91998758Y-339092872D01*
X91994662Y-339224644D01*
X91990566Y-339356416D01*
X91922899Y-339360758D01*
X91855233Y-339365100D01*
X91855233Y-339015301D01*
X91855233Y-338665502D01*
X91926461Y-338665502D01*
X91997689Y-338665502D01*
X91997689Y-338793713D01*
G37*
G36*
X91997689Y-342946321D02*
G01*
X91997689Y-343010426D01*
X92432182Y-343010426D01*
X92866674Y-343010426D01*
X92866674Y-342946321D01*
X92866674Y-342882216D01*
X92937902Y-342882216D01*
X93009131Y-342882216D01*
X93009131Y-343088778D01*
X93009131Y-343295339D01*
X92937902Y-343295339D01*
X92866674Y-343295339D01*
X92866674Y-343231234D01*
X92866674Y-343167129D01*
X92432182Y-343167129D01*
X91997689Y-343167129D01*
X91997689Y-343231234D01*
X91997689Y-343295339D01*
X91926461Y-343295339D01*
X91855233Y-343295339D01*
X91855233Y-343088778D01*
X91855233Y-342882216D01*
X91926461Y-342882216D01*
X91997689Y-342882216D01*
X91997689Y-342946321D01*
G37*
G36*
X89607490Y-341383358D02*
G01*
X89695339Y-341437882D01*
X89762502Y-341506911D01*
X89814770Y-341596525D01*
X89818484Y-341604770D01*
X89842897Y-341682233D01*
X89854092Y-341767770D01*
X89851139Y-341849399D01*
X89841027Y-341895191D01*
X89797146Y-341998393D01*
X89738184Y-342080056D01*
X89659867Y-342145003D01*
X89582267Y-342187313D01*
X89511823Y-342219793D01*
X88258205Y-342219793D01*
X87004588Y-342219793D01*
X87004588Y-342070213D01*
X87004588Y-341920634D01*
X88268889Y-341916996D01*
X89533191Y-341913357D01*
X89533191Y-341778177D01*
X89533191Y-341642998D01*
X88268889Y-341639359D01*
X87004588Y-341635721D01*
X87004588Y-341486141D01*
X87004588Y-341336562D01*
X88258517Y-341336562D01*
X89512447Y-341336562D01*
X89607490Y-341383358D01*
G37*
G36*
X91922899Y-339425096D02*
G01*
X91990566Y-339427747D01*
X91994947Y-339488240D01*
X91999327Y-339548733D01*
X92434090Y-339548733D01*
X92868853Y-339548733D01*
X92864474Y-339488189D01*
X92860096Y-339427645D01*
X92933338Y-339423380D01*
X92975681Y-339422981D01*
X93004421Y-339426599D01*
X93011417Y-339430503D01*
X93012906Y-339448208D01*
X93013629Y-339488848D01*
X93013564Y-339546876D01*
X93012686Y-339616745D01*
X93012290Y-339637768D01*
X93008327Y-339833646D01*
X92937500Y-339833646D01*
X92866674Y-339833646D01*
X92866674Y-339769540D01*
X92866674Y-339705435D01*
X92432182Y-339705435D01*
X91997689Y-339705435D01*
X91997689Y-339769540D01*
X91997689Y-339833646D01*
X91926461Y-339833646D01*
X91855233Y-339833646D01*
X91855233Y-339628045D01*
X91855233Y-339422445D01*
X91922899Y-339425096D01*
G37*
G36*
X87150606Y-342757084D02*
G01*
X87303746Y-342761127D01*
X87307603Y-343049602D01*
X87311459Y-343338076D01*
X87788022Y-343338076D01*
X88264586Y-343338076D01*
X88268518Y-343120830D01*
X88272451Y-342903584D01*
X88419888Y-342903584D01*
X88567324Y-342903584D01*
X88565265Y-343120830D01*
X88563206Y-343338076D01*
X89048198Y-343338076D01*
X89533191Y-343338076D01*
X89533191Y-343046041D01*
X89533191Y-342754005D01*
X89682770Y-342754005D01*
X89832350Y-342754005D01*
X89832350Y-343086537D01*
X89832238Y-343192703D01*
X89831672Y-343274461D01*
X89830312Y-343335894D01*
X89827814Y-343381086D01*
X89823836Y-343414119D01*
X89818036Y-343439078D01*
X89810072Y-343460044D01*
X89799600Y-343481102D01*
X89799203Y-343481854D01*
X89766230Y-343529173D01*
X89722509Y-343573921D01*
X89705385Y-343587375D01*
X89644713Y-343630112D01*
X88433855Y-343633910D01*
X87222998Y-343637709D01*
X87156530Y-343601510D01*
X87083403Y-343546360D01*
X87031335Y-343473442D01*
X87011322Y-343422196D01*
X87007210Y-343393821D01*
X87003583Y-343341934D01*
X87000634Y-343271511D01*
X86998553Y-343187530D01*
X86997535Y-343094969D01*
X86997465Y-343063460D01*
X86997465Y-342753041D01*
X87150606Y-342757084D01*
G37*
G36*
X90658598Y-337294881D02*
G01*
X90701335Y-337301153D01*
X90701335Y-340783518D01*
X90701335Y-344265883D01*
X90744072Y-344301844D01*
X90786809Y-344337805D01*
X90786809Y-344619244D01*
X90786595Y-344716498D01*
X90785725Y-344789255D01*
X90783860Y-344841505D01*
X90780657Y-344877240D01*
X90775776Y-344900452D01*
X90768876Y-344915132D01*
X90760757Y-344924259D01*
X90727947Y-344939791D01*
X90679652Y-344947574D01*
X90626811Y-344947545D01*
X90580365Y-344939641D01*
X90552773Y-344925449D01*
X90544948Y-344913692D01*
X90539132Y-344893732D01*
X90535050Y-344861770D01*
X90532422Y-344814008D01*
X90530971Y-344746644D01*
X90530419Y-344655880D01*
X90530387Y-344619168D01*
X90530560Y-344521873D01*
X90531327Y-344449001D01*
X90533058Y-344396486D01*
X90536124Y-344360260D01*
X90540897Y-344336257D01*
X90547747Y-344320408D01*
X90557045Y-344308648D01*
X90558878Y-344306781D01*
X90584391Y-344285865D01*
X90601615Y-344278290D01*
X90603363Y-344264051D01*
X90604997Y-344221366D01*
X90606517Y-344150277D01*
X90607924Y-344050830D01*
X90609216Y-343923067D01*
X90610395Y-343767032D01*
X90611458Y-343582770D01*
X90612408Y-343370325D01*
X90613242Y-343129741D01*
X90613962Y-342861060D01*
X90614567Y-342564329D01*
X90615056Y-342239589D01*
X90615430Y-341886886D01*
X90615688Y-341506263D01*
X90615830Y-341097764D01*
X90615861Y-340783449D01*
X90615861Y-337288608D01*
X90658598Y-337294881D01*
G37*
G36*
X92303971Y-340022459D02*
G01*
X92440102Y-340024231D01*
X92551027Y-340026341D01*
X92640030Y-340029299D01*
X92710397Y-340033615D01*
X92765411Y-340039799D01*
X92808358Y-340048362D01*
X92842522Y-340059812D01*
X92871187Y-340074661D01*
X92897639Y-340093419D01*
X92925161Y-340116595D01*
X92928389Y-340119430D01*
X92980036Y-340177421D01*
X93014314Y-340247361D01*
X93032923Y-340334019D01*
X93037692Y-340425847D01*
X93035977Y-340490857D01*
X93029364Y-340538987D01*
X93015505Y-340581735D01*
X92998446Y-340618164D01*
X92943788Y-340696628D01*
X92869646Y-340754458D01*
X92775781Y-340791821D01*
X92734519Y-340800751D01*
X92693787Y-340805261D01*
X92628986Y-340809212D01*
X92544533Y-340812461D01*
X92444845Y-340814864D01*
X92334342Y-340816275D01*
X92249383Y-340816596D01*
X91855233Y-340816596D01*
X91855233Y-340739511D01*
X91855233Y-340662427D01*
X92279041Y-340657151D01*
X92410353Y-340655310D01*
X92516443Y-340653029D01*
X92600584Y-340649752D01*
X92666043Y-340644925D01*
X92716093Y-340637993D01*
X92754003Y-340628402D01*
X92783043Y-340615597D01*
X92806483Y-340599023D01*
X92827594Y-340578126D01*
X92841842Y-340561692D01*
X92879926Y-340496405D01*
X92893422Y-340425247D01*
X92883757Y-340353963D01*
X92852360Y-340288294D01*
X92800658Y-340233985D01*
X92753374Y-340205904D01*
X92733940Y-340199096D01*
X92706910Y-340193592D01*
X92669065Y-340189205D01*
X92617182Y-340185746D01*
X92548041Y-340183026D01*
X92458421Y-340180857D01*
X92345100Y-340179051D01*
X92280295Y-340178246D01*
X91857741Y-340173334D01*
X91852926Y-340095198D01*
X91848110Y-340017063D01*
X92303971Y-340022459D01*
G37*
G36*
X91527583Y-340787144D02*
G01*
X91527583Y-344276370D01*
X91556890Y-344285671D01*
X91575172Y-344295026D01*
X91589104Y-344312285D01*
X91599246Y-344340902D01*
X91606154Y-344384324D01*
X91610387Y-344446004D01*
X91612501Y-344529391D01*
X91613056Y-344633150D01*
X91612822Y-344727752D01*
X91611875Y-344797974D01*
X91609847Y-344847925D01*
X91606370Y-344881716D01*
X91601076Y-344903455D01*
X91593598Y-344917251D01*
X91587005Y-344924259D01*
X91554195Y-344939791D01*
X91505900Y-344947574D01*
X91453059Y-344947545D01*
X91406612Y-344939641D01*
X91379021Y-344925449D01*
X91370320Y-344902511D01*
X91363482Y-344856587D01*
X91358509Y-344793124D01*
X91355401Y-344717566D01*
X91354162Y-344635360D01*
X91354793Y-344551951D01*
X91357295Y-344472784D01*
X91361671Y-344403304D01*
X91367922Y-344348958D01*
X91376051Y-344315191D01*
X91378811Y-344309951D01*
X91402355Y-344286265D01*
X91421548Y-344278290D01*
X91423767Y-344275586D01*
X91425823Y-344266803D01*
X91427724Y-344250936D01*
X91429475Y-344226978D01*
X91431081Y-344193924D01*
X91432550Y-344150767D01*
X91433886Y-344096502D01*
X91435096Y-344030123D01*
X91436185Y-343950624D01*
X91437160Y-343856999D01*
X91438026Y-343748242D01*
X91438789Y-343623348D01*
X91439456Y-343481309D01*
X91440032Y-343321121D01*
X91440523Y-343141778D01*
X91440935Y-342942273D01*
X91441274Y-342721601D01*
X91441547Y-342478755D01*
X91441757Y-342212730D01*
X91441913Y-341922520D01*
X91442019Y-341607119D01*
X91442082Y-341265521D01*
X91442107Y-340896720D01*
X91442109Y-340788104D01*
X91442109Y-337297919D01*
X91484846Y-337297919D01*
X91527583Y-337297919D01*
X91527583Y-340787144D01*
G37*
G36*
X92631575Y-340971252D02*
G01*
X92716084Y-340988653D01*
X92805310Y-341023539D01*
X92886635Y-341070779D01*
X92899368Y-341080127D01*
X92965875Y-341147978D01*
X93011954Y-341231243D01*
X93036452Y-341324355D01*
X93038214Y-341421746D01*
X93016088Y-341517849D01*
X92998446Y-341558373D01*
X92940781Y-341641689D01*
X92860871Y-341707726D01*
X92758579Y-341756541D01*
X92633766Y-341788195D01*
X92486296Y-341802745D01*
X92425059Y-341803804D01*
X92285730Y-341797338D01*
X92168558Y-341777811D01*
X92069792Y-341744011D01*
X91985676Y-341694724D01*
X91925387Y-341642293D01*
X91868264Y-341565155D01*
X91833640Y-341476324D01*
X91821406Y-341381444D01*
X91831453Y-341286163D01*
X91863674Y-341196128D01*
X91917960Y-341116984D01*
X91935817Y-341098753D01*
X91976947Y-341068080D01*
X92033520Y-341035987D01*
X92094508Y-341007858D01*
X92148886Y-340989078D01*
X92168637Y-340985062D01*
X92189039Y-340984346D01*
X92200214Y-340993360D01*
X92205645Y-341018615D01*
X92208437Y-341059453D01*
X92212624Y-341138485D01*
X92133833Y-341171142D01*
X92056307Y-341214803D01*
X92003168Y-341270464D01*
X91975450Y-341336269D01*
X91974186Y-341410365D01*
X91981860Y-341443737D01*
X92011812Y-341497799D01*
X92065539Y-341547427D01*
X92138336Y-341588966D01*
X92197128Y-341610972D01*
X92270459Y-341626119D01*
X92360752Y-341634028D01*
X92458533Y-341634858D01*
X92554323Y-341628773D01*
X92638648Y-341615932D01*
X92686820Y-341602639D01*
X92763916Y-341564971D01*
X92827048Y-341514566D01*
X92871049Y-341456416D01*
X92889080Y-341407271D01*
X92887563Y-341342577D01*
X92860726Y-341280807D01*
X92811736Y-341225346D01*
X92743759Y-341179575D01*
X92659962Y-341146878D01*
X92640741Y-341142009D01*
X92566248Y-341124814D01*
X92570443Y-341045495D01*
X92574638Y-340966175D01*
X92631575Y-340971252D01*
G37*
G36*
X92677147Y-343385921D02*
G01*
X92727016Y-343397454D01*
X92787153Y-343418086D01*
X92834515Y-343438664D01*
X92919339Y-343494141D01*
X92982123Y-343567356D01*
X93021117Y-343650045D01*
X93029236Y-343690711D01*
X93034117Y-343748881D01*
X93035489Y-343813724D01*
X93033080Y-343874407D01*
X93027772Y-343915025D01*
X93009907Y-343957798D01*
X92975597Y-344009020D01*
X92931317Y-344060219D01*
X92885165Y-344101690D01*
X92810329Y-344148338D01*
X92723020Y-344182139D01*
X92618550Y-344204411D01*
X92492235Y-344216473D01*
X92474478Y-344217338D01*
X92316781Y-344215475D01*
X92179627Y-344195153D01*
X92063389Y-344156530D01*
X91968438Y-344099765D01*
X91895145Y-344025016D01*
X91852773Y-343953286D01*
X91833126Y-343887558D01*
X91824507Y-343807663D01*
X91827381Y-343725895D01*
X91841557Y-343656517D01*
X91882644Y-343575287D01*
X91947195Y-343504597D01*
X92031028Y-343448115D01*
X92120430Y-343412186D01*
X92168791Y-343399284D01*
X92195994Y-343399144D01*
X92208125Y-343416189D01*
X92211269Y-343454840D01*
X92211374Y-343478278D01*
X92211374Y-343561497D01*
X92155033Y-343578377D01*
X92081709Y-343611650D01*
X92025154Y-343659849D01*
X91987630Y-343718311D01*
X91971398Y-343782374D01*
X91978719Y-343847374D01*
X92001590Y-343894773D01*
X92043957Y-343946634D01*
X92094690Y-343985820D01*
X92157817Y-344013695D01*
X92237364Y-344031627D01*
X92337362Y-344040980D01*
X92439304Y-344043207D01*
X92520084Y-344042695D01*
X92579254Y-344040599D01*
X92623686Y-344036036D01*
X92660254Y-344028123D01*
X92695830Y-344015977D01*
X92716463Y-344007592D01*
X92784611Y-343971722D01*
X92835425Y-343926185D01*
X92848236Y-343910357D01*
X92884447Y-343847536D01*
X92894477Y-343785150D01*
X92878766Y-343717423D01*
X92865268Y-343687335D01*
X92827150Y-343632361D01*
X92772828Y-343592258D01*
X92696985Y-343563298D01*
X92683044Y-343559588D01*
X92617375Y-343542894D01*
X92613042Y-343459812D01*
X92608709Y-343376729D01*
X92677147Y-343385921D01*
G37*
G36*
X90288211Y-340788104D02*
G01*
X90288269Y-341216533D01*
X90288443Y-341617119D01*
X90288733Y-341989818D01*
X90289139Y-342334586D01*
X90289661Y-342651378D01*
X90290297Y-342940152D01*
X90291050Y-343200862D01*
X90291917Y-343433465D01*
X90292899Y-343637916D01*
X90293995Y-343814173D01*
X90295206Y-343962190D01*
X90296532Y-344081923D01*
X90297971Y-344173329D01*
X90299525Y-344236364D01*
X90301192Y-344270983D01*
X90302456Y-344278290D01*
X90322109Y-344287485D01*
X90345193Y-344306781D01*
X90354959Y-344318278D01*
X90362203Y-344333187D01*
X90367300Y-344355585D01*
X90370624Y-344389551D01*
X90372546Y-344439160D01*
X90373441Y-344508490D01*
X90373682Y-344601618D01*
X90373685Y-344617977D01*
X90373472Y-344715470D01*
X90372609Y-344788455D01*
X90370758Y-344840913D01*
X90367578Y-344876826D01*
X90362732Y-344900174D01*
X90355881Y-344914939D01*
X90347633Y-344924259D01*
X90310799Y-344941521D01*
X90249609Y-344947795D01*
X90242999Y-344947835D01*
X90203084Y-344947208D01*
X90172660Y-344943056D01*
X90150439Y-344931973D01*
X90135132Y-344910555D01*
X90125450Y-344875395D01*
X90120105Y-344823087D01*
X90117809Y-344750227D01*
X90117273Y-344653408D01*
X90117263Y-344615502D01*
X90117440Y-344518900D01*
X90118225Y-344446689D01*
X90119995Y-344394771D01*
X90123129Y-344359048D01*
X90128005Y-344335420D01*
X90135002Y-344319788D01*
X90144496Y-344308054D01*
X90145754Y-344306781D01*
X90171267Y-344285865D01*
X90188491Y-344278290D01*
X90190240Y-344264051D01*
X90191875Y-344221366D01*
X90193396Y-344150278D01*
X90194803Y-344050831D01*
X90196096Y-343923068D01*
X90197275Y-343767035D01*
X90198339Y-343582775D01*
X90199289Y-343370333D01*
X90200123Y-343129751D01*
X90200842Y-342861075D01*
X90201447Y-342564348D01*
X90201935Y-342239614D01*
X90202308Y-341886918D01*
X90202566Y-341506303D01*
X90202707Y-341097814D01*
X90202737Y-340788104D01*
X90202737Y-337297919D01*
X90245474Y-337297919D01*
X90288211Y-337297919D01*
X90288211Y-340788104D01*
G37*
G36*
X91114459Y-340788104D02*
G01*
X91114517Y-341216533D01*
X91114691Y-341617119D01*
X91114981Y-341989818D01*
X91115387Y-342334586D01*
X91115909Y-342651378D01*
X91116545Y-342940152D01*
X91117297Y-343200862D01*
X91118165Y-343433465D01*
X91119147Y-343637916D01*
X91120243Y-343814173D01*
X91121454Y-343962190D01*
X91122780Y-344081923D01*
X91124219Y-344173329D01*
X91125773Y-344236364D01*
X91127440Y-344270983D01*
X91128704Y-344278290D01*
X91148357Y-344287485D01*
X91171441Y-344306781D01*
X91181334Y-344318453D01*
X91188635Y-344333599D01*
X91193736Y-344356368D01*
X91197027Y-344390908D01*
X91198896Y-344441369D01*
X91199735Y-344511898D01*
X91199932Y-344606646D01*
X91199933Y-344609893D01*
X91199554Y-344709121D01*
X91198228Y-344783814D01*
X91195667Y-344837922D01*
X91191588Y-344875392D01*
X91185702Y-344900175D01*
X91177756Y-344916174D01*
X91159931Y-344934765D01*
X91134161Y-344944379D01*
X91091647Y-344947678D01*
X91073122Y-344947835D01*
X91031977Y-344947275D01*
X91000616Y-344943325D01*
X90977710Y-344932579D01*
X90961932Y-344911631D01*
X90951951Y-344877076D01*
X90946442Y-344825508D01*
X90944075Y-344753521D01*
X90943522Y-344657710D01*
X90943511Y-344615502D01*
X90943688Y-344518900D01*
X90944473Y-344446689D01*
X90946243Y-344394771D01*
X90949377Y-344359048D01*
X90954253Y-344335420D01*
X90961249Y-344319788D01*
X90970744Y-344308054D01*
X90972002Y-344306781D01*
X90997515Y-344285865D01*
X91014739Y-344278290D01*
X91016488Y-344264051D01*
X91018123Y-344221366D01*
X91019644Y-344150278D01*
X91021051Y-344050831D01*
X91022344Y-343923068D01*
X91023523Y-343767035D01*
X91024587Y-343582775D01*
X91025536Y-343370333D01*
X91026371Y-343129751D01*
X91027090Y-342861075D01*
X91027694Y-342564348D01*
X91028183Y-342239614D01*
X91028556Y-341886918D01*
X91028814Y-341506303D01*
X91028955Y-341097814D01*
X91028985Y-340788104D01*
X91028985Y-337297919D01*
X91071722Y-337297919D01*
X91114459Y-337297919D01*
X91114459Y-340788104D01*
G37*
G36*
X93004876Y-341938499D02*
G01*
X93008761Y-341979082D01*
X93009131Y-342012830D01*
X93008960Y-342055227D01*
X93005635Y-342085312D01*
X92994938Y-342105520D01*
X92972651Y-342118284D01*
X92934556Y-342126041D01*
X92876436Y-342131225D01*
X92795446Y-342136188D01*
X92727763Y-342141752D01*
X92666109Y-342149462D01*
X92618997Y-342158124D01*
X92600471Y-342163588D01*
X92566602Y-342186315D01*
X92543639Y-342224644D01*
X92530585Y-342281968D01*
X92526441Y-342361678D01*
X92527441Y-342412109D01*
X92531901Y-342533197D01*
X92770519Y-342533197D01*
X93009136Y-342533197D01*
X93009133Y-342615110D01*
X93009131Y-342697022D01*
X92432182Y-342697022D01*
X92182883Y-342697022D01*
X91855233Y-342697022D01*
X91855233Y-342540320D01*
X91997689Y-342540320D01*
X92182883Y-342540320D01*
X92368076Y-342540320D01*
X92368023Y-342394302D01*
X92367026Y-342323009D01*
X92363406Y-342273141D01*
X92356123Y-342237672D01*
X92344138Y-342209581D01*
X92339525Y-342201630D01*
X92297258Y-342157511D01*
X92240261Y-342131478D01*
X92176646Y-342124587D01*
X92114523Y-342137893D01*
X92068386Y-342166371D01*
X92037195Y-342203084D01*
X92016037Y-342250924D01*
X92003548Y-342315003D01*
X91998362Y-342400435D01*
X91998029Y-342429916D01*
X91997689Y-342540320D01*
X91855233Y-342540320D01*
X91855233Y-342442227D01*
X91855366Y-342351044D01*
X91856174Y-342283266D01*
X91858270Y-342233806D01*
X91862264Y-342197577D01*
X91868771Y-342169493D01*
X91878401Y-342144468D01*
X91891767Y-342117415D01*
X91895098Y-342111016D01*
X91944428Y-342041359D01*
X92009429Y-341993712D01*
X92092703Y-341966457D01*
X92137199Y-341960380D01*
X92239335Y-341962518D01*
X92326648Y-341988767D01*
X92394522Y-342034446D01*
X92426371Y-342062204D01*
X92444559Y-342072561D01*
X92456306Y-342067499D01*
X92465721Y-342053996D01*
X92490147Y-342028092D01*
X92529244Y-342008371D01*
X92586709Y-341993800D01*
X92666235Y-341983348D01*
X92738463Y-341977841D01*
X92828390Y-341970453D01*
X92892019Y-341960752D01*
X92931480Y-341948386D01*
X92937902Y-341944783D01*
X92972792Y-341924546D01*
X92994001Y-341921386D01*
X93004876Y-341938499D01*
G37*
G36*
X87945047Y-338424228D02*
G01*
X88115000Y-338424736D01*
X88310218Y-338425524D01*
X88450521Y-338426100D01*
X88656732Y-338426868D01*
X88836456Y-338427530D01*
X88991698Y-338428265D01*
X89124461Y-338429247D01*
X89236749Y-338430653D01*
X89330564Y-338432659D01*
X89407912Y-338435442D01*
X89470796Y-338439176D01*
X89521219Y-338444039D01*
X89561185Y-338450207D01*
X89592698Y-338457856D01*
X89617761Y-338467161D01*
X89638377Y-338478300D01*
X89656552Y-338491448D01*
X89674288Y-338506781D01*
X89693589Y-338524476D01*
X89707057Y-338536567D01*
X89776553Y-338615403D01*
X89825585Y-338708566D01*
X89852283Y-338809922D01*
X89854774Y-338913337D01*
X89842285Y-338979611D01*
X89798790Y-339082877D01*
X89731046Y-339171361D01*
X89639427Y-339244620D01*
X89600462Y-339267294D01*
X89540314Y-339299434D01*
X88441276Y-339303334D01*
X88422030Y-339303401D01*
X88238432Y-339304043D01*
X88062065Y-339304603D01*
X87910163Y-339304968D01*
X87780713Y-339305091D01*
X87671700Y-339304928D01*
X87581112Y-339304433D01*
X87506935Y-339303559D01*
X87447156Y-339302262D01*
X87399762Y-339300496D01*
X87362739Y-339298214D01*
X87334074Y-339295372D01*
X87311754Y-339291924D01*
X87293766Y-339287824D01*
X87278095Y-339283026D01*
X87262730Y-339277485D01*
X87260214Y-339276544D01*
X87166949Y-339227757D01*
X87091883Y-339160563D01*
X87035807Y-339079111D01*
X86999515Y-338987551D01*
X86983797Y-338890030D01*
X86985224Y-338864941D01*
X87310869Y-338864941D01*
X87310869Y-339007398D01*
X88422030Y-339007398D01*
X89533191Y-339007398D01*
X89533191Y-338864941D01*
X89533191Y-338722485D01*
X88422030Y-338722485D01*
X87310869Y-338722485D01*
X87310869Y-338864941D01*
X86985224Y-338864941D01*
X86989447Y-338790699D01*
X87017256Y-338693705D01*
X87068018Y-338603199D01*
X87120235Y-338543405D01*
X87142406Y-338521829D01*
X87162386Y-338502955D01*
X87182135Y-338486609D01*
X87203614Y-338472619D01*
X87228785Y-338460811D01*
X87259610Y-338451014D01*
X87298048Y-338443052D01*
X87346061Y-338436755D01*
X87405611Y-338431949D01*
X87478658Y-338428461D01*
X87567165Y-338426117D01*
X87673091Y-338424746D01*
X87798398Y-338424174D01*
X87945047Y-338424228D01*
G37*
G36*
X89827770Y-339861171D02*
G01*
X89830277Y-339897150D01*
X89831892Y-339950039D01*
X89832350Y-340002433D01*
X89832350Y-340156974D01*
X89771806Y-340183762D01*
X89754681Y-340190507D01*
X89734765Y-340196072D01*
X89709187Y-340200598D01*
X89675079Y-340204227D01*
X89629572Y-340207100D01*
X89569798Y-340209359D01*
X89492886Y-340211144D01*
X89395969Y-340212598D01*
X89276177Y-340213861D01*
X89137366Y-340215022D01*
X88563470Y-340219496D01*
X88567540Y-340357782D01*
X88571609Y-340496069D01*
X89201980Y-340499778D01*
X89832350Y-340503488D01*
X89832350Y-340652919D01*
X89832350Y-340802350D01*
X88414907Y-340802350D01*
X87788099Y-340802350D01*
X86997465Y-340802350D01*
X86997805Y-340499630D01*
X86998493Y-340405971D01*
X86999388Y-340360735D01*
X87310869Y-340360735D01*
X87310869Y-340503191D01*
X87788099Y-340503191D01*
X88265328Y-340503191D01*
X88265328Y-340360735D01*
X88265328Y-340218278D01*
X87788099Y-340218278D01*
X87310869Y-340218278D01*
X87310869Y-340360735D01*
X86999388Y-340360735D01*
X87000218Y-340318781D01*
X87002792Y-340243244D01*
X87006029Y-340184541D01*
X87009740Y-340147857D01*
X87010715Y-340142758D01*
X87043743Y-340061395D01*
X87100318Y-339993945D01*
X87156095Y-339955082D01*
X87222128Y-339919120D01*
X87744186Y-339919120D01*
X87889243Y-339919249D01*
X88008629Y-339919864D01*
X88105163Y-339921308D01*
X88181665Y-339923922D01*
X88240954Y-339928048D01*
X88285850Y-339934027D01*
X88319171Y-339942202D01*
X88343739Y-339952914D01*
X88362371Y-339966505D01*
X88377888Y-339983317D01*
X88388438Y-339997228D01*
X88416766Y-340036117D01*
X88441512Y-339998351D01*
X88453474Y-339981351D01*
X88466819Y-339967249D01*
X88484205Y-339955736D01*
X88508290Y-339946501D01*
X88541730Y-339939235D01*
X88587183Y-339933627D01*
X88647306Y-339929368D01*
X88724758Y-339926148D01*
X88822194Y-339923657D01*
X88942273Y-339921584D01*
X89087653Y-339919621D01*
X89120067Y-339919214D01*
X89263551Y-339917377D01*
X89381407Y-339915685D01*
X89476496Y-339913960D01*
X89551679Y-339912026D01*
X89609818Y-339909707D01*
X89653774Y-339906826D01*
X89686409Y-339903206D01*
X89710583Y-339898672D01*
X89729158Y-339893048D01*
X89744996Y-339886155D01*
X89756993Y-339879944D01*
X89793709Y-339861112D01*
X89819027Y-339849586D01*
X89824659Y-339847891D01*
X89827770Y-339861171D01*
G37*
G36*
X92751215Y-337850962D02*
G01*
X92789391Y-337860198D01*
X92874316Y-337898986D01*
X92945383Y-337959809D01*
X92997490Y-338037590D01*
X93016305Y-338086050D01*
X93029990Y-338156253D01*
X93035575Y-338239655D01*
X93033164Y-338324932D01*
X93022857Y-338400762D01*
X93013161Y-338436353D01*
X92970433Y-338515549D01*
X92904128Y-338581335D01*
X92816629Y-338632033D01*
X92710323Y-338665966D01*
X92677919Y-338672166D01*
X92624498Y-338681039D01*
X92624498Y-338594919D01*
X92624498Y-338508800D01*
X92672251Y-338508800D01*
X92728506Y-338496306D01*
X92786086Y-338462398D01*
X92836572Y-338412436D01*
X92847812Y-338397013D01*
X92880838Y-338324317D01*
X92890936Y-338244080D01*
X92878806Y-338163987D01*
X92845144Y-338091727D01*
X92816962Y-338057361D01*
X92784059Y-338028434D01*
X92752754Y-338014478D01*
X92709750Y-338010318D01*
X92695743Y-338010202D01*
X92647492Y-338014114D01*
X92609201Y-338028259D01*
X92577956Y-338056253D01*
X92550844Y-338101709D01*
X92524950Y-338168243D01*
X92498730Y-338254605D01*
X92462951Y-338371770D01*
X92427860Y-338463407D01*
X92391043Y-338532307D01*
X92350087Y-338581264D01*
X92302577Y-338613070D01*
X92246098Y-338630519D01*
X92178237Y-338636402D01*
X92168637Y-338636464D01*
X92073642Y-338627052D01*
X91995444Y-338597447D01*
X91928648Y-338545324D01*
X91910146Y-338525089D01*
X91865889Y-338461432D01*
X91839296Y-338391142D01*
X91827783Y-338306147D01*
X91826821Y-338264971D01*
X91837367Y-338150055D01*
X91868640Y-338054443D01*
X91920421Y-337978413D01*
X91992488Y-337922240D01*
X92084623Y-337886202D01*
X92136584Y-337876040D01*
X92169793Y-337871982D01*
X92188837Y-337875433D01*
X92197651Y-337892040D01*
X92200170Y-337927449D01*
X92200294Y-337967465D01*
X92198061Y-338008695D01*
X92186984Y-338030173D01*
X92160490Y-338040549D01*
X92142288Y-338043821D01*
X92072395Y-338068169D01*
X92018424Y-338114254D01*
X91983138Y-338178544D01*
X91969297Y-338257506D01*
X91969198Y-338265239D01*
X91980420Y-338344066D01*
X92012558Y-338407255D01*
X92063323Y-338451681D01*
X92121242Y-338472708D01*
X92178751Y-338473649D01*
X92227537Y-338452182D01*
X92268788Y-338406912D01*
X92303693Y-338336447D01*
X92333440Y-338239395D01*
X92338583Y-338217939D01*
X92370498Y-338103065D01*
X92408125Y-338007896D01*
X92450114Y-337935175D01*
X92495117Y-337887646D01*
X92503921Y-337881675D01*
X92574641Y-337852983D01*
X92659735Y-337842545D01*
X92751215Y-337850962D01*
G37*
D13*
%TO.C,J5*%
X82690000Y-325720000D02*
X82690000Y-329140000D01*
X82690000Y-329140000D02*
X87160000Y-329140000D01*
X83000000Y-326980000D02*
X83000000Y-327780000D01*
X83000000Y-327780000D02*
X83200000Y-327780000D01*
X83200000Y-326230000D02*
X83200000Y-326980000D01*
X83200000Y-326980000D02*
X83000000Y-326980000D01*
X83200000Y-327780000D02*
X83200000Y-328630000D01*
X83200000Y-328630000D02*
X84925000Y-328630000D01*
X84925000Y-326230000D02*
X83200000Y-326230000D01*
X84925000Y-326230000D02*
X86650000Y-326230000D01*
X86650000Y-326230000D02*
X86650000Y-326980000D01*
X86650000Y-326980000D02*
X86850000Y-326980000D01*
X86650000Y-327780000D02*
X86650000Y-328630000D01*
X86650000Y-328630000D02*
X84925000Y-328630000D01*
X86850000Y-326980000D02*
X86850000Y-327780000D01*
X86850000Y-327780000D02*
X86650000Y-327780000D01*
X87160000Y-325720000D02*
X82690000Y-325720000D01*
X87160000Y-329140000D02*
X87160000Y-325720000D01*
X87450000Y-325430000D02*
X86450000Y-325430000D01*
X87450000Y-325430000D02*
X87450000Y-326430000D01*
%TD*%
M02*
