%TF.GenerationSoftware,KiCad,Pcbnew,9.0.3*%
%TF.CreationDate,2026-07-02T03:16:19+01:00*%
%TF.ProjectId,LTC6812-15W,4c544336-3831-4322-9d31-35572e6b6963,rev?*%
%TF.SameCoordinates,Original*%
%TF.FileFunction,Legend,Top*%
%TF.FilePolarity,Positive*%
%FSLAX46Y46*%
G04 Gerber Fmt 4.6, Leading zero omitted, Abs format (unit mm)*
G04 Created by KiCad (PCBNEW 9.0.3) date 2026-07-02 03:16:19*
%MOMM*%
%LPD*%
G01*
G04 APERTURE LIST*
%ADD10C,0.125000*%
%ADD11C,0.250000*%
%ADD12C,0.120000*%
%ADD13C,0.000000*%
%ADD14C,0.150000*%
G04 APERTURE END LIST*
D10*
X87819906Y-144768880D02*
X87153240Y-144768880D01*
X87153240Y-144768880D02*
X87581811Y-143768880D01*
X86772287Y-144149833D02*
X86010383Y-144149833D01*
X86391335Y-143768880D02*
X86391335Y-144530785D01*
X82198478Y-144818880D02*
X82674668Y-144818880D01*
X82674668Y-144818880D02*
X82722287Y-144342690D01*
X82722287Y-144342690D02*
X82674668Y-144390309D01*
X82674668Y-144390309D02*
X82579430Y-144437928D01*
X82579430Y-144437928D02*
X82341335Y-144437928D01*
X82341335Y-144437928D02*
X82246097Y-144390309D01*
X82246097Y-144390309D02*
X82198478Y-144342690D01*
X82198478Y-144342690D02*
X82150859Y-144247452D01*
X82150859Y-144247452D02*
X82150859Y-144009357D01*
X82150859Y-144009357D02*
X82198478Y-143914119D01*
X82198478Y-143914119D02*
X82246097Y-143866500D01*
X82246097Y-143866500D02*
X82341335Y-143818880D01*
X82341335Y-143818880D02*
X82579430Y-143818880D01*
X82579430Y-143818880D02*
X82674668Y-143866500D01*
X82674668Y-143866500D02*
X82722287Y-143914119D01*
X81722287Y-144199833D02*
X80960383Y-144199833D01*
X81341335Y-143818880D02*
X81341335Y-144580785D01*
X100346335Y-47692690D02*
X100203478Y-47645071D01*
X100203478Y-47645071D02*
X100155859Y-47597452D01*
X100155859Y-47597452D02*
X100108240Y-47502214D01*
X100108240Y-47502214D02*
X100108240Y-47359357D01*
X100108240Y-47359357D02*
X100155859Y-47264119D01*
X100155859Y-47264119D02*
X100203478Y-47216500D01*
X100203478Y-47216500D02*
X100298716Y-47168880D01*
X100298716Y-47168880D02*
X100679668Y-47168880D01*
X100679668Y-47168880D02*
X100679668Y-48168880D01*
X100679668Y-48168880D02*
X100346335Y-48168880D01*
X100346335Y-48168880D02*
X100251097Y-48121261D01*
X100251097Y-48121261D02*
X100203478Y-48073642D01*
X100203478Y-48073642D02*
X100155859Y-47978404D01*
X100155859Y-47978404D02*
X100155859Y-47883166D01*
X100155859Y-47883166D02*
X100203478Y-47787928D01*
X100203478Y-47787928D02*
X100251097Y-47740309D01*
X100251097Y-47740309D02*
X100346335Y-47692690D01*
X100346335Y-47692690D02*
X100679668Y-47692690D01*
X99679668Y-47549833D02*
X98917764Y-47549833D01*
X102870859Y-85658880D02*
X103442287Y-85658880D01*
X103156573Y-85658880D02*
X103156573Y-86658880D01*
X103156573Y-86658880D02*
X103251811Y-86516023D01*
X103251811Y-86516023D02*
X103347049Y-86420785D01*
X103347049Y-86420785D02*
X103442287Y-86373166D01*
X102537525Y-86658880D02*
X101918478Y-86658880D01*
X101918478Y-86658880D02*
X102251811Y-86277928D01*
X102251811Y-86277928D02*
X102108954Y-86277928D01*
X102108954Y-86277928D02*
X102013716Y-86230309D01*
X102013716Y-86230309D02*
X101966097Y-86182690D01*
X101966097Y-86182690D02*
X101918478Y-86087452D01*
X101918478Y-86087452D02*
X101918478Y-85849357D01*
X101918478Y-85849357D02*
X101966097Y-85754119D01*
X101966097Y-85754119D02*
X102013716Y-85706500D01*
X102013716Y-85706500D02*
X102108954Y-85658880D01*
X102108954Y-85658880D02*
X102394668Y-85658880D01*
X102394668Y-85658880D02*
X102489906Y-85706500D01*
X102489906Y-85706500D02*
X102537525Y-85754119D01*
X101489906Y-86039833D02*
X100728002Y-86039833D01*
X101108954Y-85658880D02*
X101108954Y-86420785D01*
X95022287Y-46324595D02*
X94546097Y-46324595D01*
X95117525Y-46038880D02*
X94784192Y-47038880D01*
X94784192Y-47038880D02*
X94450859Y-46038880D01*
X94117525Y-46419833D02*
X93355621Y-46419833D01*
D11*
X40730663Y-62755333D02*
X42254473Y-62755333D01*
X41492568Y-63517238D02*
X41492568Y-61993428D01*
D10*
X103336811Y-98800309D02*
X103432049Y-98847928D01*
X103432049Y-98847928D02*
X103479668Y-98895547D01*
X103479668Y-98895547D02*
X103527287Y-98990785D01*
X103527287Y-98990785D02*
X103527287Y-99038404D01*
X103527287Y-99038404D02*
X103479668Y-99133642D01*
X103479668Y-99133642D02*
X103432049Y-99181261D01*
X103432049Y-99181261D02*
X103336811Y-99228880D01*
X103336811Y-99228880D02*
X103146335Y-99228880D01*
X103146335Y-99228880D02*
X103051097Y-99181261D01*
X103051097Y-99181261D02*
X103003478Y-99133642D01*
X103003478Y-99133642D02*
X102955859Y-99038404D01*
X102955859Y-99038404D02*
X102955859Y-98990785D01*
X102955859Y-98990785D02*
X103003478Y-98895547D01*
X103003478Y-98895547D02*
X103051097Y-98847928D01*
X103051097Y-98847928D02*
X103146335Y-98800309D01*
X103146335Y-98800309D02*
X103336811Y-98800309D01*
X103336811Y-98800309D02*
X103432049Y-98752690D01*
X103432049Y-98752690D02*
X103479668Y-98705071D01*
X103479668Y-98705071D02*
X103527287Y-98609833D01*
X103527287Y-98609833D02*
X103527287Y-98419357D01*
X103527287Y-98419357D02*
X103479668Y-98324119D01*
X103479668Y-98324119D02*
X103432049Y-98276500D01*
X103432049Y-98276500D02*
X103336811Y-98228880D01*
X103336811Y-98228880D02*
X103146335Y-98228880D01*
X103146335Y-98228880D02*
X103051097Y-98276500D01*
X103051097Y-98276500D02*
X103003478Y-98324119D01*
X103003478Y-98324119D02*
X102955859Y-98419357D01*
X102955859Y-98419357D02*
X102955859Y-98609833D01*
X102955859Y-98609833D02*
X103003478Y-98705071D01*
X103003478Y-98705071D02*
X103051097Y-98752690D01*
X103051097Y-98752690D02*
X103146335Y-98800309D01*
X102527287Y-98609833D02*
X101765383Y-98609833D01*
X102146335Y-98228880D02*
X102146335Y-98990785D01*
X79836097Y-144485547D02*
X79836097Y-143818880D01*
X80074192Y-144866500D02*
X80312287Y-144152214D01*
X80312287Y-144152214D02*
X79693240Y-144152214D01*
X79312287Y-144199833D02*
X78550383Y-144199833D01*
X78931335Y-143818880D02*
X78931335Y-144580785D01*
X72130859Y-143848880D02*
X72702287Y-143848880D01*
X72416573Y-143848880D02*
X72416573Y-144848880D01*
X72416573Y-144848880D02*
X72511811Y-144706023D01*
X72511811Y-144706023D02*
X72607049Y-144610785D01*
X72607049Y-144610785D02*
X72702287Y-144563166D01*
X71702287Y-144229833D02*
X70940383Y-144229833D01*
X71321335Y-143848880D02*
X71321335Y-144610785D01*
X107037525Y-57708880D02*
X106466097Y-57708880D01*
X106751811Y-56708880D02*
X106751811Y-57708880D01*
X105751811Y-56756500D02*
X105847049Y-56708880D01*
X105847049Y-56708880D02*
X106037525Y-56708880D01*
X106037525Y-56708880D02*
X106132763Y-56756500D01*
X106132763Y-56756500D02*
X106180382Y-56851738D01*
X106180382Y-56851738D02*
X106180382Y-57232690D01*
X106180382Y-57232690D02*
X106132763Y-57327928D01*
X106132763Y-57327928D02*
X106037525Y-57375547D01*
X106037525Y-57375547D02*
X105847049Y-57375547D01*
X105847049Y-57375547D02*
X105751811Y-57327928D01*
X105751811Y-57327928D02*
X105704192Y-57232690D01*
X105704192Y-57232690D02*
X105704192Y-57137452D01*
X105704192Y-57137452D02*
X106180382Y-57042214D01*
X105275620Y-56708880D02*
X105275620Y-57375547D01*
X105275620Y-57280309D02*
X105228001Y-57327928D01*
X105228001Y-57327928D02*
X105132763Y-57375547D01*
X105132763Y-57375547D02*
X104989906Y-57375547D01*
X104989906Y-57375547D02*
X104894668Y-57327928D01*
X104894668Y-57327928D02*
X104847049Y-57232690D01*
X104847049Y-57232690D02*
X104847049Y-56708880D01*
X104847049Y-57232690D02*
X104799430Y-57327928D01*
X104799430Y-57327928D02*
X104704192Y-57375547D01*
X104704192Y-57375547D02*
X104561335Y-57375547D01*
X104561335Y-57375547D02*
X104466096Y-57327928D01*
X104466096Y-57327928D02*
X104418477Y-57232690D01*
X104418477Y-57232690D02*
X104418477Y-56708880D01*
X103942287Y-57375547D02*
X103942287Y-56375547D01*
X103942287Y-57327928D02*
X103847049Y-57375547D01*
X103847049Y-57375547D02*
X103656573Y-57375547D01*
X103656573Y-57375547D02*
X103561335Y-57327928D01*
X103561335Y-57327928D02*
X103513716Y-57280309D01*
X103513716Y-57280309D02*
X103466097Y-57185071D01*
X103466097Y-57185071D02*
X103466097Y-56899357D01*
X103466097Y-56899357D02*
X103513716Y-56804119D01*
X103513716Y-56804119D02*
X103561335Y-56756500D01*
X103561335Y-56756500D02*
X103656573Y-56708880D01*
X103656573Y-56708880D02*
X103847049Y-56708880D01*
X103847049Y-56708880D02*
X103942287Y-56756500D01*
X102980859Y-93403880D02*
X103552287Y-93403880D01*
X103266573Y-93403880D02*
X103266573Y-94403880D01*
X103266573Y-94403880D02*
X103361811Y-94261023D01*
X103361811Y-94261023D02*
X103457049Y-94165785D01*
X103457049Y-94165785D02*
X103552287Y-94118166D01*
X102361811Y-94403880D02*
X102266573Y-94403880D01*
X102266573Y-94403880D02*
X102171335Y-94356261D01*
X102171335Y-94356261D02*
X102123716Y-94308642D01*
X102123716Y-94308642D02*
X102076097Y-94213404D01*
X102076097Y-94213404D02*
X102028478Y-94022928D01*
X102028478Y-94022928D02*
X102028478Y-93784833D01*
X102028478Y-93784833D02*
X102076097Y-93594357D01*
X102076097Y-93594357D02*
X102123716Y-93499119D01*
X102123716Y-93499119D02*
X102171335Y-93451500D01*
X102171335Y-93451500D02*
X102266573Y-93403880D01*
X102266573Y-93403880D02*
X102361811Y-93403880D01*
X102361811Y-93403880D02*
X102457049Y-93451500D01*
X102457049Y-93451500D02*
X102504668Y-93499119D01*
X102504668Y-93499119D02*
X102552287Y-93594357D01*
X102552287Y-93594357D02*
X102599906Y-93784833D01*
X102599906Y-93784833D02*
X102599906Y-94022928D01*
X102599906Y-94022928D02*
X102552287Y-94213404D01*
X102552287Y-94213404D02*
X102504668Y-94308642D01*
X102504668Y-94308642D02*
X102457049Y-94356261D01*
X102457049Y-94356261D02*
X102361811Y-94403880D01*
X101599906Y-93784833D02*
X100838002Y-93784833D01*
X101218954Y-93403880D02*
X101218954Y-94165785D01*
X109252287Y-47454595D02*
X108776097Y-47454595D01*
X109347525Y-47168880D02*
X109014192Y-48168880D01*
X109014192Y-48168880D02*
X108680859Y-47168880D01*
X108347525Y-47549833D02*
X107585621Y-47549833D01*
X107966573Y-47168880D02*
X107966573Y-47930785D01*
X102950859Y-88398880D02*
X103522287Y-88398880D01*
X103236573Y-88398880D02*
X103236573Y-89398880D01*
X103236573Y-89398880D02*
X103331811Y-89256023D01*
X103331811Y-89256023D02*
X103427049Y-89160785D01*
X103427049Y-89160785D02*
X103522287Y-89113166D01*
X102569906Y-89303642D02*
X102522287Y-89351261D01*
X102522287Y-89351261D02*
X102427049Y-89398880D01*
X102427049Y-89398880D02*
X102188954Y-89398880D01*
X102188954Y-89398880D02*
X102093716Y-89351261D01*
X102093716Y-89351261D02*
X102046097Y-89303642D01*
X102046097Y-89303642D02*
X101998478Y-89208404D01*
X101998478Y-89208404D02*
X101998478Y-89113166D01*
X101998478Y-89113166D02*
X102046097Y-88970309D01*
X102046097Y-88970309D02*
X102617525Y-88398880D01*
X102617525Y-88398880D02*
X101998478Y-88398880D01*
X101569906Y-88779833D02*
X100808002Y-88779833D01*
X101188954Y-88398880D02*
X101188954Y-89160785D01*
X103096335Y-47642690D02*
X102953478Y-47595071D01*
X102953478Y-47595071D02*
X102905859Y-47547452D01*
X102905859Y-47547452D02*
X102858240Y-47452214D01*
X102858240Y-47452214D02*
X102858240Y-47309357D01*
X102858240Y-47309357D02*
X102905859Y-47214119D01*
X102905859Y-47214119D02*
X102953478Y-47166500D01*
X102953478Y-47166500D02*
X103048716Y-47118880D01*
X103048716Y-47118880D02*
X103429668Y-47118880D01*
X103429668Y-47118880D02*
X103429668Y-48118880D01*
X103429668Y-48118880D02*
X103096335Y-48118880D01*
X103096335Y-48118880D02*
X103001097Y-48071261D01*
X103001097Y-48071261D02*
X102953478Y-48023642D01*
X102953478Y-48023642D02*
X102905859Y-47928404D01*
X102905859Y-47928404D02*
X102905859Y-47833166D01*
X102905859Y-47833166D02*
X102953478Y-47737928D01*
X102953478Y-47737928D02*
X103001097Y-47690309D01*
X103001097Y-47690309D02*
X103096335Y-47642690D01*
X103096335Y-47642690D02*
X103429668Y-47642690D01*
X102429668Y-47499833D02*
X101667764Y-47499833D01*
X102048716Y-47118880D02*
X102048716Y-47880785D01*
D11*
X41030663Y-125255333D02*
X42554473Y-125255333D01*
D10*
X102920859Y-83208880D02*
X103492287Y-83208880D01*
X103206573Y-83208880D02*
X103206573Y-84208880D01*
X103206573Y-84208880D02*
X103301811Y-84066023D01*
X103301811Y-84066023D02*
X103397049Y-83970785D01*
X103397049Y-83970785D02*
X103492287Y-83923166D01*
X102063716Y-83875547D02*
X102063716Y-83208880D01*
X102301811Y-84256500D02*
X102539906Y-83542214D01*
X102539906Y-83542214D02*
X101920859Y-83542214D01*
X101539906Y-83589833D02*
X100778002Y-83589833D01*
X101158954Y-83208880D02*
X101158954Y-83970785D01*
X103382049Y-95953880D02*
X103191573Y-95953880D01*
X103191573Y-95953880D02*
X103096335Y-96001500D01*
X103096335Y-96001500D02*
X103048716Y-96049119D01*
X103048716Y-96049119D02*
X102953478Y-96191976D01*
X102953478Y-96191976D02*
X102905859Y-96382452D01*
X102905859Y-96382452D02*
X102905859Y-96763404D01*
X102905859Y-96763404D02*
X102953478Y-96858642D01*
X102953478Y-96858642D02*
X103001097Y-96906261D01*
X103001097Y-96906261D02*
X103096335Y-96953880D01*
X103096335Y-96953880D02*
X103286811Y-96953880D01*
X103286811Y-96953880D02*
X103382049Y-96906261D01*
X103382049Y-96906261D02*
X103429668Y-96858642D01*
X103429668Y-96858642D02*
X103477287Y-96763404D01*
X103477287Y-96763404D02*
X103477287Y-96525309D01*
X103477287Y-96525309D02*
X103429668Y-96430071D01*
X103429668Y-96430071D02*
X103382049Y-96382452D01*
X103382049Y-96382452D02*
X103286811Y-96334833D01*
X103286811Y-96334833D02*
X103096335Y-96334833D01*
X103096335Y-96334833D02*
X103001097Y-96382452D01*
X103001097Y-96382452D02*
X102953478Y-96430071D01*
X102953478Y-96430071D02*
X102905859Y-96525309D01*
X102477287Y-96334833D02*
X101715383Y-96334833D01*
X102096335Y-95953880D02*
X102096335Y-96715785D01*
X94541335Y-40582690D02*
X94398478Y-40535071D01*
X94398478Y-40535071D02*
X94350859Y-40487452D01*
X94350859Y-40487452D02*
X94303240Y-40392214D01*
X94303240Y-40392214D02*
X94303240Y-40249357D01*
X94303240Y-40249357D02*
X94350859Y-40154119D01*
X94350859Y-40154119D02*
X94398478Y-40106500D01*
X94398478Y-40106500D02*
X94493716Y-40058880D01*
X94493716Y-40058880D02*
X94874668Y-40058880D01*
X94874668Y-40058880D02*
X94874668Y-41058880D01*
X94874668Y-41058880D02*
X94541335Y-41058880D01*
X94541335Y-41058880D02*
X94446097Y-41011261D01*
X94446097Y-41011261D02*
X94398478Y-40963642D01*
X94398478Y-40963642D02*
X94350859Y-40868404D01*
X94350859Y-40868404D02*
X94350859Y-40773166D01*
X94350859Y-40773166D02*
X94398478Y-40677928D01*
X94398478Y-40677928D02*
X94446097Y-40630309D01*
X94446097Y-40630309D02*
X94541335Y-40582690D01*
X94541335Y-40582690D02*
X94874668Y-40582690D01*
X93874668Y-40439833D02*
X93112764Y-40439833D01*
X83923240Y-42284119D02*
X83970859Y-42236500D01*
X83970859Y-42236500D02*
X84113716Y-42188880D01*
X84113716Y-42188880D02*
X84208954Y-42188880D01*
X84208954Y-42188880D02*
X84351811Y-42236500D01*
X84351811Y-42236500D02*
X84447049Y-42331738D01*
X84447049Y-42331738D02*
X84494668Y-42426976D01*
X84494668Y-42426976D02*
X84542287Y-42617452D01*
X84542287Y-42617452D02*
X84542287Y-42760309D01*
X84542287Y-42760309D02*
X84494668Y-42950785D01*
X84494668Y-42950785D02*
X84447049Y-43046023D01*
X84447049Y-43046023D02*
X84351811Y-43141261D01*
X84351811Y-43141261D02*
X84208954Y-43188880D01*
X84208954Y-43188880D02*
X84113716Y-43188880D01*
X84113716Y-43188880D02*
X83970859Y-43141261D01*
X83970859Y-43141261D02*
X83923240Y-43093642D01*
X83113716Y-42236500D02*
X83208954Y-42188880D01*
X83208954Y-42188880D02*
X83399430Y-42188880D01*
X83399430Y-42188880D02*
X83494668Y-42236500D01*
X83494668Y-42236500D02*
X83542287Y-42331738D01*
X83542287Y-42331738D02*
X83542287Y-42712690D01*
X83542287Y-42712690D02*
X83494668Y-42807928D01*
X83494668Y-42807928D02*
X83399430Y-42855547D01*
X83399430Y-42855547D02*
X83208954Y-42855547D01*
X83208954Y-42855547D02*
X83113716Y-42807928D01*
X83113716Y-42807928D02*
X83066097Y-42712690D01*
X83066097Y-42712690D02*
X83066097Y-42617452D01*
X83066097Y-42617452D02*
X83542287Y-42522214D01*
X82494668Y-42188880D02*
X82589906Y-42236500D01*
X82589906Y-42236500D02*
X82637525Y-42331738D01*
X82637525Y-42331738D02*
X82637525Y-43188880D01*
X81970858Y-42188880D02*
X82066096Y-42236500D01*
X82066096Y-42236500D02*
X82113715Y-42331738D01*
X82113715Y-42331738D02*
X82113715Y-43188880D01*
X67974668Y-146509833D02*
X67212764Y-146509833D01*
X103030859Y-91103880D02*
X103602287Y-91103880D01*
X103316573Y-91103880D02*
X103316573Y-92103880D01*
X103316573Y-92103880D02*
X103411811Y-91961023D01*
X103411811Y-91961023D02*
X103507049Y-91865785D01*
X103507049Y-91865785D02*
X103602287Y-91818166D01*
X102078478Y-91103880D02*
X102649906Y-91103880D01*
X102364192Y-91103880D02*
X102364192Y-92103880D01*
X102364192Y-92103880D02*
X102459430Y-91961023D01*
X102459430Y-91961023D02*
X102554668Y-91865785D01*
X102554668Y-91865785D02*
X102649906Y-91818166D01*
X101649906Y-91484833D02*
X100888002Y-91484833D01*
X101268954Y-91103880D02*
X101268954Y-91865785D01*
X95002287Y-44794595D02*
X94526097Y-44794595D01*
X95097525Y-44508880D02*
X94764192Y-45508880D01*
X94764192Y-45508880D02*
X94430859Y-44508880D01*
X94097525Y-44889833D02*
X93335621Y-44889833D01*
X93716573Y-44508880D02*
X93716573Y-45270785D01*
X77789906Y-144818880D02*
X77170859Y-144818880D01*
X77170859Y-144818880D02*
X77504192Y-144437928D01*
X77504192Y-144437928D02*
X77361335Y-144437928D01*
X77361335Y-144437928D02*
X77266097Y-144390309D01*
X77266097Y-144390309D02*
X77218478Y-144342690D01*
X77218478Y-144342690D02*
X77170859Y-144247452D01*
X77170859Y-144247452D02*
X77170859Y-144009357D01*
X77170859Y-144009357D02*
X77218478Y-143914119D01*
X77218478Y-143914119D02*
X77266097Y-143866500D01*
X77266097Y-143866500D02*
X77361335Y-143818880D01*
X77361335Y-143818880D02*
X77647049Y-143818880D01*
X77647049Y-143818880D02*
X77742287Y-143866500D01*
X77742287Y-143866500D02*
X77789906Y-143914119D01*
X76742287Y-144199833D02*
X75980383Y-144199833D01*
X76361335Y-143818880D02*
X76361335Y-144580785D01*
X94541335Y-39002690D02*
X94398478Y-38955071D01*
X94398478Y-38955071D02*
X94350859Y-38907452D01*
X94350859Y-38907452D02*
X94303240Y-38812214D01*
X94303240Y-38812214D02*
X94303240Y-38669357D01*
X94303240Y-38669357D02*
X94350859Y-38574119D01*
X94350859Y-38574119D02*
X94398478Y-38526500D01*
X94398478Y-38526500D02*
X94493716Y-38478880D01*
X94493716Y-38478880D02*
X94874668Y-38478880D01*
X94874668Y-38478880D02*
X94874668Y-39478880D01*
X94874668Y-39478880D02*
X94541335Y-39478880D01*
X94541335Y-39478880D02*
X94446097Y-39431261D01*
X94446097Y-39431261D02*
X94398478Y-39383642D01*
X94398478Y-39383642D02*
X94350859Y-39288404D01*
X94350859Y-39288404D02*
X94350859Y-39193166D01*
X94350859Y-39193166D02*
X94398478Y-39097928D01*
X94398478Y-39097928D02*
X94446097Y-39050309D01*
X94446097Y-39050309D02*
X94541335Y-39002690D01*
X94541335Y-39002690D02*
X94874668Y-39002690D01*
X93874668Y-38859833D02*
X93112764Y-38859833D01*
X93493716Y-38478880D02*
X93493716Y-39240785D01*
X106752287Y-47504595D02*
X106276097Y-47504595D01*
X106847525Y-47218880D02*
X106514192Y-48218880D01*
X106514192Y-48218880D02*
X106180859Y-47218880D01*
X105847525Y-47599833D02*
X105085621Y-47599833D01*
X75232287Y-144743642D02*
X75184668Y-144791261D01*
X75184668Y-144791261D02*
X75089430Y-144838880D01*
X75089430Y-144838880D02*
X74851335Y-144838880D01*
X74851335Y-144838880D02*
X74756097Y-144791261D01*
X74756097Y-144791261D02*
X74708478Y-144743642D01*
X74708478Y-144743642D02*
X74660859Y-144648404D01*
X74660859Y-144648404D02*
X74660859Y-144553166D01*
X74660859Y-144553166D02*
X74708478Y-144410309D01*
X74708478Y-144410309D02*
X75279906Y-143838880D01*
X75279906Y-143838880D02*
X74660859Y-143838880D01*
X74232287Y-144219833D02*
X73470383Y-144219833D01*
X73851335Y-143838880D02*
X73851335Y-144600785D01*
X84736097Y-144768880D02*
X84926573Y-144768880D01*
X84926573Y-144768880D02*
X85021811Y-144721261D01*
X85021811Y-144721261D02*
X85069430Y-144673642D01*
X85069430Y-144673642D02*
X85164668Y-144530785D01*
X85164668Y-144530785D02*
X85212287Y-144340309D01*
X85212287Y-144340309D02*
X85212287Y-143959357D01*
X85212287Y-143959357D02*
X85164668Y-143864119D01*
X85164668Y-143864119D02*
X85117049Y-143816500D01*
X85117049Y-143816500D02*
X85021811Y-143768880D01*
X85021811Y-143768880D02*
X84831335Y-143768880D01*
X84831335Y-143768880D02*
X84736097Y-143816500D01*
X84736097Y-143816500D02*
X84688478Y-143864119D01*
X84688478Y-143864119D02*
X84640859Y-143959357D01*
X84640859Y-143959357D02*
X84640859Y-144197452D01*
X84640859Y-144197452D02*
X84688478Y-144292690D01*
X84688478Y-144292690D02*
X84736097Y-144340309D01*
X84736097Y-144340309D02*
X84831335Y-144387928D01*
X84831335Y-144387928D02*
X85021811Y-144387928D01*
X85021811Y-144387928D02*
X85117049Y-144340309D01*
X85117049Y-144340309D02*
X85164668Y-144292690D01*
X85164668Y-144292690D02*
X85212287Y-144197452D01*
X84212287Y-144149833D02*
X83450383Y-144149833D01*
X83831335Y-143768880D02*
X83831335Y-144530785D01*
X102920859Y-80658880D02*
X103492287Y-80658880D01*
X103206573Y-80658880D02*
X103206573Y-81658880D01*
X103206573Y-81658880D02*
X103301811Y-81516023D01*
X103301811Y-81516023D02*
X103397049Y-81420785D01*
X103397049Y-81420785D02*
X103492287Y-81373166D01*
X102016097Y-81658880D02*
X102492287Y-81658880D01*
X102492287Y-81658880D02*
X102539906Y-81182690D01*
X102539906Y-81182690D02*
X102492287Y-81230309D01*
X102492287Y-81230309D02*
X102397049Y-81277928D01*
X102397049Y-81277928D02*
X102158954Y-81277928D01*
X102158954Y-81277928D02*
X102063716Y-81230309D01*
X102063716Y-81230309D02*
X102016097Y-81182690D01*
X102016097Y-81182690D02*
X101968478Y-81087452D01*
X101968478Y-81087452D02*
X101968478Y-80849357D01*
X101968478Y-80849357D02*
X102016097Y-80754119D01*
X102016097Y-80754119D02*
X102063716Y-80706500D01*
X102063716Y-80706500D02*
X102158954Y-80658880D01*
X102158954Y-80658880D02*
X102397049Y-80658880D01*
X102397049Y-80658880D02*
X102492287Y-80706500D01*
X102492287Y-80706500D02*
X102539906Y-80754119D01*
X101539906Y-81039833D02*
X100778002Y-81039833D01*
X101158954Y-80658880D02*
X101158954Y-81420785D01*
D12*
%TO.C,C22*%
X68689420Y-69940000D02*
X68970580Y-69940000D01*
X68689420Y-70960000D02*
X68970580Y-70960000D01*
%TO.C,R21*%
X52555436Y-119975000D02*
X56909564Y-119975000D01*
X52555436Y-123395000D02*
X56909564Y-123395000D01*
%TO.C,C20*%
X68704420Y-81990000D02*
X68985580Y-81990000D01*
X68704420Y-83010000D02*
X68985580Y-83010000D01*
%TO.C,Q13*%
X60235000Y-68865000D02*
X59585000Y-68865000D01*
X60235000Y-68865000D02*
X60885000Y-68865000D01*
X60235000Y-71985000D02*
X59585000Y-71985000D01*
X60235000Y-71985000D02*
X60885000Y-71985000D01*
X61637500Y-72265000D02*
X61157500Y-72265000D01*
X61397500Y-71935000D01*
X61637500Y-72265000D01*
G36*
X61637500Y-72265000D02*
G01*
X61157500Y-72265000D01*
X61397500Y-71935000D01*
X61637500Y-72265000D01*
G37*
%TO.C,D19*%
X71320000Y-52370000D02*
X71320000Y-55030000D01*
X73020000Y-52370000D02*
X71320000Y-52370000D01*
X73020000Y-52370000D02*
X73020000Y-55030000D01*
%TO.C,R27*%
X64924564Y-113405000D02*
X64470436Y-113405000D01*
X64924564Y-114875000D02*
X64470436Y-114875000D01*
%TO.C,F3*%
X68137936Y-49640000D02*
X69342064Y-49640000D01*
X68137936Y-51460000D02*
X69342064Y-51460000D01*
%TO.C,D3*%
X57140000Y-45450000D02*
X57140000Y-41440000D01*
X57140000Y-45450000D02*
X59140000Y-45450000D01*
X59140000Y-45450000D02*
X59140000Y-41440000D01*
%TO.C,C16*%
X68734420Y-104450000D02*
X69015580Y-104450000D01*
X68734420Y-105470000D02*
X69015580Y-105470000D01*
%TO.C,C1*%
X89360000Y-86274420D02*
X89360000Y-86555580D01*
X90380000Y-86274420D02*
X90380000Y-86555580D01*
%TO.C,R5*%
X96122742Y-94367500D02*
X96597258Y-94367500D01*
X96122742Y-95412500D02*
X96597258Y-95412500D01*
%TO.C,R37*%
X52302936Y-97460000D02*
X56657064Y-97460000D01*
X52302936Y-100880000D02*
X56657064Y-100880000D01*
%TO.C,Q8*%
X60580000Y-97260000D02*
X59930000Y-97260000D01*
X60580000Y-97260000D02*
X61230000Y-97260000D01*
X60580000Y-100380000D02*
X59930000Y-100380000D01*
X60580000Y-100380000D02*
X61230000Y-100380000D01*
X61982500Y-100660000D02*
X61502500Y-100660000D01*
X61742500Y-100330000D01*
X61982500Y-100660000D01*
G36*
X61982500Y-100660000D02*
G01*
X61502500Y-100660000D01*
X61742500Y-100330000D01*
X61982500Y-100660000D01*
G37*
%TO.C,R55*%
X64504564Y-73575000D02*
X64050436Y-73575000D01*
X64504564Y-75045000D02*
X64050436Y-75045000D01*
%TO.C,Q7*%
X60562500Y-103550000D02*
X59912500Y-103550000D01*
X60562500Y-103550000D02*
X61212500Y-103550000D01*
X60562500Y-106670000D02*
X59912500Y-106670000D01*
X60562500Y-106670000D02*
X61212500Y-106670000D01*
X61965000Y-106950000D02*
X61485000Y-106950000D01*
X61725000Y-106620000D01*
X61965000Y-106950000D01*
G36*
X61965000Y-106950000D02*
G01*
X61485000Y-106950000D01*
X61725000Y-106620000D01*
X61965000Y-106950000D01*
G37*
%TO.C,R29*%
X52425436Y-109052500D02*
X56779564Y-109052500D01*
X52425436Y-112472500D02*
X56779564Y-112472500D01*
%TO.C,F20*%
X68217936Y-90590000D02*
X69422064Y-90590000D01*
X68217936Y-92410000D02*
X69422064Y-92410000D01*
%TO.C,F30*%
X68657936Y-118300000D02*
X69862064Y-118300000D01*
X68657936Y-120120000D02*
X69862064Y-120120000D01*
%TO.C,R19*%
X65044564Y-124105000D02*
X64590436Y-124105000D01*
X65044564Y-125575000D02*
X64590436Y-125575000D01*
%TO.C,D7*%
X71980000Y-120892500D02*
X71980000Y-123552500D01*
X73680000Y-120892500D02*
X71980000Y-120892500D01*
X73680000Y-120892500D02*
X73680000Y-123552500D01*
%TO.C,D16*%
X71330000Y-69890000D02*
X71330000Y-72550000D01*
X73030000Y-69890000D02*
X71330000Y-69890000D01*
X73030000Y-69890000D02*
X73030000Y-72550000D01*
%TO.C,U1*%
X81105000Y-89795000D02*
X81105000Y-90845000D01*
X81105000Y-89795000D02*
X82155000Y-89795000D01*
X81105000Y-100145000D02*
X81105000Y-99095000D01*
X81105000Y-100145000D02*
X82155000Y-100145000D01*
X90505000Y-89795000D02*
X90505000Y-88520000D01*
X91455000Y-89795000D02*
X90505000Y-89795000D01*
X91455000Y-89795000D02*
X91455000Y-90845000D01*
X91455000Y-100145000D02*
X90405000Y-100145000D01*
X91455000Y-100145000D02*
X91455000Y-99095000D01*
%TO.C,D15*%
X71300000Y-75190000D02*
X71300000Y-77850000D01*
X73000000Y-75190000D02*
X71300000Y-75190000D01*
X73000000Y-75190000D02*
X73000000Y-77850000D01*
%TO.C,C23*%
X68559420Y-64290000D02*
X68840580Y-64290000D01*
X68559420Y-65310000D02*
X68840580Y-65310000D01*
%TO.C,R25*%
X52450436Y-114330000D02*
X56804564Y-114330000D01*
X52450436Y-117750000D02*
X56804564Y-117750000D01*
%TO.C,J4*%
X38590000Y-75290000D02*
X38590000Y-75790000D01*
X38880000Y-64680000D02*
X44600000Y-64680000D01*
X38880000Y-65750000D02*
X38880000Y-64680000D01*
X38880000Y-75580000D02*
X38880000Y-76650000D01*
X38880000Y-76650000D02*
X44600000Y-76650000D01*
X38890000Y-75290000D02*
X38590000Y-75290000D01*
X39180000Y-65750000D02*
X38880000Y-65750000D01*
X39180000Y-70665000D02*
X39180000Y-65750000D01*
X39180000Y-70665000D02*
X39180000Y-75580000D01*
X39180000Y-75580000D02*
X38880000Y-75580000D01*
X44600000Y-64680000D02*
X44600000Y-70665000D01*
X44600000Y-76650000D02*
X44600000Y-70665000D01*
%TO.C,R39*%
X64757064Y-96225000D02*
X64302936Y-96225000D01*
X64757064Y-97695000D02*
X64302936Y-97695000D01*
%TO.C,D8*%
X72000000Y-115212500D02*
X72000000Y-117872500D01*
X73700000Y-115212500D02*
X72000000Y-115212500D01*
X73700000Y-115212500D02*
X73700000Y-117872500D01*
%TO.C,D10*%
X71460000Y-104300000D02*
X71460000Y-106960000D01*
X73160000Y-104300000D02*
X71460000Y-104300000D01*
X73160000Y-104300000D02*
X73160000Y-106960000D01*
%TO.C,FB1*%
X55077258Y-44192500D02*
X54602742Y-44192500D01*
X55077258Y-45237500D02*
X54602742Y-45237500D01*
D13*
%TO.C,G\u002A\u002A\u002A*%
G36*
X91697357Y-135514244D02*
G01*
X91697357Y-136273564D01*
X91558396Y-136273564D01*
X91419435Y-136273564D01*
X91419435Y-135638316D01*
X91419435Y-135003068D01*
X91116700Y-135003068D01*
X90813965Y-135003068D01*
X90813965Y-134878996D01*
X90813965Y-134754924D01*
X91255661Y-134754924D01*
X91697357Y-134754924D01*
X91697357Y-135514244D01*
G37*
G36*
X90039756Y-133216433D02*
G01*
X90039756Y-133851681D01*
X90243234Y-133851681D01*
X90446712Y-133851681D01*
X90446712Y-133980716D01*
X90446712Y-134109750D01*
X89905758Y-134109750D01*
X89364805Y-134109750D01*
X89364805Y-133980716D01*
X89364805Y-133851681D01*
X89568283Y-133851681D01*
X89771761Y-133851681D01*
X89771761Y-133216433D01*
X89771761Y-132581185D01*
X89905758Y-132581185D01*
X90039756Y-132581185D01*
X90039756Y-133216433D01*
G37*
G36*
X96868673Y-133216433D02*
G01*
X96868673Y-133851681D01*
X97072151Y-133851681D01*
X97275629Y-133851681D01*
X97275629Y-133980716D01*
X97275629Y-134109750D01*
X96734676Y-134109750D01*
X96193722Y-134109750D01*
X96193722Y-133980716D01*
X96193722Y-133851681D01*
X96397200Y-133851681D01*
X96600678Y-133851681D01*
X96600678Y-133216433D01*
X96600678Y-132581185D01*
X96734676Y-132581185D01*
X96868673Y-132581185D01*
X96868673Y-133216433D01*
G37*
G36*
X91833897Y-133342986D02*
G01*
X91831354Y-134104788D01*
X91702099Y-134107541D01*
X91572843Y-134110295D01*
X91290180Y-133616217D01*
X91007517Y-133122138D01*
X91004943Y-133615944D01*
X91002369Y-134109750D01*
X90873426Y-134109750D01*
X90744484Y-134109750D01*
X90744484Y-133345468D01*
X90744484Y-132581185D01*
X90876001Y-132581449D01*
X91007517Y-132581713D01*
X91285438Y-133066488D01*
X91563359Y-133551263D01*
X91565934Y-133066224D01*
X91568509Y-132581185D01*
X91702475Y-132581185D01*
X91836440Y-132581185D01*
X91833897Y-133342986D01*
G37*
G36*
X98506423Y-135514244D02*
G01*
X98506423Y-136273564D01*
X98044875Y-136273564D01*
X97583328Y-136273564D01*
X97583328Y-136149493D01*
X97583328Y-136025421D01*
X97910877Y-136025421D01*
X98238427Y-136025421D01*
X98238427Y-135836831D01*
X98238427Y-135648242D01*
X97940655Y-135648242D01*
X97642882Y-135648242D01*
X97642882Y-135519207D01*
X97642882Y-135390172D01*
X97940655Y-135390172D01*
X98238427Y-135390172D01*
X98238427Y-135072548D01*
X98238427Y-134754924D01*
X98372425Y-134754924D01*
X98506423Y-134754924D01*
X98506423Y-135514244D01*
G37*
G36*
X93116739Y-133345568D02*
G01*
X93116739Y-134109951D01*
X92662636Y-134107369D01*
X92208533Y-134104788D01*
X92205755Y-133978234D01*
X92202977Y-133851681D01*
X92526079Y-133851681D01*
X92849182Y-133851681D01*
X92846481Y-133665573D01*
X92843781Y-133479465D01*
X92553453Y-133476834D01*
X92263124Y-133474202D01*
X92263124Y-133350430D01*
X92263124Y-133226658D01*
X92553453Y-133224027D01*
X92843781Y-133221396D01*
X92846476Y-133030463D01*
X92849171Y-132839530D01*
X92528852Y-132836911D01*
X92208533Y-132834291D01*
X92205755Y-132707738D01*
X92202977Y-132581185D01*
X92659858Y-132581185D01*
X93116739Y-132581185D01*
X93116739Y-133345568D01*
G37*
G36*
X100292312Y-138190101D02*
G01*
X100390904Y-138217016D01*
X100491663Y-138258416D01*
X100591849Y-138312139D01*
X100688724Y-138376024D01*
X100779549Y-138447909D01*
X100861584Y-138525631D01*
X100932092Y-138607029D01*
X100988333Y-138689942D01*
X101026651Y-138769731D01*
X101039063Y-138814517D01*
X101045965Y-138863993D01*
X101047035Y-138911591D01*
X101041953Y-138950744D01*
X101036277Y-138966577D01*
X101001802Y-139013141D01*
X100953986Y-139046268D01*
X100894137Y-139065915D01*
X100823567Y-139072041D01*
X100743586Y-139064602D01*
X100655503Y-139043556D01*
X100560628Y-139008860D01*
X100505803Y-138983834D01*
X100411318Y-138932121D01*
X100322273Y-138872532D01*
X100240073Y-138806822D01*
X100166121Y-138736748D01*
X100101819Y-138664066D01*
X100048573Y-138590531D01*
X100007784Y-138517901D01*
X99980856Y-138447930D01*
X99969193Y-138382374D01*
X99974198Y-138322991D01*
X99975043Y-138319720D01*
X99998718Y-138266868D01*
X100037220Y-138226038D01*
X100089165Y-138197797D01*
X100153169Y-138182709D01*
X100227848Y-138181341D01*
X100292312Y-138190101D01*
G37*
G36*
X93605481Y-135202526D02*
G01*
X93608064Y-135650127D01*
X93747024Y-135331578D01*
X93885985Y-135013030D01*
X94003701Y-135015493D01*
X94121417Y-135017957D01*
X94259087Y-135330618D01*
X94396757Y-135643279D01*
X94396959Y-135199102D01*
X94397161Y-134754924D01*
X94531159Y-134754924D01*
X94665156Y-134754924D01*
X94665156Y-135514244D01*
X94665156Y-136273564D01*
X94532826Y-136273564D01*
X94400496Y-136273564D01*
X94203128Y-135812511D01*
X94164644Y-135722803D01*
X94128524Y-135638970D01*
X94095513Y-135562720D01*
X94066358Y-135495756D01*
X94041804Y-135439786D01*
X94022597Y-135396515D01*
X94009484Y-135367649D01*
X94003210Y-135354893D01*
X94002790Y-135354427D01*
X93998396Y-135363851D01*
X93986911Y-135389768D01*
X93969093Y-135430435D01*
X93945699Y-135484112D01*
X93917488Y-135549056D01*
X93885217Y-135623526D01*
X93849642Y-135705780D01*
X93811522Y-135794076D01*
X93803360Y-135812999D01*
X93606900Y-136268602D01*
X93475965Y-136271371D01*
X93345031Y-136274141D01*
X93345031Y-135514532D01*
X93345031Y-134754924D01*
X93473965Y-134754924D01*
X93602899Y-134754924D01*
X93605481Y-135202526D01*
G37*
G36*
X92520661Y-134755313D02*
G01*
X92614859Y-134755638D01*
X92691030Y-134756404D01*
X92750996Y-134757683D01*
X92796579Y-134759548D01*
X92829600Y-134762072D01*
X92851882Y-134765326D01*
X92864404Y-134769003D01*
X92911951Y-134798279D01*
X92955851Y-134840648D01*
X92989560Y-134889561D01*
X92994143Y-134898776D01*
X93017288Y-134948477D01*
X93017385Y-135611020D01*
X93017482Y-136273564D01*
X92883484Y-136273564D01*
X92749486Y-136273564D01*
X92749486Y-135662680D01*
X92749486Y-135051795D01*
X92725123Y-135027431D01*
X92715969Y-135018837D01*
X92706212Y-135012546D01*
X92692808Y-135008200D01*
X92672715Y-135005439D01*
X92642892Y-135003904D01*
X92600294Y-135003234D01*
X92541880Y-135003072D01*
X92518891Y-135003068D01*
X92451478Y-135003357D01*
X92401083Y-135004365D01*
X92364879Y-135006307D01*
X92340039Y-135009397D01*
X92323735Y-135013849D01*
X92314962Y-135018520D01*
X92292902Y-135033971D01*
X92292902Y-135653768D01*
X92292902Y-136273564D01*
X92153941Y-136273564D01*
X92014981Y-136273564D01*
X92014981Y-135633842D01*
X92015149Y-135491278D01*
X92015647Y-135363570D01*
X92016464Y-135251416D01*
X92017589Y-135155515D01*
X92019013Y-135076564D01*
X92020724Y-135015263D01*
X92022712Y-134972309D01*
X92024967Y-134948402D01*
X92025331Y-134946484D01*
X92047892Y-134886673D01*
X92086245Y-134833317D01*
X92136374Y-134791536D01*
X92155032Y-134781054D01*
X92207468Y-134754924D01*
X92520661Y-134755313D01*
G37*
G36*
X90418137Y-135381812D02*
G01*
X90379658Y-135497228D01*
X90369020Y-135529133D01*
X90122454Y-136268602D01*
X89995090Y-136268602D01*
X89867726Y-136268602D01*
X89621160Y-135529133D01*
X89582257Y-135412451D01*
X89558443Y-135341015D01*
X89831315Y-135341015D01*
X89834075Y-135356142D01*
X89841769Y-135386057D01*
X89853518Y-135427939D01*
X89868443Y-135478969D01*
X89885664Y-135536323D01*
X89904303Y-135597182D01*
X89923481Y-135658725D01*
X89942319Y-135718129D01*
X89959937Y-135772575D01*
X89975457Y-135819242D01*
X89988000Y-135855307D01*
X89996686Y-135877951D01*
X90000627Y-135884371D01*
X90005351Y-135871223D01*
X90015219Y-135840294D01*
X90029844Y-135792867D01*
X90048838Y-135730225D01*
X90071815Y-135653653D01*
X90098387Y-135564434D01*
X90128167Y-135463853D01*
X90159380Y-135357914D01*
X90167405Y-135330618D01*
X89999360Y-135330618D01*
X89929127Y-135331227D01*
X89877505Y-135333039D01*
X89844874Y-135336030D01*
X89831615Y-135340177D01*
X89831315Y-135341015D01*
X89558443Y-135341015D01*
X89545103Y-135300998D01*
X89510187Y-135196243D01*
X89477998Y-135099651D01*
X89449024Y-135012692D01*
X89423755Y-134936831D01*
X89402679Y-134873537D01*
X89386285Y-134824277D01*
X89375062Y-134790518D01*
X89369499Y-134773727D01*
X89369031Y-134772294D01*
X89368266Y-134765381D01*
X89373094Y-134760584D01*
X89386413Y-134757522D01*
X89411124Y-134755812D01*
X89450125Y-134755074D01*
X89500952Y-134754924D01*
X89638438Y-134754924D01*
X89692408Y-134918862D01*
X89746379Y-135082800D01*
X89998942Y-135080156D01*
X90251506Y-135077511D01*
X90301293Y-134916218D01*
X90351081Y-134754924D01*
X90488897Y-134754924D01*
X90543635Y-134755107D01*
X90581419Y-134755908D01*
X90605146Y-134757708D01*
X90617712Y-134760888D01*
X90622014Y-134765828D01*
X90621149Y-134772294D01*
X90617196Y-134784257D01*
X90607452Y-134813583D01*
X90592405Y-134858807D01*
X90572544Y-134918460D01*
X90548357Y-134991075D01*
X90520335Y-135075186D01*
X90488965Y-135169324D01*
X90454736Y-135272022D01*
X90435203Y-135330618D01*
X90418137Y-135381812D01*
G37*
G36*
X91995129Y-140919394D02*
G01*
X91054664Y-140916534D01*
X90114199Y-140913674D01*
X90052433Y-140890611D01*
X89958542Y-140845834D01*
X89872932Y-140785838D01*
X89798178Y-140713267D01*
X89736854Y-140630769D01*
X89691534Y-140540991D01*
X89679605Y-140507310D01*
X89657614Y-140437418D01*
X89657614Y-139090725D01*
X90302788Y-139090725D01*
X90302788Y-140219051D01*
X90324926Y-140250086D01*
X90335135Y-140264139D01*
X90345172Y-140275940D01*
X90356769Y-140285685D01*
X90371659Y-140293571D01*
X90391578Y-140299795D01*
X90418257Y-140304553D01*
X90453432Y-140308043D01*
X90498835Y-140310460D01*
X90556199Y-140312002D01*
X90627260Y-140312866D01*
X90713750Y-140313247D01*
X90817402Y-140313343D01*
X90882463Y-140313346D01*
X91349955Y-140313346D01*
X91349955Y-139092478D01*
X91349955Y-137871611D01*
X90880963Y-137871626D01*
X90771365Y-137871680D01*
X90679838Y-137871876D01*
X90604604Y-137872276D01*
X90543882Y-137872940D01*
X90495894Y-137873930D01*
X90458860Y-137875308D01*
X90431001Y-137877135D01*
X90410536Y-137879473D01*
X90395687Y-137882382D01*
X90384674Y-137885925D01*
X90377937Y-137888996D01*
X90348865Y-137908656D01*
X90324533Y-137932799D01*
X90323345Y-137934374D01*
X90320183Y-137938888D01*
X90317363Y-137944059D01*
X90314866Y-137950989D01*
X90312671Y-137960778D01*
X90310760Y-137974531D01*
X90309113Y-137993347D01*
X90307710Y-138018329D01*
X90306531Y-138050578D01*
X90305558Y-138091197D01*
X90304769Y-138141286D01*
X90304147Y-138201949D01*
X90303671Y-138274286D01*
X90303321Y-138359399D01*
X90303079Y-138458390D01*
X90302924Y-138572362D01*
X90302837Y-138702414D01*
X90302799Y-138849650D01*
X90302789Y-139015172D01*
X90302788Y-139090725D01*
X89657614Y-139090725D01*
X89657614Y-139087515D01*
X89657614Y-137737613D01*
X89680820Y-137673096D01*
X89725461Y-137576246D01*
X89785473Y-137488370D01*
X89858479Y-137411857D01*
X89942102Y-137349094D01*
X90033966Y-137302468D01*
X90058891Y-137293289D01*
X90124125Y-137271103D01*
X91059627Y-137268330D01*
X91995129Y-137265558D01*
X91995129Y-139092477D01*
X91995129Y-139092478D01*
X91995129Y-140919394D01*
G37*
G36*
X104450838Y-134062603D02*
G01*
X104461154Y-134084991D01*
X104479038Y-134123769D01*
X104503737Y-134177305D01*
X104534496Y-134243967D01*
X104570563Y-134322121D01*
X104611184Y-134410136D01*
X104655606Y-134506378D01*
X104703075Y-134609215D01*
X104752838Y-134717014D01*
X104798954Y-134816907D01*
X105109386Y-135489323D01*
X105983141Y-135491858D01*
X106856897Y-135494393D01*
X108106010Y-137345546D01*
X108222970Y-137518892D01*
X108336967Y-137687875D01*
X108447505Y-137851757D01*
X108554089Y-138009803D01*
X108656221Y-138161277D01*
X108753407Y-138305443D01*
X108845151Y-138441564D01*
X108930957Y-138568905D01*
X109010329Y-138686730D01*
X109082771Y-138794302D01*
X109147788Y-138890887D01*
X109204884Y-138975746D01*
X109253563Y-139048146D01*
X109293329Y-139107349D01*
X109323687Y-139152620D01*
X109344141Y-139183222D01*
X109354194Y-139198420D01*
X109355196Y-139200035D01*
X109348253Y-139193790D01*
X109327724Y-139174040D01*
X109294102Y-139141274D01*
X109247883Y-139095980D01*
X109189559Y-139038646D01*
X109119625Y-138969762D01*
X109038576Y-138889816D01*
X108946904Y-138799296D01*
X108845105Y-138698691D01*
X108733671Y-138588491D01*
X108613098Y-138469182D01*
X108483879Y-138341255D01*
X108346509Y-138205198D01*
X108201481Y-138061499D01*
X108049290Y-137910646D01*
X107890429Y-137753130D01*
X107725392Y-137589437D01*
X107554674Y-137420058D01*
X107378769Y-137245479D01*
X107337087Y-137204104D01*
X106429671Y-136303342D01*
X105592177Y-136303041D01*
X104754684Y-136302739D01*
X104010252Y-135155803D01*
X103921314Y-135018763D01*
X103835293Y-134886194D01*
X103752816Y-134759060D01*
X103674507Y-134638326D01*
X103600993Y-134524959D01*
X103532899Y-134419922D01*
X103470850Y-134324181D01*
X103415471Y-134238702D01*
X103367388Y-134164449D01*
X103327227Y-134102387D01*
X103295613Y-134053482D01*
X103273171Y-134018698D01*
X103260527Y-133999002D01*
X103257883Y-133994791D01*
X103258390Y-133991800D01*
X103264479Y-133989254D01*
X103277541Y-133987119D01*
X103298973Y-133985360D01*
X103330167Y-133983943D01*
X103372517Y-133982835D01*
X103427418Y-133982001D01*
X103496263Y-133981406D01*
X103580446Y-133981017D01*
X103681360Y-133980799D01*
X103800401Y-133980718D01*
X103831550Y-133980716D01*
X104413154Y-133980716D01*
X104450838Y-134062603D01*
G37*
G36*
X102702379Y-134310747D02*
G01*
X102732345Y-134361073D01*
X102771619Y-134427047D01*
X102819358Y-134507255D01*
X102874722Y-134600283D01*
X102936870Y-134704717D01*
X103004960Y-134819144D01*
X103078151Y-134942150D01*
X103155602Y-135072321D01*
X103236472Y-135208243D01*
X103319919Y-135348503D01*
X103405102Y-135491686D01*
X103491181Y-135636379D01*
X103573522Y-135774795D01*
X104248112Y-136908813D01*
X105295458Y-136909103D01*
X106342804Y-136909394D01*
X107519006Y-138284897D01*
X107642258Y-138429034D01*
X107762636Y-138569812D01*
X107879455Y-138706428D01*
X107992026Y-138838077D01*
X108099662Y-138963957D01*
X108201676Y-139083263D01*
X108297381Y-139195191D01*
X108386089Y-139298939D01*
X108467114Y-139393701D01*
X108539769Y-139478676D01*
X108603365Y-139553058D01*
X108657216Y-139616045D01*
X108700635Y-139666832D01*
X108732935Y-139704615D01*
X108753428Y-139728592D01*
X108759725Y-139735963D01*
X108784286Y-139765609D01*
X108800463Y-139786935D01*
X108806560Y-139797564D01*
X108803256Y-139796922D01*
X108793416Y-139789190D01*
X108768972Y-139769587D01*
X108730724Y-139738762D01*
X108679473Y-139697364D01*
X108616020Y-139646041D01*
X108541166Y-139585444D01*
X108455710Y-139516220D01*
X108360456Y-139439020D01*
X108256202Y-139354492D01*
X108143750Y-139263285D01*
X108023900Y-139166048D01*
X107897454Y-139063431D01*
X107765212Y-138956082D01*
X107627975Y-138844650D01*
X107486544Y-138729785D01*
X107450382Y-138700411D01*
X106118494Y-137618504D01*
X104926365Y-137613541D01*
X103734236Y-137608578D01*
X102480357Y-135797128D01*
X102362164Y-135626368D01*
X102246988Y-135459947D01*
X102135338Y-135298602D01*
X102027721Y-135143066D01*
X101924645Y-134994074D01*
X101826618Y-134852362D01*
X101734147Y-134718663D01*
X101647742Y-134593712D01*
X101567910Y-134478244D01*
X101495158Y-134372994D01*
X101429995Y-134278695D01*
X101372928Y-134196084D01*
X101324466Y-134125894D01*
X101285116Y-134068860D01*
X101255386Y-134025717D01*
X101235785Y-133997199D01*
X101226819Y-133984042D01*
X101226279Y-133983197D01*
X101235893Y-133982768D01*
X101263705Y-133982362D01*
X101308060Y-133981986D01*
X101367302Y-133981647D01*
X101439779Y-133981350D01*
X101523836Y-133981103D01*
X101617817Y-133980911D01*
X101720070Y-133980781D01*
X101828939Y-133980720D01*
X101865953Y-133980716D01*
X102505827Y-133980716D01*
X102702379Y-134310747D01*
G37*
G36*
X94501382Y-134104788D02*
G01*
X94104351Y-134104788D01*
X94005102Y-134104762D01*
X93923700Y-134104617D01*
X93858142Y-134104253D01*
X93806425Y-134103569D01*
X93766546Y-134102466D01*
X93736499Y-134100843D01*
X93714282Y-134098600D01*
X93697892Y-134095636D01*
X93685324Y-134091852D01*
X93674575Y-134087147D01*
X93666346Y-134082870D01*
X93625659Y-134054507D01*
X93586706Y-134016058D01*
X93554869Y-133973681D01*
X93535527Y-133933531D01*
X93535368Y-133933004D01*
X93532551Y-133916520D01*
X93530158Y-133886721D01*
X93528172Y-133842706D01*
X93526573Y-133783573D01*
X93525345Y-133708418D01*
X93524469Y-133616341D01*
X93523928Y-133506438D01*
X93523704Y-133377808D01*
X93523695Y-133343603D01*
X93523708Y-133218132D01*
X93523779Y-133169961D01*
X93793531Y-133169961D01*
X93793756Y-133270218D01*
X93794163Y-133358680D01*
X93794771Y-133466857D01*
X93795385Y-133556907D01*
X93796083Y-133630555D01*
X93796943Y-133689524D01*
X93798044Y-133735540D01*
X93799464Y-133770328D01*
X93801282Y-133795611D01*
X93803576Y-133813113D01*
X93806424Y-133824561D01*
X93809904Y-133831677D01*
X93814095Y-133836187D01*
X93815920Y-133837598D01*
X93827196Y-133842697D01*
X93846763Y-133846479D01*
X93877081Y-133849106D01*
X93920607Y-133850738D01*
X93979799Y-133851534D01*
X94031805Y-133851681D01*
X94228423Y-133851681D01*
X94228423Y-133345266D01*
X94228423Y-132838851D01*
X94022749Y-132841534D01*
X93817075Y-132844217D01*
X93804374Y-132869031D01*
X93801280Y-132879375D01*
X93798751Y-132898148D01*
X93796758Y-132926821D01*
X93795271Y-132966868D01*
X93794257Y-133019758D01*
X93793688Y-133086966D01*
X93793531Y-133169961D01*
X93523779Y-133169961D01*
X93523865Y-133110883D01*
X93524342Y-133020229D01*
X93525313Y-132944539D01*
X93526955Y-132882185D01*
X93529443Y-132831539D01*
X93532952Y-132790971D01*
X93537659Y-132758852D01*
X93543739Y-132733555D01*
X93551366Y-132713449D01*
X93560718Y-132696906D01*
X93571969Y-132682297D01*
X93585295Y-132667993D01*
X93597877Y-132655367D01*
X93615953Y-132637819D01*
X93633216Y-132623281D01*
X93651663Y-132611469D01*
X93673289Y-132602102D01*
X93700090Y-132594896D01*
X93734062Y-132589568D01*
X93777201Y-132585835D01*
X93831503Y-132583413D01*
X93898964Y-132582021D01*
X93981578Y-132581375D01*
X94081343Y-132581192D01*
X94121070Y-132581185D01*
X94506468Y-132581185D01*
X94503925Y-133342986D01*
X94503917Y-133345266D01*
X94501382Y-134104788D01*
G37*
G36*
X95561038Y-132584819D02*
G01*
X95628108Y-132585998D01*
X95681624Y-132587763D01*
X95719468Y-132590065D01*
X95739240Y-132592771D01*
X95776322Y-132609866D01*
X95816382Y-132639212D01*
X95853345Y-132675394D01*
X95881137Y-132712995D01*
X95887230Y-132724724D01*
X95890815Y-132733552D01*
X95893899Y-132744076D01*
X95896519Y-132757771D01*
X95898715Y-132776109D01*
X95900524Y-132800566D01*
X95901984Y-132832615D01*
X95903133Y-132873731D01*
X95904010Y-132925388D01*
X95904652Y-132989060D01*
X95905099Y-133066221D01*
X95905387Y-133158346D01*
X95905555Y-133266908D01*
X95905641Y-133393382D01*
X95905657Y-133437281D01*
X95905875Y-134109750D01*
X95771878Y-134109750D01*
X95637880Y-134109750D01*
X95637880Y-133490929D01*
X95637856Y-133364557D01*
X95637756Y-133256550D01*
X95637538Y-133165421D01*
X95637159Y-133089685D01*
X95636576Y-133027855D01*
X95635747Y-132978445D01*
X95634630Y-132939968D01*
X95633182Y-132910938D01*
X95631361Y-132889869D01*
X95629124Y-132875274D01*
X95626429Y-132865667D01*
X95623233Y-132859561D01*
X95619729Y-132855681D01*
X95610939Y-132849913D01*
X95597293Y-132845644D01*
X95576023Y-132842662D01*
X95544364Y-132840751D01*
X95499551Y-132839698D01*
X95438818Y-132839287D01*
X95407863Y-132839254D01*
X95340551Y-132839407D01*
X95290288Y-132840025D01*
X95254274Y-132841351D01*
X95229709Y-132843627D01*
X95213790Y-132847095D01*
X95203719Y-132851997D01*
X95197723Y-132857406D01*
X95194348Y-132862497D01*
X95191466Y-132870728D01*
X95189037Y-132883573D01*
X95187024Y-132902512D01*
X95185388Y-132929020D01*
X95184092Y-132964574D01*
X95183097Y-133010652D01*
X95182364Y-133068731D01*
X95181856Y-133140287D01*
X95181535Y-133226798D01*
X95181362Y-133329741D01*
X95181299Y-133450592D01*
X95181296Y-133492654D01*
X95181296Y-134109750D01*
X95047298Y-134109750D01*
X94913300Y-134109750D01*
X94913518Y-133442244D01*
X94913577Y-133310755D01*
X94913688Y-133197625D01*
X94913895Y-133101359D01*
X94914241Y-133020463D01*
X94914768Y-132953445D01*
X94915520Y-132898810D01*
X94916539Y-132855066D01*
X94917868Y-132820717D01*
X94919550Y-132794272D01*
X94921628Y-132774235D01*
X94924145Y-132759114D01*
X94927143Y-132747415D01*
X94930666Y-132737645D01*
X94933955Y-132730071D01*
X94970948Y-132669642D01*
X95021378Y-132623387D01*
X95047298Y-132607571D01*
X95059263Y-132601547D01*
X95071917Y-132596752D01*
X95087598Y-132593031D01*
X95108643Y-132590228D01*
X95137389Y-132588187D01*
X95176176Y-132586753D01*
X95227340Y-132585771D01*
X95293220Y-132585083D01*
X95376152Y-132584535D01*
X95394699Y-132584430D01*
X95482529Y-132584280D01*
X95561038Y-132584819D01*
G37*
G36*
X96044836Y-136273564D02*
G01*
X95622673Y-136273564D01*
X95514703Y-136273442D01*
X95424907Y-136273040D01*
X95351609Y-136272309D01*
X95293131Y-136271199D01*
X95247797Y-136269659D01*
X95213931Y-136267639D01*
X95189857Y-136265088D01*
X95173897Y-136261957D01*
X95167848Y-136259917D01*
X95119121Y-136230786D01*
X95074470Y-136188232D01*
X95040274Y-136138550D01*
X95035896Y-136129713D01*
X95029043Y-136114329D01*
X95023697Y-136099376D01*
X95019672Y-136082254D01*
X95016784Y-136060361D01*
X95014845Y-136031095D01*
X95013671Y-135991856D01*
X95013077Y-135940042D01*
X95012875Y-135873051D01*
X95012873Y-135808605D01*
X95280553Y-135808605D01*
X95280643Y-135870048D01*
X95281186Y-135914841D01*
X95282590Y-135946186D01*
X95285263Y-135967284D01*
X95289612Y-135981338D01*
X95296047Y-135991547D01*
X95304974Y-136001115D01*
X95305107Y-136001248D01*
X95329661Y-136025802D01*
X95550769Y-136023130D01*
X95771878Y-136020458D01*
X95774572Y-135817248D01*
X95775149Y-135755126D01*
X95775199Y-135699367D01*
X95774758Y-135653166D01*
X95773860Y-135619720D01*
X95772542Y-135602224D01*
X95772199Y-135600834D01*
X95766845Y-135596467D01*
X95753177Y-135593270D01*
X95729046Y-135591147D01*
X95692304Y-135590003D01*
X95640802Y-135589743D01*
X95572391Y-135590270D01*
X95542801Y-135590640D01*
X95470522Y-135591662D01*
X95415477Y-135592723D01*
X95375047Y-135594107D01*
X95346615Y-135596099D01*
X95327564Y-135598983D01*
X95315277Y-135603044D01*
X95307136Y-135608567D01*
X95300525Y-135615835D01*
X95299511Y-135617083D01*
X95292492Y-135627548D01*
X95287437Y-135641026D01*
X95284033Y-135660700D01*
X95281963Y-135689754D01*
X95280913Y-135731374D01*
X95280567Y-135788743D01*
X95280553Y-135808605D01*
X95012873Y-135808605D01*
X95012873Y-135807054D01*
X95013025Y-135724851D01*
X95013499Y-135659978D01*
X95014445Y-135609915D01*
X95016009Y-135572140D01*
X95018340Y-135544134D01*
X95021588Y-135523375D01*
X95025900Y-135507344D01*
X95031322Y-135493744D01*
X95063897Y-135439285D01*
X95106086Y-135394539D01*
X95151029Y-135365579D01*
X95175290Y-135353157D01*
X95189594Y-135342969D01*
X95191221Y-135340194D01*
X95187026Y-135329816D01*
X95175133Y-135303794D01*
X95156578Y-135264309D01*
X95132398Y-135213543D01*
X95103629Y-135153677D01*
X95071308Y-135086894D01*
X95052261Y-135047734D01*
X95018452Y-134978223D01*
X94987614Y-134914585D01*
X94960780Y-134858970D01*
X94938984Y-134813530D01*
X94923259Y-134780417D01*
X94914639Y-134761782D01*
X94913300Y-134758471D01*
X94922653Y-134757232D01*
X94948431Y-134756506D01*
X94987215Y-134756323D01*
X95035585Y-134756714D01*
X95063022Y-134757147D01*
X95212744Y-134759887D01*
X95352570Y-135050215D01*
X95492396Y-135340544D01*
X95634618Y-135340544D01*
X95776841Y-135340544D01*
X95776841Y-135047734D01*
X95776841Y-134754924D01*
X95910838Y-134754924D01*
X96044836Y-134754924D01*
X96044836Y-135514244D01*
X96044836Y-135699367D01*
X96044836Y-136273564D01*
G37*
G36*
X97020071Y-137266837D02*
G01*
X97105998Y-137266929D01*
X97247175Y-137267174D01*
X97369804Y-137267577D01*
X97475187Y-137268161D01*
X97564626Y-137268953D01*
X97639424Y-137269977D01*
X97700884Y-137271258D01*
X97750308Y-137272821D01*
X97788998Y-137274691D01*
X97818257Y-137276893D01*
X97839387Y-137279451D01*
X97848586Y-137281142D01*
X97933692Y-137308899D01*
X98016957Y-137353277D01*
X98094435Y-137411158D01*
X98162182Y-137479424D01*
X98216252Y-137554957D01*
X98232052Y-137584224D01*
X98240491Y-137601036D01*
X98248176Y-137616228D01*
X98255141Y-137630756D01*
X98261422Y-137645574D01*
X98267053Y-137661636D01*
X98272071Y-137679897D01*
X98276511Y-137701312D01*
X98280409Y-137726835D01*
X98283798Y-137757421D01*
X98286716Y-137794025D01*
X98289198Y-137837600D01*
X98291278Y-137889103D01*
X98292992Y-137949487D01*
X98294376Y-138019707D01*
X98295465Y-138100718D01*
X98296294Y-138193474D01*
X98296899Y-138298929D01*
X98297315Y-138418040D01*
X98297578Y-138551760D01*
X98297722Y-138701043D01*
X98297784Y-138866845D01*
X98297799Y-139050120D01*
X98297802Y-139251823D01*
X98297809Y-139357992D01*
X98297982Y-140918816D01*
X97975554Y-140918816D01*
X97653126Y-140918816D01*
X97650485Y-139441586D01*
X97647845Y-137964356D01*
X97620288Y-137928229D01*
X97587087Y-137896636D01*
X97555771Y-137881301D01*
X97535071Y-137878285D01*
X97495756Y-137875936D01*
X97437604Y-137874250D01*
X97360392Y-137873224D01*
X97263898Y-137872854D01*
X97147901Y-137873137D01*
X97080313Y-137873537D01*
X96975494Y-137874291D01*
X96888689Y-137875029D01*
X96818061Y-137875846D01*
X96761772Y-137876833D01*
X96717985Y-137878084D01*
X96684862Y-137879691D01*
X96660566Y-137881747D01*
X96643260Y-137884346D01*
X96631106Y-137887580D01*
X96622268Y-137891543D01*
X96614906Y-137896326D01*
X96613802Y-137897131D01*
X96589755Y-137920649D01*
X96569437Y-137949809D01*
X96568435Y-137951722D01*
X96566070Y-137957211D01*
X96563930Y-137964588D01*
X96562003Y-137974814D01*
X96560278Y-137988850D01*
X96558743Y-138007657D01*
X96557388Y-138032193D01*
X96556202Y-138063420D01*
X96555173Y-138102298D01*
X96554291Y-138149788D01*
X96553544Y-138206849D01*
X96552921Y-138274443D01*
X96552411Y-138353528D01*
X96552003Y-138445067D01*
X96551685Y-138550019D01*
X96551448Y-138669345D01*
X96551279Y-138804004D01*
X96551167Y-138954958D01*
X96551101Y-139123166D01*
X96551071Y-139309590D01*
X96551065Y-139452287D01*
X96551049Y-140918816D01*
X96228315Y-140918816D01*
X95905580Y-140918816D01*
X95908209Y-139323252D01*
X95910838Y-137727687D01*
X95933991Y-137665921D01*
X95980655Y-137567857D01*
X96042224Y-137480596D01*
X96116744Y-137405934D01*
X96202262Y-137345663D01*
X96296825Y-137301578D01*
X96347682Y-137285963D01*
X96363587Y-137282085D01*
X96379781Y-137278751D01*
X96397813Y-137275921D01*
X96419234Y-137273558D01*
X96445591Y-137271621D01*
X96478435Y-137270073D01*
X96519314Y-137268874D01*
X96569777Y-137267985D01*
X96631373Y-137267368D01*
X96705651Y-137266984D01*
X96794161Y-137266793D01*
X96898451Y-137266757D01*
X97020071Y-137266837D01*
G37*
G36*
X97389775Y-136089938D02*
G01*
X97366570Y-136137059D01*
X97334512Y-136185616D01*
X97291902Y-136226909D01*
X97244555Y-136255717D01*
X97227406Y-136262045D01*
X97203033Y-136265991D01*
X97158993Y-136269112D01*
X97095246Y-136271408D01*
X97011754Y-136272880D01*
X96908478Y-136273530D01*
X96874647Y-136273564D01*
X96781060Y-136273474D01*
X96705021Y-136272960D01*
X96644227Y-136271657D01*
X96596376Y-136269202D01*
X96559164Y-136265229D01*
X96530288Y-136259375D01*
X96507445Y-136251276D01*
X96488332Y-136240566D01*
X96470646Y-136226882D01*
X96452085Y-136209858D01*
X96448127Y-136206081D01*
X96432817Y-136191596D01*
X96419732Y-136178606D01*
X96408699Y-136165506D01*
X96399543Y-136150693D01*
X96392089Y-136132564D01*
X96386163Y-136109514D01*
X96381591Y-136079942D01*
X96378197Y-136042242D01*
X96375808Y-135994812D01*
X96374249Y-135936049D01*
X96373345Y-135864348D01*
X96372921Y-135778106D01*
X96372804Y-135675720D01*
X96372818Y-135555586D01*
X96372822Y-135514244D01*
X96372819Y-135497606D01*
X96638771Y-135497606D01*
X96638915Y-135583927D01*
X96639526Y-135668292D01*
X96640605Y-135748277D01*
X96642152Y-135821461D01*
X96644166Y-135885421D01*
X96646648Y-135937733D01*
X96649597Y-135975977D01*
X96653014Y-135997729D01*
X96654452Y-136001191D01*
X96660579Y-136007772D01*
X96669851Y-136012742D01*
X96684991Y-136016385D01*
X96708727Y-136018985D01*
X96743782Y-136020827D01*
X96792884Y-136022195D01*
X96858756Y-136023372D01*
X96868703Y-136023526D01*
X96938800Y-136024385D01*
X96991836Y-136024421D01*
X97030591Y-136023476D01*
X97057844Y-136021393D01*
X97076376Y-136018017D01*
X97088964Y-136013190D01*
X97092850Y-136010890D01*
X97116817Y-135995186D01*
X97116817Y-135514578D01*
X97116817Y-135033971D01*
X97094484Y-135018116D01*
X97084218Y-135012663D01*
X97069203Y-135008708D01*
X97046688Y-135006090D01*
X97013921Y-135004651D01*
X96968150Y-135004231D01*
X96906621Y-135004671D01*
X96870338Y-135005146D01*
X96801783Y-135006251D01*
X96750366Y-135007519D01*
X96713374Y-135009230D01*
X96688093Y-135011661D01*
X96671809Y-135015092D01*
X96661810Y-135019800D01*
X96655382Y-135026063D01*
X96654453Y-135027298D01*
X96650856Y-135042062D01*
X96647727Y-135074250D01*
X96645065Y-135121438D01*
X96642872Y-135181205D01*
X96641145Y-135251127D01*
X96639886Y-135328784D01*
X96639095Y-135411751D01*
X96638771Y-135497606D01*
X96372819Y-135497606D01*
X96372802Y-135388249D01*
X96372860Y-135280501D01*
X96373169Y-135189397D01*
X96373905Y-135113334D01*
X96375241Y-135050708D01*
X96377353Y-134999916D01*
X96380415Y-134959355D01*
X96384601Y-134927420D01*
X96390086Y-134902509D01*
X96397044Y-134883018D01*
X96405651Y-134867343D01*
X96416080Y-134853881D01*
X96428506Y-134841028D01*
X96443104Y-134827181D01*
X96448127Y-134822408D01*
X96466943Y-134804840D01*
X96484428Y-134790620D01*
X96502854Y-134779394D01*
X96524494Y-134770809D01*
X96551621Y-134764510D01*
X96586507Y-134760144D01*
X96631425Y-134757357D01*
X96688648Y-134755795D01*
X96760448Y-134755103D01*
X96849098Y-134754929D01*
X96881463Y-134754924D01*
X97202589Y-134754924D01*
X97256411Y-134782220D01*
X97313367Y-134821449D01*
X97355686Y-134873068D01*
X97381681Y-134934906D01*
X97384468Y-134946817D01*
X97387245Y-134969730D01*
X97389492Y-135009446D01*
X97391213Y-135066435D01*
X97392416Y-135141166D01*
X97393107Y-135234110D01*
X97393292Y-135345738D01*
X97392979Y-135476518D01*
X97392659Y-135545051D01*
X97390277Y-135995186D01*
X97389775Y-136089938D01*
G37*
G36*
X98161740Y-132584311D02*
G01*
X98224095Y-132585059D01*
X98275535Y-132586219D01*
X98313356Y-132587741D01*
X98334855Y-132589575D01*
X98337749Y-132590188D01*
X98402629Y-132619832D01*
X98453928Y-132663879D01*
X98492378Y-132722980D01*
X98495694Y-132730071D01*
X98504154Y-132751617D01*
X98509940Y-132775120D01*
X98513538Y-132804871D01*
X98515431Y-132845163D01*
X98516103Y-132900288D01*
X98516130Y-132911216D01*
X98516348Y-133047695D01*
X98382351Y-133047695D01*
X98248353Y-133047695D01*
X98248353Y-132959902D01*
X98248267Y-132920722D01*
X98246388Y-132891090D01*
X98240288Y-132869676D01*
X98227537Y-132855146D01*
X98205705Y-132846169D01*
X98172362Y-132841414D01*
X98125080Y-132839548D01*
X98061428Y-132839239D01*
X98028262Y-132839254D01*
X97962854Y-132839421D01*
X97914409Y-132840098D01*
X97880041Y-132841544D01*
X97856863Y-132844023D01*
X97841988Y-132847797D01*
X97832530Y-132853125D01*
X97828047Y-132857406D01*
X97821082Y-132868423D01*
X97816340Y-132885647D01*
X97813438Y-132912534D01*
X97811992Y-132952536D01*
X97811620Y-133005583D01*
X97811913Y-133063476D01*
X97814045Y-133104996D01*
X97819890Y-133133621D01*
X97831326Y-133152828D01*
X97850229Y-133166097D01*
X97878474Y-133176904D01*
X97909004Y-133186099D01*
X97940907Y-133195462D01*
X97987114Y-133209017D01*
X98042879Y-133225371D01*
X98103458Y-133243133D01*
X98147882Y-133256156D01*
X98226969Y-133279980D01*
X98289643Y-133300576D01*
X98338817Y-133319244D01*
X98377408Y-133337283D01*
X98408328Y-133355993D01*
X98434493Y-133376675D01*
X98449043Y-133390493D01*
X98470437Y-133413458D01*
X98486885Y-133435970D01*
X98498971Y-133460962D01*
X98507283Y-133491363D01*
X98512405Y-133530105D01*
X98514923Y-133580117D01*
X98515423Y-133644330D01*
X98514603Y-133718562D01*
X98513367Y-133788890D01*
X98511930Y-133842399D01*
X98509992Y-133882121D01*
X98507251Y-133911088D01*
X98503407Y-133932332D01*
X98498158Y-133948886D01*
X98491204Y-133963780D01*
X98490050Y-133965957D01*
X98446443Y-134026988D01*
X98388723Y-134074136D01*
X98372555Y-134083452D01*
X98359748Y-134089778D01*
X98346022Y-134094761D01*
X98328865Y-134098598D01*
X98305768Y-134101483D01*
X98274219Y-134103612D01*
X98231710Y-134105180D01*
X98175728Y-134106382D01*
X98103764Y-134107413D01*
X98057269Y-134107969D01*
X97962622Y-134108792D01*
X97885426Y-134108573D01*
X97823292Y-134106895D01*
X97773828Y-134103341D01*
X97734647Y-134097492D01*
X97703356Y-134088932D01*
X97677566Y-134077242D01*
X97654887Y-134062005D01*
X97632928Y-134042802D01*
X97621742Y-134031854D01*
X97592156Y-133997843D01*
X97570690Y-133961343D01*
X97556244Y-133918537D01*
X97547718Y-133865606D01*
X97544013Y-133798732D01*
X97543625Y-133760548D01*
X97543625Y-133643240D01*
X97682585Y-133643240D01*
X97821546Y-133643240D01*
X97821546Y-133731034D01*
X97821685Y-133771003D01*
X97823760Y-133801006D01*
X97830259Y-133822470D01*
X97843669Y-133836823D01*
X97866477Y-133845493D01*
X97901171Y-133849908D01*
X97950239Y-133851496D01*
X98016166Y-133851685D01*
X98031711Y-133851681D01*
X98100750Y-133851749D01*
X98152452Y-133850698D01*
X98189313Y-133846649D01*
X98213833Y-133837720D01*
X98228510Y-133822032D01*
X98235843Y-133797704D01*
X98238330Y-133762857D01*
X98238470Y-133715608D01*
X98238427Y-133696107D01*
X98238021Y-133643958D01*
X98236491Y-133607997D01*
X98233364Y-133584574D01*
X98228172Y-133570036D01*
X98221057Y-133561272D01*
X98206890Y-133554260D01*
X98176461Y-133542947D01*
X98132655Y-133528277D01*
X98078354Y-133511194D01*
X98016444Y-133492642D01*
X97973638Y-133480286D01*
X97888201Y-133455774D01*
X97819533Y-133435445D01*
X97765222Y-133418377D01*
X97722853Y-133403650D01*
X97690012Y-133390341D01*
X97664285Y-133377529D01*
X97643259Y-133364293D01*
X97624518Y-133349712D01*
X97618943Y-133344904D01*
X97596656Y-133324468D01*
X97579256Y-133305115D01*
X97566139Y-133284109D01*
X97556703Y-133258716D01*
X97550345Y-133226199D01*
X97546462Y-133183824D01*
X97544452Y-133128855D01*
X97543711Y-133058557D01*
X97543625Y-133003106D01*
X97543947Y-132921115D01*
X97544989Y-132856822D01*
X97546859Y-132808080D01*
X97549668Y-132772746D01*
X97553524Y-132748673D01*
X97557272Y-132736475D01*
X97583684Y-132691615D01*
X97622282Y-132648320D01*
X97666259Y-132613920D01*
X97676682Y-132607896D01*
X97689069Y-132601690D01*
X97702016Y-132596769D01*
X97717918Y-132592968D01*
X97739166Y-132590117D01*
X97768155Y-132588051D01*
X97807276Y-132586603D01*
X97858924Y-132585603D01*
X97925492Y-132584887D01*
X98009372Y-132584285D01*
X98015098Y-132584249D01*
X98091173Y-132584024D01*
X98161740Y-132584311D01*
G37*
G36*
X93949319Y-137266852D02*
G01*
X93960428Y-137266859D01*
X94094064Y-137266961D01*
X94209382Y-137267135D01*
X94307918Y-137267421D01*
X94391206Y-137267857D01*
X94460780Y-137268482D01*
X94518175Y-137269334D01*
X94564926Y-137270453D01*
X94602566Y-137271877D01*
X94632631Y-137273646D01*
X94656654Y-137275797D01*
X94676171Y-137278369D01*
X94692715Y-137281403D01*
X94707822Y-137284935D01*
X94711341Y-137285845D01*
X94784753Y-137309148D01*
X94847863Y-137339327D01*
X94909964Y-137381002D01*
X94923226Y-137391237D01*
X94998500Y-137462801D01*
X95061241Y-137548558D01*
X95109872Y-137646146D01*
X95128310Y-137698334D01*
X95130908Y-137707477D01*
X95133248Y-137717884D01*
X95135343Y-137730586D01*
X95137207Y-137746615D01*
X95138852Y-137767002D01*
X95140293Y-137792778D01*
X95141543Y-137824974D01*
X95142615Y-137864621D01*
X95143524Y-137912751D01*
X95144282Y-137970394D01*
X95144902Y-138038583D01*
X95145400Y-138118347D01*
X95145787Y-138210718D01*
X95146078Y-138316728D01*
X95146285Y-138437408D01*
X95146423Y-138573788D01*
X95146505Y-138726901D01*
X95146545Y-138897776D01*
X95146555Y-139087446D01*
X95146555Y-139092478D01*
X95146546Y-139282633D01*
X95146507Y-139453969D01*
X95146426Y-139607516D01*
X95146290Y-139744306D01*
X95146084Y-139865371D01*
X95145796Y-139971742D01*
X95145411Y-140064450D01*
X95144917Y-140144528D01*
X95144300Y-140213007D01*
X95143545Y-140270919D01*
X95142641Y-140319294D01*
X95141573Y-140359165D01*
X95140327Y-140391563D01*
X95138891Y-140417520D01*
X95137250Y-140438066D01*
X95135392Y-140454235D01*
X95133302Y-140467056D01*
X95130968Y-140477563D01*
X95128375Y-140486786D01*
X95128295Y-140487046D01*
X95088800Y-140585872D01*
X95034729Y-140675342D01*
X94968091Y-140753509D01*
X94890895Y-140818428D01*
X94805153Y-140868152D01*
X94712872Y-140900735D01*
X94697487Y-140904259D01*
X94680532Y-140907154D01*
X94658023Y-140909648D01*
X94628551Y-140911768D01*
X94590709Y-140913541D01*
X94543090Y-140914995D01*
X94484284Y-140916155D01*
X94412884Y-140917048D01*
X94327482Y-140917702D01*
X94226671Y-140918143D01*
X94109042Y-140918399D01*
X93973186Y-140918495D01*
X93950502Y-140918497D01*
X93811174Y-140918488D01*
X93690151Y-140918374D01*
X93585890Y-140918047D01*
X93496843Y-140917397D01*
X93421467Y-140916315D01*
X93358215Y-140914691D01*
X93305542Y-140912415D01*
X93261903Y-140909379D01*
X93225753Y-140905472D01*
X93195545Y-140900586D01*
X93169735Y-140894610D01*
X93146777Y-140887435D01*
X93125126Y-140878953D01*
X93103237Y-140869052D01*
X93079563Y-140857624D01*
X93077561Y-140856648D01*
X93022749Y-140823255D01*
X92965021Y-140776812D01*
X92909438Y-140722356D01*
X92861064Y-140664926D01*
X92824959Y-140609557D01*
X92820420Y-140600742D01*
X92804736Y-140568358D01*
X92791834Y-140539463D01*
X92781416Y-140511703D01*
X92773187Y-140482724D01*
X92766851Y-140450170D01*
X92762110Y-140411687D01*
X92758670Y-140364920D01*
X92756233Y-140307515D01*
X92754503Y-140237117D01*
X92753183Y-140151370D01*
X92752087Y-140057757D01*
X92747997Y-139688023D01*
X93075843Y-139688023D01*
X93403688Y-139688023D01*
X93406618Y-139960199D01*
X93409549Y-140232374D01*
X93434363Y-140258914D01*
X93446291Y-140271548D01*
X93457578Y-140282058D01*
X93470076Y-140290640D01*
X93485636Y-140297490D01*
X93506109Y-140302803D01*
X93533348Y-140306773D01*
X93569203Y-140309597D01*
X93615527Y-140311469D01*
X93674169Y-140312584D01*
X93746983Y-140313139D01*
X93835819Y-140313328D01*
X93942528Y-140313346D01*
X93950502Y-140313346D01*
X94059013Y-140313336D01*
X94149511Y-140313167D01*
X94223834Y-140312625D01*
X94283821Y-140311499D01*
X94331310Y-140309577D01*
X94368139Y-140306647D01*
X94396147Y-140302496D01*
X94417172Y-140296913D01*
X94433053Y-140289686D01*
X94445627Y-140280603D01*
X94456734Y-140269452D01*
X94468210Y-140256020D01*
X94470422Y-140253386D01*
X94496419Y-140222491D01*
X94496419Y-139095729D01*
X94496450Y-138918634D01*
X94496501Y-138760311D01*
X94496507Y-138619684D01*
X94496406Y-138495675D01*
X94496132Y-138387206D01*
X94495621Y-138293198D01*
X94494811Y-138212575D01*
X94493636Y-138144258D01*
X94492032Y-138087170D01*
X94489937Y-138040232D01*
X94487285Y-138002366D01*
X94484012Y-137972495D01*
X94480056Y-137949542D01*
X94475351Y-137932427D01*
X94469833Y-137920073D01*
X94463439Y-137911403D01*
X94456105Y-137905338D01*
X94447767Y-137900801D01*
X94438360Y-137896713D01*
X94427821Y-137891997D01*
X94424852Y-137890517D01*
X94415027Y-137885979D01*
X94403615Y-137882229D01*
X94388739Y-137879192D01*
X94368526Y-137876793D01*
X94341100Y-137874959D01*
X94304587Y-137873614D01*
X94257111Y-137872684D01*
X94196797Y-137872093D01*
X94121770Y-137871767D01*
X94030156Y-137871632D01*
X93950502Y-137871611D01*
X93845495Y-137871650D01*
X93758458Y-137871818D01*
X93687511Y-137872192D01*
X93630773Y-137872849D01*
X93586363Y-137873864D01*
X93552399Y-137875315D01*
X93527001Y-137877278D01*
X93508288Y-137879830D01*
X93494379Y-137883047D01*
X93483394Y-137887006D01*
X93475037Y-137890967D01*
X93455879Y-137901544D01*
X93440545Y-137913105D01*
X93428611Y-137927862D01*
X93419653Y-137948024D01*
X93413245Y-137975803D01*
X93408963Y-138013408D01*
X93406382Y-138063052D01*
X93405078Y-138126943D01*
X93404625Y-138207294D01*
X93404586Y-138257734D01*
X93404586Y-138536636D01*
X93076322Y-138536636D01*
X92748057Y-138536636D01*
X92751643Y-138147050D01*
X92755228Y-137757464D01*
X92781912Y-137678058D01*
X92825608Y-137578561D01*
X92885803Y-137488878D01*
X92960699Y-137411117D01*
X93048500Y-137347387D01*
X93077758Y-137330966D01*
X93100773Y-137319013D01*
X93122200Y-137308636D01*
X93143562Y-137299724D01*
X93166382Y-137292169D01*
X93192183Y-137285857D01*
X93222490Y-137280680D01*
X93258824Y-137276525D01*
X93302710Y-137273284D01*
X93355671Y-137270844D01*
X93419230Y-137269096D01*
X93494911Y-137267928D01*
X93584237Y-137267231D01*
X93688731Y-137266893D01*
X93809918Y-137266804D01*
X93949319Y-137266852D01*
G37*
G36*
X102967975Y-132581831D02*
G01*
X102989990Y-132581838D01*
X103229587Y-132581930D01*
X103450120Y-132582049D01*
X103652379Y-132582201D01*
X103837153Y-132582392D01*
X104005229Y-132582627D01*
X104157396Y-132582912D01*
X104294444Y-132583253D01*
X104417159Y-132583655D01*
X104526332Y-132584125D01*
X104622750Y-132584667D01*
X104707202Y-132585289D01*
X104780477Y-132585994D01*
X104843362Y-132586791D01*
X104896648Y-132587683D01*
X104941121Y-132588677D01*
X104977572Y-132589778D01*
X105006788Y-132590993D01*
X105029557Y-132592326D01*
X105046669Y-132593785D01*
X105058912Y-132595373D01*
X105066582Y-132596963D01*
X105160406Y-132632039D01*
X105252704Y-132686025D01*
X105342122Y-132757980D01*
X105427303Y-132846962D01*
X105428192Y-132848010D01*
X105452730Y-132878056D01*
X105486306Y-132920760D01*
X105526304Y-132972709D01*
X105570109Y-133030490D01*
X105615103Y-133090691D01*
X105638337Y-133122138D01*
X105699374Y-133204777D01*
X105751014Y-133273804D01*
X105795342Y-133331804D01*
X105834444Y-133381359D01*
X105870403Y-133425055D01*
X105905304Y-133465473D01*
X105941233Y-133505198D01*
X105980273Y-133546813D01*
X105985106Y-133551888D01*
X106111027Y-133674275D01*
X106243710Y-133783682D01*
X106385575Y-133881614D01*
X106539037Y-133969577D01*
X106706514Y-134049076D01*
X106890424Y-134121614D01*
X106913535Y-134129860D01*
X107066630Y-134186782D01*
X107200247Y-134242609D01*
X107314716Y-134297536D01*
X107410369Y-134351757D01*
X107487537Y-134405467D01*
X107546552Y-134458860D01*
X107587744Y-134512130D01*
X107598731Y-134532254D01*
X107616940Y-134587777D01*
X107619662Y-134643534D01*
X107606902Y-134694153D01*
X107598557Y-134710024D01*
X107562270Y-134750079D01*
X107510884Y-134777300D01*
X107444442Y-134791687D01*
X107362991Y-134793238D01*
X107266575Y-134781955D01*
X107155240Y-134757835D01*
X107029030Y-134720879D01*
X107012792Y-134715550D01*
X106940209Y-134690721D01*
X106869926Y-134664958D01*
X106799169Y-134637049D01*
X106725167Y-134605783D01*
X106645146Y-134569949D01*
X106556336Y-134528334D01*
X106455963Y-134479728D01*
X106341255Y-134422919D01*
X106327915Y-134416253D01*
X106216174Y-134360064D01*
X106119201Y-134310431D01*
X106033806Y-134265451D01*
X105956799Y-134223220D01*
X105884988Y-134181837D01*
X105815183Y-134139398D01*
X105744194Y-134093999D01*
X105668829Y-134043738D01*
X105585899Y-133986712D01*
X105492213Y-133921018D01*
X105463035Y-133900398D01*
X105360827Y-133829115D01*
X105271287Y-133769163D01*
X105191836Y-133719155D01*
X105119899Y-133677706D01*
X105052897Y-133643430D01*
X104988253Y-133614943D01*
X104923391Y-133590857D01*
X104855733Y-133569788D01*
X104839785Y-133565300D01*
X104744758Y-133539020D01*
X102878716Y-133539020D01*
X101012675Y-133539020D01*
X100923713Y-133566884D01*
X100809220Y-133610704D01*
X100710611Y-133665793D01*
X100626907Y-133732941D01*
X100557129Y-133812941D01*
X100500299Y-133906586D01*
X100497768Y-133911664D01*
X100464401Y-133987319D01*
X100441731Y-134059862D01*
X100428304Y-134135905D01*
X100422666Y-134222060D01*
X100422265Y-134254883D01*
X100423618Y-134313586D01*
X100428356Y-134369936D01*
X100437211Y-134425529D01*
X100450918Y-134481966D01*
X100470210Y-134540843D01*
X100495821Y-134603761D01*
X100528485Y-134672318D01*
X100568934Y-134748111D01*
X100617904Y-134832740D01*
X100676126Y-134927803D01*
X100744336Y-135034900D01*
X100823266Y-135155627D01*
X100863570Y-135216472D01*
X101052620Y-135495462D01*
X101247861Y-135773053D01*
X101448190Y-136047942D01*
X101652502Y-136318828D01*
X101859693Y-136584406D01*
X102068659Y-136843375D01*
X102278295Y-137094432D01*
X102487497Y-137336275D01*
X102695161Y-137567601D01*
X102900182Y-137787107D01*
X103101457Y-137993490D01*
X103297881Y-138185449D01*
X103488349Y-138361681D01*
X103647962Y-138500865D01*
X103729843Y-138571041D01*
X103797573Y-138631635D01*
X103852950Y-138684882D01*
X103897776Y-138733016D01*
X103933849Y-138778274D01*
X103962970Y-138822889D01*
X103986938Y-138869098D01*
X104007552Y-138919134D01*
X104024444Y-138968406D01*
X104056337Y-139098768D01*
X104070124Y-139234515D01*
X104065783Y-139376271D01*
X104043291Y-139524662D01*
X104002627Y-139680312D01*
X103998623Y-139692986D01*
X103939472Y-139849665D01*
X103864694Y-140000837D01*
X103775805Y-140145120D01*
X103674317Y-140281130D01*
X103561743Y-140407484D01*
X103439597Y-140522799D01*
X103309393Y-140625691D01*
X103172642Y-140714778D01*
X103030860Y-140788675D01*
X102885559Y-140846000D01*
X102738252Y-140885369D01*
X102683484Y-140895117D01*
X102561058Y-140906713D01*
X102427399Y-140906339D01*
X102286871Y-140894305D01*
X102143836Y-140870925D01*
X102052565Y-140850041D01*
X101905303Y-140805517D01*
X101750907Y-140746041D01*
X101592867Y-140673429D01*
X101434671Y-140589499D01*
X101279807Y-140496068D01*
X101131763Y-140394956D01*
X101029631Y-140317039D01*
X100967593Y-140265061D01*
X100899687Y-140204309D01*
X100830093Y-140138824D01*
X100762991Y-140072647D01*
X100702558Y-140009819D01*
X100652976Y-139954382D01*
X100646017Y-139946093D01*
X100574856Y-139854289D01*
X100514501Y-139763934D01*
X100466010Y-139677120D01*
X100430440Y-139595940D01*
X100408850Y-139522488D01*
X100402241Y-139463654D01*
X100411120Y-139418378D01*
X100436437Y-139382065D01*
X100476215Y-139356267D01*
X100528476Y-139342535D01*
X100558990Y-139340677D01*
X100594184Y-139343556D01*
X100641585Y-139351337D01*
X100694585Y-139362598D01*
X100746573Y-139375918D01*
X100790940Y-139389876D01*
X100795393Y-139391509D01*
X100849511Y-139420198D01*
X100906254Y-139465700D01*
X100963354Y-139525590D01*
X101018541Y-139597442D01*
X101069547Y-139678831D01*
X101077392Y-139692986D01*
X101111230Y-139752588D01*
X101140005Y-139796173D01*
X101166254Y-139826061D01*
X101192512Y-139844573D01*
X101221318Y-139854032D01*
X101255208Y-139856759D01*
X101256356Y-139856761D01*
X101285962Y-139853785D01*
X101309735Y-139842077D01*
X101332334Y-139821971D01*
X101354575Y-139796000D01*
X101361405Y-139776992D01*
X101359892Y-139769861D01*
X101356342Y-139752919D01*
X101352639Y-139721332D01*
X101349321Y-139680291D01*
X101347686Y-139652220D01*
X101346383Y-139587657D01*
X101350379Y-139538777D01*
X101360581Y-139501907D01*
X101377891Y-139473369D01*
X101396241Y-139455093D01*
X101418243Y-139439942D01*
X101442794Y-139432325D01*
X101477830Y-139429988D01*
X101484803Y-139429954D01*
X101510224Y-139430708D01*
X101534720Y-139433621D01*
X101560489Y-139439668D01*
X101589730Y-139449822D01*
X101624643Y-139465058D01*
X101667426Y-139486351D01*
X101720278Y-139514675D01*
X101785398Y-139551005D01*
X101864985Y-139596315D01*
X101881361Y-139605697D01*
X101963815Y-139652476D01*
X102031235Y-139689572D01*
X102085389Y-139717879D01*
X102128044Y-139738289D01*
X102160968Y-139751694D01*
X102184097Y-139758589D01*
X102222230Y-139764381D01*
X102277021Y-139768683D01*
X102345320Y-139771306D01*
X102412206Y-139772079D01*
X102475379Y-139771911D01*
X102522598Y-139771040D01*
X102557761Y-139769064D01*
X102584761Y-139765581D01*
X102607495Y-139760189D01*
X102629860Y-139752486D01*
X102639692Y-139748621D01*
X102708833Y-139711573D01*
X102762604Y-139662448D01*
X102800941Y-139601807D01*
X102823778Y-139530217D01*
X102831051Y-139448240D01*
X102822696Y-139356441D01*
X102798648Y-139255385D01*
X102758842Y-139145634D01*
X102718800Y-139058343D01*
X102692595Y-139011014D01*
X102653966Y-138949274D01*
X102603416Y-138873782D01*
X102541442Y-138785197D01*
X102468546Y-138684176D01*
X102385226Y-138571380D01*
X102291983Y-138447466D01*
X102189316Y-138313094D01*
X102077725Y-138168922D01*
X101957710Y-138015610D01*
X101829770Y-137853816D01*
X101694405Y-137684198D01*
X101552116Y-137507416D01*
X101403402Y-137324128D01*
X101400634Y-137320731D01*
X101357214Y-137267454D01*
X101315467Y-137216290D01*
X101274398Y-137166030D01*
X101233007Y-137115461D01*
X101190296Y-137063372D01*
X101145269Y-137008553D01*
X101096925Y-136949793D01*
X101044269Y-136885880D01*
X100986301Y-136815603D01*
X100922023Y-136737751D01*
X100850438Y-136651114D01*
X100770547Y-136554479D01*
X100681353Y-136446637D01*
X100581857Y-136326375D01*
X100471061Y-136192483D01*
X100427269Y-136139567D01*
X100307346Y-135994648D01*
X100199378Y-135864107D01*
X100102660Y-135747031D01*
X100016485Y-135642507D01*
X99940149Y-135549622D01*
X99872946Y-135467464D01*
X99814171Y-135395119D01*
X99763118Y-135331676D01*
X99719082Y-135276221D01*
X99681356Y-135227842D01*
X99649237Y-135185626D01*
X99622017Y-135148660D01*
X99598992Y-135116032D01*
X99579457Y-135086828D01*
X99562705Y-135060136D01*
X99548031Y-135035044D01*
X99534730Y-135010638D01*
X99522096Y-134986006D01*
X99509424Y-134960235D01*
X99498962Y-134938551D01*
X99430383Y-134773793D01*
X99380296Y-134604290D01*
X99348607Y-134431644D01*
X99335218Y-134257456D01*
X99340034Y-134083327D01*
X99362959Y-133910859D01*
X99403895Y-133741654D01*
X99462748Y-133577313D01*
X99539421Y-133419436D01*
X99595791Y-133325616D01*
X99699146Y-133184078D01*
X99816296Y-133056601D01*
X99946736Y-132943476D01*
X100089965Y-132844991D01*
X100245479Y-132761436D01*
X100412775Y-132693102D01*
X100591350Y-132640277D01*
X100780700Y-132603251D01*
X100870842Y-132591651D01*
X100894224Y-132590214D01*
X100936876Y-132588891D01*
X100998843Y-132587681D01*
X101080170Y-132586586D01*
X101180901Y-132585603D01*
X101301080Y-132584734D01*
X101440751Y-132583978D01*
X101599960Y-132583334D01*
X101778750Y-132582804D01*
X101977165Y-132582385D01*
X102195251Y-132582079D01*
X102433052Y-132581885D01*
X102690612Y-132581802D01*
X102967975Y-132581831D01*
G37*
D12*
%TO.C,TR1*%
X83655000Y-50180000D02*
X95655000Y-50180000D01*
X83655000Y-65680000D02*
X83655000Y-50180000D01*
X95655000Y-50180000D02*
X95655000Y-65680000D01*
X95655000Y-65680000D02*
X83655000Y-65680000D01*
D14*
X94927030Y-53231000D02*
G75*
G02*
X94187370Y-53231000I-369830J0D01*
G01*
X94187370Y-53231000D02*
G75*
G02*
X94927030Y-53231000I369830J0D01*
G01*
D12*
%TO.C,Q14*%
X60182500Y-63335000D02*
X59532500Y-63335000D01*
X60182500Y-63335000D02*
X60832500Y-63335000D01*
X60182500Y-66455000D02*
X59532500Y-66455000D01*
X60182500Y-66455000D02*
X60832500Y-66455000D01*
X61585000Y-66735000D02*
X61105000Y-66735000D01*
X61345000Y-66405000D01*
X61585000Y-66735000D01*
G36*
X61585000Y-66735000D02*
G01*
X61105000Y-66735000D01*
X61345000Y-66405000D01*
X61585000Y-66735000D01*
G37*
%TO.C,J5*%
X38560000Y-122525000D02*
X38560000Y-123025000D01*
X38850000Y-111915000D02*
X44570000Y-111915000D01*
X38850000Y-112985000D02*
X38850000Y-111915000D01*
X38850000Y-122815000D02*
X38850000Y-123885000D01*
X38850000Y-123885000D02*
X44570000Y-123885000D01*
X38860000Y-122525000D02*
X38560000Y-122525000D01*
X39150000Y-112985000D02*
X38850000Y-112985000D01*
X39150000Y-117900000D02*
X39150000Y-112985000D01*
X39150000Y-117900000D02*
X39150000Y-122815000D01*
X39150000Y-122815000D02*
X38850000Y-122815000D01*
X44570000Y-111915000D02*
X44570000Y-117900000D01*
X44570000Y-123885000D02*
X44570000Y-117900000D01*
%TO.C,R59*%
X64297064Y-67765000D02*
X63842936Y-67765000D01*
X64297064Y-69235000D02*
X63842936Y-69235000D01*
%TO.C,Q5*%
X60742500Y-114410000D02*
X60092500Y-114410000D01*
X60742500Y-114410000D02*
X61392500Y-114410000D01*
X60742500Y-117530000D02*
X60092500Y-117530000D01*
X60742500Y-117530000D02*
X61392500Y-117530000D01*
X62145000Y-117810000D02*
X61665000Y-117810000D01*
X61905000Y-117480000D01*
X62145000Y-117810000D01*
G36*
X62145000Y-117810000D02*
G01*
X61665000Y-117810000D01*
X61905000Y-117480000D01*
X62145000Y-117810000D01*
G37*
%TO.C,R49*%
X52077936Y-80357500D02*
X56432064Y-80357500D01*
X52077936Y-83777500D02*
X56432064Y-83777500D01*
%TO.C,F18*%
X72757936Y-41250000D02*
X73962064Y-41250000D01*
X72757936Y-43070000D02*
X73962064Y-43070000D01*
%TO.C,R63*%
X64507064Y-61905000D02*
X64052936Y-61905000D01*
X64507064Y-63375000D02*
X64052936Y-63375000D01*
%TO.C,R23*%
X65087064Y-118715000D02*
X64632936Y-118715000D01*
X65087064Y-120185000D02*
X64632936Y-120185000D01*
%TO.C,C25*%
X68734420Y-52400000D02*
X69015580Y-52400000D01*
X68734420Y-53420000D02*
X69015580Y-53420000D01*
%TO.C,F7*%
X67917936Y-61540000D02*
X69122064Y-61540000D01*
X67917936Y-63360000D02*
X69122064Y-63360000D01*
%TO.C,C7*%
X92445000Y-116870580D02*
X92445000Y-116589420D01*
X93465000Y-116870580D02*
X93465000Y-116589420D01*
%TO.C,D4*%
X88125000Y-107707500D02*
X88125000Y-110167500D01*
X88125000Y-110167500D02*
X89595000Y-110167500D01*
X89595000Y-110167500D02*
X89595000Y-107707500D01*
%TO.C,C3*%
X96435580Y-103170000D02*
X96154420Y-103170000D01*
X96435580Y-104190000D02*
X96154420Y-104190000D01*
%TO.C,R53*%
X52002936Y-74365000D02*
X56357064Y-74365000D01*
X52002936Y-77785000D02*
X56357064Y-77785000D01*
%TO.C,Q16*%
X60207500Y-51775000D02*
X59557500Y-51775000D01*
X60207500Y-51775000D02*
X60857500Y-51775000D01*
X60207500Y-54895000D02*
X59557500Y-54895000D01*
X60207500Y-54895000D02*
X60857500Y-54895000D01*
X61610000Y-55175000D02*
X61130000Y-55175000D01*
X61370000Y-54845000D01*
X61610000Y-55175000D01*
G36*
X61610000Y-55175000D02*
G01*
X61130000Y-55175000D01*
X61370000Y-54845000D01*
X61610000Y-55175000D01*
G37*
%TO.C,Q2*%
X61040000Y-130905000D02*
X60390000Y-130905000D01*
X61040000Y-130905000D02*
X61690000Y-130905000D01*
X61040000Y-134025000D02*
X60390000Y-134025000D01*
X61040000Y-134025000D02*
X61690000Y-134025000D01*
X62442500Y-134305000D02*
X61962500Y-134305000D01*
X62202500Y-133975000D01*
X62442500Y-134305000D01*
G36*
X62442500Y-134305000D02*
G01*
X61962500Y-134305000D01*
X62202500Y-133975000D01*
X62442500Y-134305000D01*
G37*
%TO.C,Q4*%
X60795000Y-120025000D02*
X60145000Y-120025000D01*
X60795000Y-120025000D02*
X61445000Y-120025000D01*
X60795000Y-123145000D02*
X60145000Y-123145000D01*
X60795000Y-123145000D02*
X61445000Y-123145000D01*
X62197500Y-123425000D02*
X61717500Y-123425000D01*
X61957500Y-123095000D01*
X62197500Y-123425000D01*
G36*
X62197500Y-123425000D02*
G01*
X61717500Y-123425000D01*
X61957500Y-123095000D01*
X62197500Y-123425000D01*
G37*
%TO.C,J2*%
X105370000Y-49070000D02*
X105370000Y-54790000D01*
X105370000Y-54790000D02*
X107605000Y-54790000D01*
X106440000Y-49070000D02*
X105370000Y-49070000D01*
X106440000Y-49370000D02*
X106440000Y-49070000D01*
X106730000Y-48780000D02*
X106230000Y-48780000D01*
X106730000Y-49080000D02*
X106730000Y-48780000D01*
X107605000Y-49370000D02*
X106440000Y-49370000D01*
X107605000Y-49370000D02*
X108770000Y-49370000D01*
X108770000Y-49070000D02*
X109840000Y-49070000D01*
X108770000Y-49370000D02*
X108770000Y-49070000D01*
X109840000Y-49070000D02*
X109840000Y-54790000D01*
X109840000Y-54790000D02*
X107605000Y-54790000D01*
%TO.C,D11*%
X70990000Y-98090000D02*
X70990000Y-100750000D01*
X72690000Y-98090000D02*
X70990000Y-98090000D01*
X72690000Y-98090000D02*
X72690000Y-100750000D01*
%TO.C,F15*%
X68177936Y-84960000D02*
X69382064Y-84960000D01*
X68177936Y-86780000D02*
X69382064Y-86780000D01*
%TO.C,F5*%
X68107936Y-55730000D02*
X69312064Y-55730000D01*
X68107936Y-57550000D02*
X69312064Y-57550000D01*
%TO.C,R15*%
X65164564Y-129775000D02*
X64710436Y-129775000D01*
X65164564Y-131245000D02*
X64710436Y-131245000D01*
%TO.C,R69*%
X51892936Y-51700000D02*
X56247064Y-51700000D01*
X51892936Y-55120000D02*
X56247064Y-55120000D01*
%TO.C,Q11*%
X60305000Y-80320000D02*
X59655000Y-80320000D01*
X60305000Y-80320000D02*
X60955000Y-80320000D01*
X60305000Y-83440000D02*
X59655000Y-83440000D01*
X60305000Y-83440000D02*
X60955000Y-83440000D01*
X61707500Y-83720000D02*
X61227500Y-83720000D01*
X61467500Y-83390000D01*
X61707500Y-83720000D01*
G36*
X61707500Y-83720000D02*
G01*
X61227500Y-83720000D01*
X61467500Y-83390000D01*
X61707500Y-83720000D01*
G37*
%TO.C,R65*%
X51827936Y-57645000D02*
X56182064Y-57645000D01*
X51827936Y-61065000D02*
X56182064Y-61065000D01*
%TO.C,C6*%
X94145000Y-116870580D02*
X94145000Y-116589420D01*
X95165000Y-116870580D02*
X95165000Y-116589420D01*
%TO.C,C18*%
X68794420Y-93140000D02*
X69075580Y-93140000D01*
X68794420Y-94160000D02*
X69075580Y-94160000D01*
%TO.C,R51*%
X64674564Y-79545000D02*
X64220436Y-79545000D01*
X64674564Y-81015000D02*
X64220436Y-81015000D01*
%TO.C,C11*%
X69774420Y-131540000D02*
X70055580Y-131540000D01*
X69774420Y-132560000D02*
X70055580Y-132560000D01*
%TO.C,F11*%
X68047936Y-72820000D02*
X69252064Y-72820000D01*
X68047936Y-74640000D02*
X69252064Y-74640000D01*
%TO.C,D2*%
X59815000Y-45450000D02*
X59815000Y-41440000D01*
X59815000Y-45450000D02*
X61815000Y-45450000D01*
X61815000Y-45450000D02*
X61815000Y-41440000D01*
%TO.C,R41*%
X52160436Y-91560000D02*
X56514564Y-91560000D01*
X52160436Y-94980000D02*
X56514564Y-94980000D01*
%TO.C,F24*%
X68087936Y-101590000D02*
X69292064Y-101590000D01*
X68087936Y-103410000D02*
X69292064Y-103410000D01*
%TO.C,D18*%
X71330000Y-58390000D02*
X71330000Y-61050000D01*
X73030000Y-58390000D02*
X71330000Y-58390000D01*
X73030000Y-58390000D02*
X73030000Y-61050000D01*
%TO.C,C19*%
X68809420Y-87540000D02*
X69090580Y-87540000D01*
X68809420Y-88560000D02*
X69090580Y-88560000D01*
%TO.C,R43*%
X64764564Y-90545000D02*
X64310436Y-90545000D01*
X64764564Y-92015000D02*
X64310436Y-92015000D01*
%TO.C,F9*%
X68097936Y-67470000D02*
X69302064Y-67470000D01*
X68097936Y-69290000D02*
X69302064Y-69290000D01*
%TO.C,Q10*%
X60392500Y-86050000D02*
X59742500Y-86050000D01*
X60392500Y-86050000D02*
X61042500Y-86050000D01*
X60392500Y-89170000D02*
X59742500Y-89170000D01*
X60392500Y-89170000D02*
X61042500Y-89170000D01*
X61795000Y-89450000D02*
X61315000Y-89450000D01*
X61555000Y-89120000D01*
X61795000Y-89450000D01*
G36*
X61795000Y-89450000D02*
G01*
X61315000Y-89450000D01*
X61555000Y-89120000D01*
X61795000Y-89450000D01*
G37*
%TO.C,C13*%
X69084420Y-121010000D02*
X69365580Y-121010000D01*
X69084420Y-122030000D02*
X69365580Y-122030000D01*
%TO.C,Q15*%
X60105000Y-57795000D02*
X59455000Y-57795000D01*
X60105000Y-57795000D02*
X60755000Y-57795000D01*
X60105000Y-60915000D02*
X59455000Y-60915000D01*
X60105000Y-60915000D02*
X60755000Y-60915000D01*
X61507500Y-61195000D02*
X61027500Y-61195000D01*
X61267500Y-60865000D01*
X61507500Y-61195000D01*
G36*
X61507500Y-61195000D02*
G01*
X61027500Y-61195000D01*
X61267500Y-60865000D01*
X61507500Y-61195000D01*
G37*
%TO.C,Q9*%
X60525000Y-91610000D02*
X59875000Y-91610000D01*
X60525000Y-91610000D02*
X61175000Y-91610000D01*
X60525000Y-94730000D02*
X59875000Y-94730000D01*
X60525000Y-94730000D02*
X61175000Y-94730000D01*
X61927500Y-95010000D02*
X61447500Y-95010000D01*
X61687500Y-94680000D01*
X61927500Y-95010000D01*
G36*
X61927500Y-95010000D02*
G01*
X61447500Y-95010000D01*
X61687500Y-94680000D01*
X61927500Y-95010000D01*
G37*
%TO.C,D1*%
X62540000Y-45475000D02*
X62540000Y-41465000D01*
X62540000Y-45475000D02*
X64540000Y-45475000D01*
X64540000Y-45475000D02*
X64540000Y-41465000D01*
%TO.C,R61*%
X52005436Y-63135000D02*
X56359564Y-63135000D01*
X52005436Y-66555000D02*
X56359564Y-66555000D01*
%TO.C,R1*%
X69472064Y-43965000D02*
X69017936Y-43965000D01*
X69472064Y-45435000D02*
X69017936Y-45435000D01*
%TO.C,J3*%
X104445000Y-79620000D02*
X104445000Y-89980000D01*
X104445000Y-100340000D02*
X104445000Y-89980000D01*
X109865000Y-80690000D02*
X110165000Y-80690000D01*
X109865000Y-89980000D02*
X109865000Y-80690000D01*
X109865000Y-89980000D02*
X109865000Y-99270000D01*
X109865000Y-99270000D02*
X110165000Y-99270000D01*
X110155000Y-80980000D02*
X110455000Y-80980000D01*
X110165000Y-79620000D02*
X104445000Y-79620000D01*
X110165000Y-80690000D02*
X110165000Y-79620000D01*
X110165000Y-99270000D02*
X110165000Y-100340000D01*
X110165000Y-100340000D02*
X104445000Y-100340000D01*
X110455000Y-80980000D02*
X110455000Y-80480000D01*
%TO.C,D9*%
X72030000Y-109862500D02*
X72030000Y-112522500D01*
X73730000Y-109862500D02*
X72030000Y-109862500D01*
X73730000Y-109862500D02*
X73730000Y-112522500D01*
%TO.C,C4*%
X97845000Y-116795580D02*
X97845000Y-116514420D01*
X98865000Y-116795580D02*
X98865000Y-116514420D01*
%TO.C,C8*%
X86180000Y-70195580D02*
X86180000Y-69914420D01*
X87200000Y-70195580D02*
X87200000Y-69914420D01*
%TO.C,R47*%
X64644564Y-85225000D02*
X64190436Y-85225000D01*
X64644564Y-86695000D02*
X64190436Y-86695000D01*
%TO.C,R13*%
X52662936Y-130780000D02*
X57017064Y-130780000D01*
X52662936Y-134200000D02*
X57017064Y-134200000D01*
%TO.C,R17*%
X52622936Y-125350000D02*
X56977064Y-125350000D01*
X52622936Y-128770000D02*
X56977064Y-128770000D01*
%TO.C,R8*%
X86957064Y-66545000D02*
X86502936Y-66545000D01*
X86957064Y-68015000D02*
X86502936Y-68015000D01*
%TO.C,F32*%
X68567936Y-123400000D02*
X69772064Y-123400000D01*
X68567936Y-125220000D02*
X69772064Y-125220000D01*
%TO.C,R71*%
X64564564Y-50495000D02*
X64110436Y-50495000D01*
X64564564Y-51965000D02*
X64110436Y-51965000D01*
%TO.C,F26*%
X68047936Y-107230000D02*
X69252064Y-107230000D01*
X68047936Y-109050000D02*
X69252064Y-109050000D01*
%TO.C,R33*%
X52370436Y-103435000D02*
X56724564Y-103435000D01*
X52370436Y-106855000D02*
X56724564Y-106855000D01*
%TO.C,C5*%
X95855000Y-116870580D02*
X95855000Y-116589420D01*
X96875000Y-116870580D02*
X96875000Y-116589420D01*
%TO.C,Q1*%
X94255000Y-107670000D02*
X98015000Y-107670000D01*
X94255000Y-114490000D02*
X98015000Y-114490000D01*
X98015000Y-107670000D02*
X98015000Y-108930000D01*
X98015000Y-114490000D02*
X98015000Y-113230000D01*
X92975000Y-107770000D02*
X92735000Y-107440000D01*
X93215000Y-107440000D01*
X92975000Y-107770000D01*
G36*
X92975000Y-107770000D02*
G01*
X92735000Y-107440000D01*
X93215000Y-107440000D01*
X92975000Y-107770000D01*
G37*
%TO.C,R7*%
X96507258Y-99767500D02*
X96032742Y-99767500D01*
X96507258Y-100812500D02*
X96032742Y-100812500D01*
%TO.C,C9*%
X92290000Y-70115580D02*
X92290000Y-69834420D01*
X93310000Y-70115580D02*
X93310000Y-69834420D01*
%TO.C,J6*%
X69145000Y-145420000D02*
X69145000Y-151140000D01*
X69145000Y-151140000D02*
X79505000Y-151140000D01*
X70215000Y-145420000D02*
X69145000Y-145420000D01*
X70215000Y-145720000D02*
X70215000Y-145420000D01*
X70505000Y-145130000D02*
X70005000Y-145130000D01*
X70505000Y-145430000D02*
X70505000Y-145130000D01*
X79505000Y-145720000D02*
X70215000Y-145720000D01*
X79505000Y-145720000D02*
X88795000Y-145720000D01*
X88795000Y-145420000D02*
X89865000Y-145420000D01*
X88795000Y-145720000D02*
X88795000Y-145420000D01*
X89865000Y-145420000D02*
X89865000Y-151140000D01*
X89865000Y-151140000D02*
X79505000Y-151140000D01*
%TO.C,R10*%
X88337500Y-111820242D02*
X88337500Y-112294758D01*
X89382500Y-111820242D02*
X89382500Y-112294758D01*
%TO.C,R57*%
X51995436Y-68815000D02*
X56349564Y-68815000D01*
X51995436Y-72235000D02*
X56349564Y-72235000D01*
%TO.C,R4*%
X96027742Y-96062500D02*
X96502258Y-96062500D01*
X96027742Y-97107500D02*
X96502258Y-97107500D01*
%TO.C,J1*%
X99645000Y-49070000D02*
X99645000Y-54790000D01*
X99645000Y-54790000D02*
X101880000Y-54790000D01*
X100715000Y-49070000D02*
X99645000Y-49070000D01*
X100715000Y-49370000D02*
X100715000Y-49070000D01*
X101005000Y-48780000D02*
X100505000Y-48780000D01*
X101005000Y-49080000D02*
X101005000Y-48780000D01*
X101880000Y-49370000D02*
X100715000Y-49370000D01*
X101880000Y-49370000D02*
X103045000Y-49370000D01*
X103045000Y-49070000D02*
X104115000Y-49070000D01*
X103045000Y-49370000D02*
X103045000Y-49070000D01*
X104115000Y-49070000D02*
X104115000Y-54790000D01*
X104115000Y-54790000D02*
X101880000Y-54790000D01*
%TO.C,C12*%
X69269420Y-125880000D02*
X69550580Y-125880000D01*
X69269420Y-126900000D02*
X69550580Y-126900000D01*
%TO.C,C15*%
X68964420Y-109940000D02*
X69245580Y-109940000D01*
X68964420Y-110960000D02*
X69245580Y-110960000D01*
%TO.C,Q6*%
X60690000Y-109115000D02*
X60040000Y-109115000D01*
X60690000Y-109115000D02*
X61340000Y-109115000D01*
X60690000Y-112235000D02*
X60040000Y-112235000D01*
X60690000Y-112235000D02*
X61340000Y-112235000D01*
X62092500Y-112515000D02*
X61612500Y-112515000D01*
X61852500Y-112185000D01*
X62092500Y-112515000D01*
G36*
X62092500Y-112515000D02*
G01*
X61612500Y-112515000D01*
X61852500Y-112185000D01*
X62092500Y-112515000D01*
G37*
%TO.C,J11*%
X86535000Y-43655000D02*
X86535000Y-45890000D01*
X86535000Y-48125000D02*
X86535000Y-45890000D01*
X91955000Y-44725000D02*
X92255000Y-44725000D01*
X91955000Y-45890000D02*
X91955000Y-44725000D01*
X91955000Y-45890000D02*
X91955000Y-47055000D01*
X91955000Y-47055000D02*
X92255000Y-47055000D01*
X92245000Y-45015000D02*
X92545000Y-45015000D01*
X92255000Y-43655000D02*
X86535000Y-43655000D01*
X92255000Y-44725000D02*
X92255000Y-43655000D01*
X92255000Y-47055000D02*
X92255000Y-48125000D01*
X92255000Y-48125000D02*
X86535000Y-48125000D01*
X92545000Y-45015000D02*
X92545000Y-44515000D01*
%TO.C,Q12*%
X60305000Y-74515000D02*
X59655000Y-74515000D01*
X60305000Y-74515000D02*
X60955000Y-74515000D01*
X60305000Y-77635000D02*
X59655000Y-77635000D01*
X60305000Y-77635000D02*
X60955000Y-77635000D01*
X61707500Y-77915000D02*
X61227500Y-77915000D01*
X61467500Y-77585000D01*
X61707500Y-77915000D01*
G36*
X61707500Y-77915000D02*
G01*
X61227500Y-77915000D01*
X61467500Y-77585000D01*
X61707500Y-77915000D01*
G37*
%TO.C,C21*%
X68649420Y-75360000D02*
X68930580Y-75360000D01*
X68649420Y-76380000D02*
X68930580Y-76380000D01*
%TO.C,R9*%
X92982064Y-66595000D02*
X92527936Y-66595000D01*
X92982064Y-68065000D02*
X92527936Y-68065000D01*
%TO.C,R67*%
X64464564Y-56765000D02*
X64010436Y-56765000D01*
X64464564Y-58235000D02*
X64010436Y-58235000D01*
D13*
%TO.C,G\u002A\u002A\u002A*%
G36*
X93523451Y-120983100D02*
G01*
X93512761Y-120993790D01*
X93502071Y-120983100D01*
X93512761Y-120972410D01*
X93523451Y-120983100D01*
G37*
G36*
X93844159Y-120298925D02*
G01*
X93833468Y-120309615D01*
X93822778Y-120298925D01*
X93833468Y-120288235D01*
X93844159Y-120298925D01*
G37*
G36*
X96559478Y-128872494D02*
G01*
X96548788Y-128883184D01*
X96538098Y-128872494D01*
X96548788Y-128861804D01*
X96559478Y-128872494D01*
G37*
G36*
X99937593Y-121432090D02*
G01*
X99926903Y-121442780D01*
X99916212Y-121432090D01*
X99926903Y-121421400D01*
X99937593Y-121432090D01*
G37*
G36*
X103251566Y-123142528D02*
G01*
X103240876Y-123153218D01*
X103230185Y-123142528D01*
X103240876Y-123131838D01*
X103251566Y-123142528D01*
G37*
G36*
X95255270Y-120768493D02*
G01*
X95255270Y-121526698D01*
X95453039Y-121532845D01*
X95650808Y-121538992D01*
X95657325Y-121640550D01*
X95663842Y-121742107D01*
X95138849Y-121742107D01*
X94613855Y-121742107D01*
X94613855Y-121635205D01*
X94613855Y-121528302D01*
X94806280Y-121528302D01*
X94998704Y-121528302D01*
X94998704Y-120769296D01*
X94998704Y-120010289D01*
X95126987Y-120010289D01*
X95255270Y-120010289D01*
X95255270Y-120768493D01*
G37*
G36*
X101562509Y-120117191D02*
G01*
X101562509Y-120224093D01*
X101466297Y-120224093D01*
X101370084Y-120224093D01*
X101370084Y-120876198D01*
X101370084Y-121528302D01*
X101466297Y-121528302D01*
X101562509Y-121528302D01*
X101562509Y-121635205D01*
X101562509Y-121742107D01*
X101252492Y-121742107D01*
X100942475Y-121742107D01*
X100942475Y-121635205D01*
X100942475Y-121528302D01*
X101038687Y-121528302D01*
X101134899Y-121528302D01*
X101134899Y-120876198D01*
X101134899Y-120224093D01*
X101038687Y-120224093D01*
X100942475Y-120224093D01*
X100942475Y-120117191D01*
X100942475Y-120010289D01*
X101252492Y-120010289D01*
X101562509Y-120010289D01*
X101562509Y-120117191D01*
G37*
G36*
X99392380Y-124749934D02*
G01*
X99461107Y-124765110D01*
X99615997Y-124830969D01*
X99738561Y-124919462D01*
X99836036Y-125037003D01*
X99899536Y-125153469D01*
X99948283Y-125259194D01*
X99948283Y-127140676D01*
X99948283Y-129022157D01*
X99723788Y-129022157D01*
X99499293Y-129022157D01*
X99493833Y-127124641D01*
X99488372Y-125227124D01*
X99285488Y-125227124D01*
X99082605Y-125227124D01*
X99077144Y-127124641D01*
X99071684Y-129022157D01*
X98847189Y-129022157D01*
X98622694Y-129022157D01*
X98622694Y-127140208D01*
X98622694Y-125258258D01*
X98692927Y-125115614D01*
X98774758Y-124983765D01*
X98878360Y-124882965D01*
X99012857Y-124804518D01*
X99025232Y-124798944D01*
X99141491Y-124762304D01*
X99269869Y-124745502D01*
X99392380Y-124749934D01*
G37*
G36*
X95936658Y-120003635D02*
G01*
X96041521Y-120004952D01*
X96073073Y-120005547D01*
X96367054Y-120011495D01*
X96367054Y-120117794D01*
X96367054Y-120224093D01*
X96270842Y-120224093D01*
X96174630Y-120224093D01*
X96174630Y-120876198D01*
X96174630Y-121528302D01*
X96270842Y-121528302D01*
X96367054Y-121528302D01*
X96367054Y-121635205D01*
X96367054Y-121742107D01*
X96058480Y-121742107D01*
X95749906Y-121742107D01*
X95753885Y-121640550D01*
X95757864Y-121538992D01*
X95848654Y-121532418D01*
X95939445Y-121525844D01*
X95939445Y-120873334D01*
X95939445Y-120220824D01*
X95848578Y-120227395D01*
X95757711Y-120233966D01*
X95751310Y-120124042D01*
X95750711Y-120060491D01*
X95756142Y-120017357D01*
X95762000Y-120006858D01*
X95788573Y-120004623D01*
X95849567Y-120003537D01*
X95936658Y-120003635D01*
G37*
G36*
X101408467Y-124778302D02*
G01*
X101531173Y-124779151D01*
X101623375Y-124781192D01*
X101691200Y-124784941D01*
X101740779Y-124790911D01*
X101778237Y-124799616D01*
X101809705Y-124811570D01*
X101841309Y-124827287D01*
X101842437Y-124827881D01*
X101913456Y-124877369D01*
X101980615Y-124942987D01*
X102000808Y-124968688D01*
X102064950Y-125059747D01*
X102070650Y-126877053D01*
X102076350Y-128694358D01*
X102022022Y-128794116D01*
X101939251Y-128903869D01*
X101829812Y-128982014D01*
X101752900Y-129012050D01*
X101710314Y-129018222D01*
X101632439Y-129023665D01*
X101526746Y-129028092D01*
X101400704Y-129031214D01*
X101261784Y-129032742D01*
X101214494Y-129032848D01*
X100748604Y-129032848D01*
X100754673Y-128803008D01*
X100760741Y-128573168D01*
X101193696Y-128567380D01*
X101626650Y-128561592D01*
X101626650Y-127846346D01*
X101626650Y-127131099D01*
X101300598Y-127125197D01*
X100974546Y-127119296D01*
X100974546Y-126898016D01*
X100974546Y-126676737D01*
X101300598Y-126679827D01*
X101626650Y-126682918D01*
X101626650Y-125955021D01*
X101626650Y-125227124D01*
X101188350Y-125227124D01*
X100750051Y-125227124D01*
X100750051Y-125002629D01*
X100750051Y-124778134D01*
X101249129Y-124778134D01*
X101408467Y-124778302D01*
G37*
G36*
X103695443Y-123345964D02*
G01*
X103804639Y-123347268D01*
X103883058Y-123350068D01*
X103936691Y-123354875D01*
X103971528Y-123362201D01*
X103993561Y-123372557D01*
X104007259Y-123384742D01*
X104030570Y-123433985D01*
X104042251Y-123506468D01*
X104042207Y-123585773D01*
X104030345Y-123655482D01*
X104009045Y-123696893D01*
X103991399Y-123708637D01*
X103961443Y-123717365D01*
X103913473Y-123723493D01*
X103841789Y-123727437D01*
X103740687Y-123729615D01*
X103604465Y-123730443D01*
X103549365Y-123730491D01*
X103403341Y-123730231D01*
X103293973Y-123729080D01*
X103215156Y-123726482D01*
X103160787Y-123721880D01*
X103124761Y-123714717D01*
X103100975Y-123704436D01*
X103083325Y-123690481D01*
X103080522Y-123687730D01*
X103049131Y-123649439D01*
X103037761Y-123623588D01*
X103016392Y-123620966D01*
X102952328Y-123618513D01*
X102845635Y-123616231D01*
X102696380Y-123614120D01*
X102504628Y-123612180D01*
X102270445Y-123610412D01*
X101993897Y-123608815D01*
X101675051Y-123607390D01*
X101313971Y-123606138D01*
X100910724Y-123605058D01*
X100465377Y-123604150D01*
X99977994Y-123603416D01*
X99448643Y-123602855D01*
X98877388Y-123602468D01*
X98264296Y-123602254D01*
X97792558Y-123602208D01*
X92547356Y-123602208D01*
X92556770Y-123538067D01*
X92566184Y-123473925D01*
X97792662Y-123473925D01*
X103019141Y-123473925D01*
X103073113Y-123409784D01*
X103127084Y-123345642D01*
X103549479Y-123345642D01*
X103695443Y-123345964D01*
G37*
G36*
X97353425Y-119969996D02*
G01*
X97425660Y-119979922D01*
X97489817Y-120000722D01*
X97544491Y-120026324D01*
X97662253Y-120108358D01*
X97749048Y-120219633D01*
X97805123Y-120360509D01*
X97818527Y-120422438D01*
X97825295Y-120483569D01*
X97831225Y-120580825D01*
X97836102Y-120707577D01*
X97839707Y-120857191D01*
X97841825Y-121023039D01*
X97842307Y-121150550D01*
X97842307Y-121742107D01*
X97726615Y-121742107D01*
X97610923Y-121742107D01*
X97603005Y-121106038D01*
X97600242Y-120908960D01*
X97596818Y-120749734D01*
X97591900Y-120623453D01*
X97584656Y-120525208D01*
X97574253Y-120450092D01*
X97559858Y-120393195D01*
X97540639Y-120349611D01*
X97515764Y-120314431D01*
X97484401Y-120282747D01*
X97459736Y-120261362D01*
X97361751Y-120204204D01*
X97254955Y-120183949D01*
X97147968Y-120198454D01*
X97049410Y-120245577D01*
X96967900Y-120323173D01*
X96925754Y-120394139D01*
X96915537Y-120423306D01*
X96907277Y-120463873D01*
X96900693Y-120520674D01*
X96895500Y-120598542D01*
X96891418Y-120702312D01*
X96888163Y-120836817D01*
X96885453Y-121006893D01*
X96884244Y-121104155D01*
X96876872Y-121738342D01*
X96759603Y-121745569D01*
X96642334Y-121752797D01*
X96650433Y-121068622D01*
X96653093Y-120864311D01*
X96656260Y-120697830D01*
X96660699Y-120564250D01*
X96667177Y-120458640D01*
X96676458Y-120376073D01*
X96689309Y-120311616D01*
X96706494Y-120260342D01*
X96728780Y-120217320D01*
X96756932Y-120177621D01*
X96791716Y-120136314D01*
X96795972Y-120131470D01*
X96883007Y-120053955D01*
X96987975Y-120002510D01*
X97118035Y-119974580D01*
X97255855Y-119967422D01*
X97353425Y-119969996D01*
G37*
G36*
X103712333Y-122105926D02*
G01*
X103817725Y-122107348D01*
X103892695Y-122110392D01*
X103943409Y-122115611D01*
X103976035Y-122123556D01*
X103996741Y-122134779D01*
X104007259Y-122144674D01*
X104030570Y-122193917D01*
X104042251Y-122266401D01*
X104042207Y-122345706D01*
X104030345Y-122415415D01*
X104009045Y-122456826D01*
X103974618Y-122469883D01*
X103905694Y-122480146D01*
X103810446Y-122487611D01*
X103697046Y-122492274D01*
X103573668Y-122494135D01*
X103448483Y-122493188D01*
X103329666Y-122489433D01*
X103225389Y-122482865D01*
X103143824Y-122473483D01*
X103093144Y-122461283D01*
X103085279Y-122457140D01*
X103049731Y-122421805D01*
X103037761Y-122392999D01*
X103033703Y-122389669D01*
X103020521Y-122386582D01*
X102996707Y-122383729D01*
X102960750Y-122381102D01*
X102911141Y-122378691D01*
X102846370Y-122376487D01*
X102764927Y-122374482D01*
X102665303Y-122372666D01*
X102545988Y-122371031D01*
X102405471Y-122369568D01*
X102242244Y-122368268D01*
X102054797Y-122367122D01*
X101841620Y-122366122D01*
X101601203Y-122365257D01*
X101332037Y-122364520D01*
X101032612Y-122363902D01*
X100701417Y-122363393D01*
X100336944Y-122362984D01*
X99937683Y-122362668D01*
X99502124Y-122362434D01*
X99028757Y-122362275D01*
X98516073Y-122362181D01*
X97962561Y-122362142D01*
X97799546Y-122362141D01*
X92561330Y-122362141D01*
X92561330Y-122297999D01*
X92561330Y-122233858D01*
X97798105Y-122233858D01*
X103034880Y-122233858D01*
X103048840Y-122189872D01*
X103062879Y-122162434D01*
X103088784Y-122141523D01*
X103131732Y-122126302D01*
X103196902Y-122115934D01*
X103289474Y-122109582D01*
X103414625Y-122106408D01*
X103570351Y-122105575D01*
X103712333Y-122105926D01*
G37*
G36*
X98894777Y-119999847D02*
G01*
X98955597Y-120026324D01*
X99080642Y-120112871D01*
X99179752Y-120232803D01*
X99253016Y-120386327D01*
X99300523Y-120573651D01*
X99322361Y-120794980D01*
X99323950Y-120886888D01*
X99314246Y-121095999D01*
X99284939Y-121271855D01*
X99234210Y-121420088D01*
X99160238Y-121546332D01*
X99081548Y-121636816D01*
X98965776Y-121722548D01*
X98832454Y-121774514D01*
X98690055Y-121792876D01*
X98547053Y-121777796D01*
X98411924Y-121729438D01*
X98293142Y-121647964D01*
X98265780Y-121621163D01*
X98219745Y-121559432D01*
X98171578Y-121474526D01*
X98129361Y-121382992D01*
X98101175Y-121301380D01*
X98095147Y-121271737D01*
X98094073Y-121241116D01*
X98107602Y-121224344D01*
X98145506Y-121216194D01*
X98206797Y-121212002D01*
X98325411Y-121205719D01*
X98374425Y-121323973D01*
X98439953Y-121440326D01*
X98523490Y-121520079D01*
X98622254Y-121561680D01*
X98733460Y-121563576D01*
X98783547Y-121552059D01*
X98864684Y-121507106D01*
X98939168Y-121426470D01*
X99001512Y-121317214D01*
X99034539Y-121228976D01*
X99057273Y-121118918D01*
X99069142Y-120983402D01*
X99070389Y-120836649D01*
X99061256Y-120692882D01*
X99041984Y-120566324D01*
X99022033Y-120494026D01*
X98965499Y-120378316D01*
X98889850Y-120283566D01*
X98802575Y-120217527D01*
X98728816Y-120190466D01*
X98631721Y-120192742D01*
X98539015Y-120233020D01*
X98455776Y-120306547D01*
X98387081Y-120408570D01*
X98338007Y-120534335D01*
X98330701Y-120563183D01*
X98304894Y-120674985D01*
X98185848Y-120668689D01*
X98066802Y-120662393D01*
X98074421Y-120576941D01*
X98100538Y-120450105D01*
X98152895Y-120316191D01*
X98223795Y-120194135D01*
X98237826Y-120175025D01*
X98339659Y-120075208D01*
X98464626Y-120006051D01*
X98604372Y-119969284D01*
X98750541Y-119966639D01*
X98894777Y-119999847D01*
G37*
G36*
X102431597Y-119974345D02*
G01*
X102492559Y-119982311D01*
X102556753Y-120009124D01*
X102633631Y-120060618D01*
X102710472Y-120127074D01*
X102772713Y-120196342D01*
X102842725Y-120308658D01*
X102893454Y-120439696D01*
X102926881Y-120596488D01*
X102944985Y-120786067D01*
X102946282Y-120812718D01*
X102943486Y-121049396D01*
X102912986Y-121255242D01*
X102855020Y-121429697D01*
X102769825Y-121572204D01*
X102657637Y-121682205D01*
X102549983Y-121745799D01*
X102451335Y-121775285D01*
X102331425Y-121788221D01*
X102208705Y-121783908D01*
X102104579Y-121762633D01*
X101982665Y-121700967D01*
X101876571Y-121604085D01*
X101791800Y-121478266D01*
X101737876Y-121344088D01*
X101718513Y-121271506D01*
X101718303Y-121230678D01*
X101743884Y-121212472D01*
X101801894Y-121207752D01*
X101837071Y-121207595D01*
X101961969Y-121207595D01*
X101987303Y-121292154D01*
X102037240Y-121402201D01*
X102109579Y-121487081D01*
X102197322Y-121543400D01*
X102293471Y-121567762D01*
X102391025Y-121556774D01*
X102462163Y-121522448D01*
X102539999Y-121458861D01*
X102598811Y-121382719D01*
X102640647Y-121287976D01*
X102667559Y-121168587D01*
X102681597Y-121018508D01*
X102684939Y-120865508D01*
X102684170Y-120744270D01*
X102681025Y-120655466D01*
X102674177Y-120588780D01*
X102662301Y-120533897D01*
X102644071Y-120480503D01*
X102631488Y-120449536D01*
X102577653Y-120347258D01*
X102509309Y-120270993D01*
X102485552Y-120251767D01*
X102391268Y-120197418D01*
X102297636Y-120182365D01*
X102195990Y-120205945D01*
X102150832Y-120226204D01*
X102068325Y-120283413D01*
X102008137Y-120364942D01*
X101964672Y-120478770D01*
X101959104Y-120499693D01*
X101934049Y-120598252D01*
X101809356Y-120604755D01*
X101684662Y-120611259D01*
X101698458Y-120508543D01*
X101715766Y-120433699D01*
X101746732Y-120343442D01*
X101777616Y-120272359D01*
X101860878Y-120145052D01*
X101970763Y-120050823D01*
X102094866Y-119992299D01*
X102155899Y-119980114D01*
X102243203Y-119972788D01*
X102340522Y-119970729D01*
X102431597Y-119974345D01*
G37*
G36*
X103684371Y-122726177D02*
G01*
X103796474Y-122728168D01*
X103877681Y-122732010D01*
X103933918Y-122738133D01*
X103971113Y-122746966D01*
X103995125Y-122758892D01*
X104023027Y-122785645D01*
X104037456Y-122824321D01*
X104042408Y-122888127D01*
X104042643Y-122915932D01*
X104041803Y-122977683D01*
X104035875Y-123024751D01*
X104019746Y-123059129D01*
X103988307Y-123082811D01*
X103936445Y-123097789D01*
X103859050Y-123106058D01*
X103751009Y-123109611D01*
X103607212Y-123110441D01*
X103543864Y-123110457D01*
X103398879Y-123110191D01*
X103290502Y-123109013D01*
X103212582Y-123106356D01*
X103158966Y-123101653D01*
X103123504Y-123094334D01*
X103100044Y-123083834D01*
X103082433Y-123069584D01*
X103080522Y-123067696D01*
X103049131Y-123029405D01*
X103037761Y-123003555D01*
X103016392Y-123000930D01*
X102952328Y-122998476D01*
X102845636Y-122996193D01*
X102696381Y-122994081D01*
X102504631Y-122992141D01*
X102270450Y-122990372D01*
X101993905Y-122988774D01*
X101675062Y-122987350D01*
X101313987Y-122986097D01*
X100910746Y-122985017D01*
X100465406Y-122984111D01*
X99978032Y-122983377D01*
X99448691Y-122982817D01*
X98877448Y-122982431D01*
X98264370Y-122982219D01*
X97799546Y-122982174D01*
X92561330Y-122982174D01*
X92561330Y-122918033D01*
X92561330Y-122853891D01*
X97799546Y-122853891D01*
X98442550Y-122853804D01*
X99043766Y-122853543D01*
X99603128Y-122853107D01*
X100120569Y-122852498D01*
X100596025Y-122851715D01*
X101029428Y-122850760D01*
X101420713Y-122849631D01*
X101769813Y-122848329D01*
X102076662Y-122846856D01*
X102341195Y-122845210D01*
X102563345Y-122843392D01*
X102743046Y-122841403D01*
X102880232Y-122839242D01*
X102974838Y-122836911D01*
X103026795Y-122834408D01*
X103037761Y-122832511D01*
X103051561Y-122803015D01*
X103080522Y-122768370D01*
X103098040Y-122753523D01*
X103120772Y-122742564D01*
X103154944Y-122734908D01*
X103206784Y-122729970D01*
X103282517Y-122727164D01*
X103388371Y-122725906D01*
X103530572Y-122725609D01*
X103535445Y-122725609D01*
X103684371Y-122726177D01*
G37*
G36*
X103693901Y-123965995D02*
G01*
X103803439Y-123967290D01*
X103882170Y-123970069D01*
X103936069Y-123974841D01*
X103971111Y-123982114D01*
X103993271Y-123992397D01*
X104007259Y-124004775D01*
X104033167Y-124060058D01*
X104042582Y-124151894D01*
X104042643Y-124161815D01*
X104041702Y-124221721D01*
X104035470Y-124267382D01*
X104018837Y-124300732D01*
X103986691Y-124323706D01*
X103933921Y-124338237D01*
X103855416Y-124346258D01*
X103746064Y-124349705D01*
X103600755Y-124350509D01*
X103543864Y-124350524D01*
X103398879Y-124350258D01*
X103290502Y-124349080D01*
X103212582Y-124346423D01*
X103158966Y-124341720D01*
X103123504Y-124334402D01*
X103100044Y-124323901D01*
X103082433Y-124309651D01*
X103080522Y-124307764D01*
X103049131Y-124269473D01*
X103037761Y-124243622D01*
X103016392Y-124240998D01*
X102952328Y-124238544D01*
X102845636Y-124236261D01*
X102696381Y-124234149D01*
X102504631Y-124232208D01*
X102270450Y-124230439D01*
X101993905Y-124228842D01*
X101675062Y-124227417D01*
X101313987Y-124226164D01*
X100910746Y-124225085D01*
X100465406Y-124224178D01*
X99978032Y-124223445D01*
X99448691Y-124222885D01*
X98877448Y-124222498D01*
X98264370Y-124222286D01*
X97799546Y-124222242D01*
X92561330Y-124222242D01*
X92561330Y-124158100D01*
X92561330Y-124093959D01*
X97799546Y-124093959D01*
X98442550Y-124093872D01*
X99043766Y-124093610D01*
X99603128Y-124093175D01*
X100120569Y-124092565D01*
X100596025Y-124091783D01*
X101029428Y-124090827D01*
X101420713Y-124089698D01*
X101769813Y-124088397D01*
X102076662Y-124086923D01*
X102341195Y-124085277D01*
X102563345Y-124083459D01*
X102743046Y-124081470D01*
X102880232Y-124079310D01*
X102974838Y-124076978D01*
X103026795Y-124074476D01*
X103037761Y-124072578D01*
X103051561Y-124043083D01*
X103080522Y-124008437D01*
X103097777Y-123993781D01*
X103120153Y-123982908D01*
X103153770Y-123975258D01*
X103204746Y-123970270D01*
X103279202Y-123967385D01*
X103383255Y-123966041D01*
X103523026Y-123965680D01*
X103547579Y-123965676D01*
X103693901Y-123965995D01*
G37*
G36*
X100664529Y-121742107D02*
G01*
X100282122Y-121742107D01*
X100145271Y-121741907D01*
X100043546Y-121740694D01*
X99969314Y-121737549D01*
X99914941Y-121731553D01*
X99872792Y-121721788D01*
X99835233Y-121707335D01*
X99794630Y-121687274D01*
X99785026Y-121682276D01*
X99680482Y-121608239D01*
X99608972Y-121510682D01*
X99568066Y-121385701D01*
X99558946Y-121318919D01*
X99560185Y-121259716D01*
X99805395Y-121259716D01*
X99825364Y-121352954D01*
X99868106Y-121422198D01*
X99923206Y-121469010D01*
X99995006Y-121500765D01*
X100091179Y-121519510D01*
X100219399Y-121527293D01*
X100263645Y-121527792D01*
X100429344Y-121528302D01*
X100429344Y-121250356D01*
X100429344Y-120972410D01*
X100210194Y-120972490D01*
X100103195Y-120973985D01*
X100028350Y-120979419D01*
X99975118Y-120990350D01*
X99932956Y-121008337D01*
X99921025Y-121015261D01*
X99854808Y-121078697D01*
X99815737Y-121164240D01*
X99805395Y-121259716D01*
X99560185Y-121259716D01*
X99562154Y-121165629D01*
X99601550Y-121034587D01*
X99670107Y-120932719D01*
X99711768Y-120884918D01*
X99727312Y-120857621D01*
X99719715Y-120839991D01*
X99699449Y-120825861D01*
X99660571Y-120789201D01*
X99630972Y-120730522D01*
X99609104Y-120644277D01*
X99593418Y-120524920D01*
X99585152Y-120416518D01*
X99574063Y-120281552D01*
X99559504Y-120186054D01*
X99540945Y-120126829D01*
X99535537Y-120117191D01*
X99505164Y-120064828D01*
X99500421Y-120032996D01*
X99526106Y-120016674D01*
X99587014Y-120010843D01*
X99637664Y-120010289D01*
X99701297Y-120010545D01*
X99746449Y-120015536D01*
X99776777Y-120031590D01*
X99795935Y-120065039D01*
X99807577Y-120122213D01*
X99815357Y-120209443D01*
X99822807Y-120330996D01*
X99831156Y-120432578D01*
X99842729Y-120525109D01*
X99855728Y-120595817D01*
X99863929Y-120623623D01*
X99898039Y-120674454D01*
X99955564Y-120708917D01*
X100041598Y-120728510D01*
X100161231Y-120734729D01*
X100236919Y-120733229D01*
X100418653Y-120726535D01*
X100418653Y-120368408D01*
X100418653Y-120010280D01*
X100541591Y-120010285D01*
X100664529Y-120010289D01*
X100664529Y-120876198D01*
X100664529Y-121250356D01*
X100664529Y-121742107D01*
G37*
G36*
X95572204Y-127170352D02*
G01*
X95573045Y-127435051D01*
X95573592Y-127663031D01*
X95573777Y-127857316D01*
X95573533Y-128020928D01*
X95572789Y-128156886D01*
X95571478Y-128268214D01*
X95569532Y-128357933D01*
X95566881Y-128429064D01*
X95563457Y-128484629D01*
X95559191Y-128527651D01*
X95554016Y-128561149D01*
X95547862Y-128588147D01*
X95540661Y-128611666D01*
X95532344Y-128634727D01*
X95530933Y-128638503D01*
X95457711Y-128778479D01*
X95356864Y-128891141D01*
X95234617Y-128975302D01*
X95097199Y-129029771D01*
X94950836Y-129053361D01*
X94801756Y-129044881D01*
X94656184Y-129003144D01*
X94520349Y-128926959D01*
X94430607Y-128848589D01*
X94398225Y-128815314D01*
X94369898Y-128785327D01*
X94345365Y-128755687D01*
X94324368Y-128723450D01*
X94306647Y-128685672D01*
X94291942Y-128639410D01*
X94279994Y-128581720D01*
X94270543Y-128509660D01*
X94263329Y-128420285D01*
X94258094Y-128310652D01*
X94254577Y-128177818D01*
X94252519Y-128018840D01*
X94251661Y-127830774D01*
X94251742Y-127610676D01*
X94252504Y-127355604D01*
X94253686Y-127062614D01*
X94254551Y-126852040D01*
X94255703Y-126542550D01*
X94256698Y-126272812D01*
X94257800Y-126039819D01*
X94259274Y-125840563D01*
X94261384Y-125672037D01*
X94264395Y-125531234D01*
X94268571Y-125415147D01*
X94274176Y-125320769D01*
X94281475Y-125245092D01*
X94284248Y-125227124D01*
X94699377Y-125227124D01*
X94699377Y-126894801D01*
X94699377Y-128562477D01*
X94913182Y-128562477D01*
X95126987Y-128562477D01*
X95126987Y-126894801D01*
X95126987Y-125227124D01*
X94913182Y-125227124D01*
X94699377Y-125227124D01*
X94284248Y-125227124D01*
X94290732Y-125185109D01*
X94302211Y-125137814D01*
X94316177Y-125100198D01*
X94332895Y-125069256D01*
X94352627Y-125041978D01*
X94375640Y-125015360D01*
X94402197Y-124986392D01*
X94420344Y-124966178D01*
X94538665Y-124861876D01*
X94678487Y-124788286D01*
X94830606Y-124748217D01*
X94985817Y-124744479D01*
X95085283Y-124763223D01*
X95240269Y-124828502D01*
X95373069Y-124930174D01*
X95483020Y-125067680D01*
X95517049Y-125126161D01*
X95565286Y-125216434D01*
X95571140Y-126865915D01*
X95571241Y-126894801D01*
X95572204Y-127170352D01*
G37*
G36*
X97820926Y-129032848D02*
G01*
X97366591Y-129032338D01*
X97226024Y-129031305D01*
X97095166Y-129028716D01*
X96981796Y-129024852D01*
X96893693Y-129019994D01*
X96838636Y-129014424D01*
X96830982Y-129012961D01*
X96708870Y-128963392D01*
X96607638Y-128878482D01*
X96549311Y-128794769D01*
X96495337Y-128695664D01*
X96495337Y-127912138D01*
X96495531Y-127694430D01*
X96496455Y-127515250D01*
X96498622Y-127370367D01*
X96502544Y-127255550D01*
X96508736Y-127166567D01*
X96513608Y-127129986D01*
X96944327Y-127129986D01*
X96944327Y-127846232D01*
X96944327Y-128562477D01*
X97158132Y-128562477D01*
X97371936Y-128562477D01*
X97371936Y-127846232D01*
X97371936Y-127129986D01*
X97158132Y-127129986D01*
X96944327Y-127129986D01*
X96513608Y-127129986D01*
X96517710Y-127099186D01*
X96529979Y-127049175D01*
X96546057Y-127012304D01*
X96566455Y-126984339D01*
X96591688Y-126961050D01*
X96612566Y-126945217D01*
X96670932Y-126902701D01*
X96614251Y-126865562D01*
X96588736Y-126847609D01*
X96567572Y-126827579D01*
X96550292Y-126801485D01*
X96536432Y-126765338D01*
X96525526Y-126715150D01*
X96517110Y-126646932D01*
X96510718Y-126556697D01*
X96505885Y-126440455D01*
X96502147Y-126294218D01*
X96499036Y-126113998D01*
X96496090Y-125895806D01*
X96495478Y-125847157D01*
X96492722Y-125631811D01*
X96490182Y-125454928D01*
X96487593Y-125312215D01*
X96484691Y-125199376D01*
X96481210Y-125112119D01*
X96476886Y-125046148D01*
X96471454Y-124997168D01*
X96464649Y-124960887D01*
X96456207Y-124933008D01*
X96445862Y-124909239D01*
X96436541Y-124891233D01*
X96408276Y-124836128D01*
X96390978Y-124798129D01*
X96388435Y-124789676D01*
X96408365Y-124785008D01*
X96462365Y-124781246D01*
X96541743Y-124778821D01*
X96620377Y-124778134D01*
X96852319Y-124778134D01*
X96892523Y-124869001D01*
X96902646Y-124894702D01*
X96910998Y-124924594D01*
X96917791Y-124962982D01*
X96923238Y-125014172D01*
X96927550Y-125082471D01*
X96930940Y-125172183D01*
X96933620Y-125287615D01*
X96935801Y-125433073D01*
X96937697Y-125612862D01*
X96939440Y-125821195D01*
X96946154Y-126682522D01*
X97153700Y-126676414D01*
X97361246Y-126670306D01*
X97366814Y-125724220D01*
X97372381Y-124778134D01*
X97596654Y-124778134D01*
X97820926Y-124778134D01*
X97820926Y-126905491D01*
X97820926Y-127846232D01*
X97820926Y-129032848D01*
G37*
G36*
X94102713Y-119974218D02*
G01*
X94216522Y-119989688D01*
X94269939Y-120004240D01*
X94388800Y-120068367D01*
X94487534Y-120167882D01*
X94563624Y-120299203D01*
X94614551Y-120458751D01*
X94623858Y-120507385D01*
X94637174Y-120587561D01*
X94507922Y-120587561D01*
X94378670Y-120587561D01*
X94378670Y-120515892D01*
X94359919Y-120431461D01*
X94309029Y-120345043D01*
X94234044Y-120269272D01*
X94210896Y-120252403D01*
X94101791Y-120202836D01*
X93981367Y-120187680D01*
X93861161Y-120205886D01*
X93752710Y-120256406D01*
X93701132Y-120298703D01*
X93657718Y-120348086D01*
X93636771Y-120395069D01*
X93630527Y-120459612D01*
X93630354Y-120480633D01*
X93636225Y-120553051D01*
X93657455Y-120610519D01*
X93699469Y-120657413D01*
X93767692Y-120698104D01*
X93867549Y-120736967D01*
X93997163Y-120776319D01*
X94173010Y-120830018D01*
X94310542Y-120882684D01*
X94413951Y-120937940D01*
X94487427Y-120999409D01*
X94535164Y-121070714D01*
X94561351Y-121155479D01*
X94570181Y-121257328D01*
X94570273Y-121271737D01*
X94556148Y-121414308D01*
X94511716Y-121531671D01*
X94433488Y-121631921D01*
X94403117Y-121659691D01*
X94307579Y-121726113D01*
X94202084Y-121766025D01*
X94074520Y-121783305D01*
X94012722Y-121784749D01*
X93840250Y-121768921D01*
X93696753Y-121721985D01*
X93582643Y-121644270D01*
X93498337Y-121536108D01*
X93444249Y-121397829D01*
X93428998Y-121319843D01*
X93422907Y-121270002D01*
X93428087Y-121241419D01*
X93453012Y-121228191D01*
X93506155Y-121224411D01*
X93566212Y-121224224D01*
X93628092Y-121227575D01*
X93660327Y-121244201D01*
X93675900Y-121283964D01*
X93680811Y-121311282D01*
X93717354Y-121416181D01*
X93786520Y-121497182D01*
X93883008Y-121550141D01*
X94001518Y-121570914D01*
X94013124Y-121571063D01*
X94131430Y-121554221D01*
X94226267Y-121505986D01*
X94292943Y-121429797D01*
X94324502Y-121342870D01*
X94325915Y-121256558D01*
X94293695Y-121183337D01*
X94225752Y-121121425D01*
X94119996Y-121069039D01*
X93974336Y-121024393D01*
X93942134Y-121016675D01*
X93769726Y-120968775D01*
X93626892Y-120912303D01*
X93517750Y-120849284D01*
X93446417Y-120781741D01*
X93437455Y-120768528D01*
X93394393Y-120662390D01*
X93378727Y-120534677D01*
X93391360Y-120397379D01*
X93405222Y-120340083D01*
X93463437Y-120212623D01*
X93554722Y-120105964D01*
X93671459Y-120027760D01*
X93744189Y-119999520D01*
X93849553Y-119978982D01*
X93974726Y-119970599D01*
X94102713Y-119974218D01*
G37*
D12*
%TO.C,D6*%
X71990000Y-126140000D02*
X71990000Y-128800000D01*
X73690000Y-126140000D02*
X71990000Y-126140000D01*
X73690000Y-126140000D02*
X73690000Y-128800000D01*
%TO.C,F28*%
X68417936Y-112890000D02*
X69622064Y-112890000D01*
X68417936Y-114710000D02*
X69622064Y-114710000D01*
%TO.C,D14*%
X71480000Y-81852500D02*
X71480000Y-84512500D01*
X73180000Y-81852500D02*
X71480000Y-81852500D01*
X73180000Y-81852500D02*
X73180000Y-84512500D01*
%TO.C,C17*%
X68474420Y-97950000D02*
X68755580Y-97950000D01*
X68474420Y-98970000D02*
X68755580Y-98970000D01*
%TO.C,Q3*%
X60975000Y-125400000D02*
X60325000Y-125400000D01*
X60975000Y-125400000D02*
X61625000Y-125400000D01*
X60975000Y-128520000D02*
X60325000Y-128520000D01*
X60975000Y-128520000D02*
X61625000Y-128520000D01*
X62377500Y-128800000D02*
X61897500Y-128800000D01*
X62137500Y-128470000D01*
X62377500Y-128800000D01*
G36*
X62377500Y-128800000D02*
G01*
X61897500Y-128800000D01*
X62137500Y-128470000D01*
X62377500Y-128800000D01*
G37*
%TO.C,C24*%
X68629420Y-58480000D02*
X68910580Y-58480000D01*
X68629420Y-59500000D02*
X68910580Y-59500000D01*
%TO.C,F34*%
X68637936Y-128950000D02*
X69842064Y-128950000D01*
X68637936Y-130770000D02*
X69842064Y-130770000D01*
%TO.C,F1*%
X72767936Y-43770000D02*
X73972064Y-43770000D01*
X72767936Y-45590000D02*
X73972064Y-45590000D01*
%TO.C,C2*%
X96420580Y-101515000D02*
X96139420Y-101515000D01*
X96420580Y-102535000D02*
X96139420Y-102535000D01*
%TO.C,D17*%
X71300000Y-64200000D02*
X71300000Y-66860000D01*
X73000000Y-64200000D02*
X71300000Y-64200000D01*
X73000000Y-64200000D02*
X73000000Y-66860000D01*
%TO.C,C14*%
X69064420Y-115420000D02*
X69345580Y-115420000D01*
X69064420Y-116440000D02*
X69345580Y-116440000D01*
%TO.C,R35*%
X64694564Y-102755000D02*
X64240436Y-102755000D01*
X64694564Y-104225000D02*
X64240436Y-104225000D01*
%TO.C,D13*%
X71420000Y-87470000D02*
X71420000Y-90130000D01*
X73120000Y-87470000D02*
X71420000Y-87470000D01*
X73120000Y-87470000D02*
X73120000Y-90130000D01*
%TO.C,R3*%
X69482064Y-41890000D02*
X69027936Y-41890000D01*
X69482064Y-43360000D02*
X69027936Y-43360000D01*
%TO.C,D5*%
X71980000Y-131420000D02*
X71980000Y-134080000D01*
X73680000Y-131420000D02*
X71980000Y-131420000D01*
X73680000Y-131420000D02*
X73680000Y-134080000D01*
%TO.C,F22*%
X68117936Y-95470000D02*
X69322064Y-95470000D01*
X68117936Y-97290000D02*
X69322064Y-97290000D01*
%TO.C,J10*%
X86535000Y-37405000D02*
X86535000Y-39640000D01*
X86535000Y-41875000D02*
X86535000Y-39640000D01*
X91955000Y-38475000D02*
X92255000Y-38475000D01*
X91955000Y-39640000D02*
X91955000Y-38475000D01*
X91955000Y-39640000D02*
X91955000Y-40805000D01*
X91955000Y-40805000D02*
X92255000Y-40805000D01*
X92245000Y-38765000D02*
X92545000Y-38765000D01*
X92255000Y-37405000D02*
X86535000Y-37405000D01*
X92255000Y-38475000D02*
X92255000Y-37405000D01*
X92255000Y-40805000D02*
X92255000Y-41875000D01*
X92255000Y-41875000D02*
X86535000Y-41875000D01*
X92545000Y-38765000D02*
X92545000Y-38265000D01*
%TO.C,R6*%
X96507258Y-97712500D02*
X96032742Y-97712500D01*
X96507258Y-98757500D02*
X96032742Y-98757500D01*
%TO.C,D12*%
X71330000Y-92952500D02*
X71330000Y-95612500D01*
X73030000Y-92952500D02*
X71330000Y-92952500D01*
X73030000Y-92952500D02*
X73030000Y-95612500D01*
%TO.C,R2*%
X96127742Y-92737500D02*
X96602258Y-92737500D01*
X96127742Y-93782500D02*
X96602258Y-93782500D01*
%TO.C,F13*%
X68257936Y-79330000D02*
X69462064Y-79330000D01*
X68257936Y-81150000D02*
X69462064Y-81150000D01*
%TO.C,R31*%
X64774564Y-108075000D02*
X64320436Y-108075000D01*
X64774564Y-109545000D02*
X64320436Y-109545000D01*
%TO.C,R45*%
X52120436Y-85880000D02*
X56474564Y-85880000D01*
X52120436Y-89300000D02*
X56474564Y-89300000D01*
%TD*%
M02*
