%TF.GenerationSoftware,KiCad,Pcbnew,9.0.3*%
%TF.CreationDate,2026-07-02T03:16:19+01:00*%
%TF.ProjectId,LTC6812-15W,4c544336-3831-4322-9d31-35572e6b6963,rev?*%
%TF.SameCoordinates,Original*%
%TF.FileFunction,Paste,Bot*%
%TF.FilePolarity,Positive*%
%FSLAX46Y46*%
G04 Gerber Fmt 4.6, Leading zero omitted, Abs format (unit mm)*
G04 Created by KiCad (PCBNEW 9.0.3) date 2026-07-02 03:16:19*
%MOMM*%
%LPD*%
G01*
G04 APERTURE LIST*
G04 Aperture macros list*
%AMRoundRect*
0 Rectangle with rounded corners*
0 $1 Rounding radius*
0 $2 $3 $4 $5 $6 $7 $8 $9 X,Y pos of 4 corners*
0 Add a 4 corners polygon primitive as box body*
4,1,4,$2,$3,$4,$5,$6,$7,$8,$9,$2,$3,0*
0 Add four circle primitives for the rounded corners*
1,1,$1+$1,$2,$3*
1,1,$1+$1,$4,$5*
1,1,$1+$1,$6,$7*
1,1,$1+$1,$8,$9*
0 Add four rect primitives between the rounded corners*
20,1,$1+$1,$2,$3,$4,$5,0*
20,1,$1+$1,$4,$5,$6,$7,0*
20,1,$1+$1,$6,$7,$8,$9,0*
20,1,$1+$1,$8,$9,$2,$3,0*%
G04 Aperture macros list end*
%ADD10RoundRect,0.150000X-0.587500X-0.150000X0.587500X-0.150000X0.587500X0.150000X-0.587500X0.150000X0*%
%ADD11RoundRect,0.237500X-0.237500X-0.837500X0.237500X-0.837500X0.237500X0.837500X-0.237500X0.837500X0*%
%ADD12RoundRect,0.150000X-0.150000X0.587500X-0.150000X-0.587500X0.150000X-0.587500X0.150000X0.587500X0*%
%ADD13RoundRect,0.250000X-0.262500X-0.450000X0.262500X-0.450000X0.262500X0.450000X-0.262500X0.450000X0*%
%ADD14RoundRect,0.237500X-0.837500X0.237500X-0.837500X-0.237500X0.837500X-0.237500X0.837500X0.237500X0*%
%ADD15RoundRect,0.250000X-0.625000X0.375000X-0.625000X-0.375000X0.625000X-0.375000X0.625000X0.375000X0*%
%ADD16RoundRect,0.225000X-0.250000X0.225000X-0.250000X-0.225000X0.250000X-0.225000X0.250000X0.225000X0*%
%ADD17RoundRect,0.200000X0.275000X-0.200000X0.275000X0.200000X-0.275000X0.200000X-0.275000X-0.200000X0*%
%ADD18R,1.000000X1.750000*%
%ADD19R,1.000000X1.753000*%
%ADD20RoundRect,0.375000X-0.375000X0.625000X-0.375000X-0.625000X0.375000X-0.625000X0.375000X0.625000X0*%
%ADD21RoundRect,0.500000X-1.400000X0.500000X-1.400000X-0.500000X1.400000X-0.500000X1.400000X0.500000X0*%
%ADD22RoundRect,0.250000X0.450000X-0.262500X0.450000X0.262500X-0.450000X0.262500X-0.450000X-0.262500X0*%
%ADD23RoundRect,0.225000X0.250000X-0.225000X0.250000X0.225000X-0.250000X0.225000X-0.250000X-0.225000X0*%
%ADD24RoundRect,0.200000X-0.200000X-0.275000X0.200000X-0.275000X0.200000X0.275000X-0.200000X0.275000X0*%
%ADD25RoundRect,0.250000X0.375000X0.625000X-0.375000X0.625000X-0.375000X-0.625000X0.375000X-0.625000X0*%
%ADD26R,1.500000X0.300000*%
%ADD27R,0.300000X1.500000*%
%ADD28RoundRect,0.237500X-0.287500X-0.237500X0.287500X-0.237500X0.287500X0.237500X-0.287500X0.237500X0*%
%ADD29RoundRect,0.225000X0.375000X-0.225000X0.375000X0.225000X-0.375000X0.225000X-0.375000X-0.225000X0*%
%ADD30RoundRect,0.200000X0.200000X0.275000X-0.200000X0.275000X-0.200000X-0.275000X0.200000X-0.275000X0*%
%ADD31RoundRect,0.225000X-0.225000X-0.250000X0.225000X-0.250000X0.225000X0.250000X-0.225000X0.250000X0*%
%ADD32RoundRect,0.250000X-0.375000X-0.625000X0.375000X-0.625000X0.375000X0.625000X-0.375000X0.625000X0*%
%ADD33RoundRect,0.225000X0.225000X0.250000X-0.225000X0.250000X-0.225000X-0.250000X0.225000X-0.250000X0*%
%ADD34RoundRect,0.200000X-0.275000X0.200000X-0.275000X-0.200000X0.275000X-0.200000X0.275000X0.200000X0*%
%ADD35RoundRect,0.250000X0.262500X0.450000X-0.262500X0.450000X-0.262500X-0.450000X0.262500X-0.450000X0*%
G04 APERTURE END LIST*
D10*
%TO.C,Q27*%
X100980000Y-101530000D03*
X100980000Y-99630000D03*
X102855000Y-100580000D03*
%TD*%
D11*
%TO.C,R104*%
X95865000Y-105280000D03*
X97015000Y-105280000D03*
%TD*%
%TO.C,R107*%
X96000000Y-93020000D03*
X97150000Y-93020000D03*
%TD*%
D12*
%TO.C,Q24*%
X84145000Y-121835000D03*
X86045000Y-121835000D03*
X85095000Y-123710000D03*
%TD*%
D13*
%TO.C,R91*%
X88240000Y-114730000D03*
X90065000Y-114730000D03*
%TD*%
D14*
%TO.C,R101*%
X81190000Y-116810000D03*
X81190000Y-117960000D03*
%TD*%
D15*
%TO.C,F46*%
X69130000Y-109700000D03*
X69130000Y-112500000D03*
%TD*%
D13*
%TO.C,R93*%
X80367500Y-114660000D03*
X82192500Y-114660000D03*
%TD*%
D16*
%TO.C,C10*%
X81000000Y-77235000D03*
X81000000Y-78785000D03*
%TD*%
D17*
%TO.C,R52*%
X98880000Y-101455000D03*
X98880000Y-99805000D03*
%TD*%
D13*
%TO.C,R81*%
X95987500Y-73795000D03*
X97812500Y-73795000D03*
%TD*%
D15*
%TO.C,F41*%
X81110000Y-109800000D03*
X81110000Y-112600000D03*
%TD*%
D18*
%TO.C,TR2*%
X88855000Y-57955000D03*
X90855000Y-57955000D03*
X92855000Y-57955000D03*
X94855000Y-57955000D03*
X96855000Y-57955000D03*
X98855000Y-57955000D03*
D19*
X98855000Y-71705000D03*
D18*
X96855000Y-71705000D03*
X94855000Y-71705000D03*
X92855000Y-71705000D03*
X90855000Y-71705000D03*
X88855000Y-71705000D03*
%TD*%
D20*
%TO.C,Q17*%
X71380000Y-60955000D03*
X73680000Y-60955000D03*
X75980000Y-60955000D03*
D21*
X73680000Y-67255000D03*
%TD*%
D22*
%TO.C,R89*%
X93720000Y-101655000D03*
X93720000Y-99830000D03*
%TD*%
D23*
%TO.C,C33*%
X90850000Y-77145000D03*
X90850000Y-75595000D03*
%TD*%
D24*
%TO.C,R36*%
X84220000Y-119735000D03*
X85870000Y-119735000D03*
%TD*%
D15*
%TO.C,F39*%
X84910000Y-109830000D03*
X84910000Y-112630000D03*
%TD*%
D11*
%TO.C,R110*%
X95980000Y-81440000D03*
X97130000Y-81440000D03*
%TD*%
D12*
%TO.C,Q22*%
X76345000Y-121797500D03*
X78245000Y-121797500D03*
X77295000Y-123672500D03*
%TD*%
D25*
%TO.C,F64*%
X90920000Y-100160000D03*
X88120000Y-100160000D03*
%TD*%
D22*
%TO.C,R86*%
X93890000Y-90075000D03*
X93890000Y-88250000D03*
%TD*%
D26*
%TO.C,U2*%
X82455000Y-88880000D03*
X82455000Y-89380000D03*
X82455000Y-89880000D03*
X82455000Y-90380000D03*
X82455000Y-90880000D03*
X82455000Y-91380000D03*
X82455000Y-91880000D03*
X82455000Y-92380000D03*
X82455000Y-92880000D03*
X82455000Y-93380000D03*
X82455000Y-93880000D03*
X82455000Y-94380000D03*
X82455000Y-94880000D03*
X82455000Y-95380000D03*
X82455000Y-95880000D03*
X82455000Y-96380000D03*
D27*
X80505000Y-98330000D03*
X80005000Y-98330000D03*
X79505000Y-98330000D03*
X79005000Y-98330000D03*
X78505000Y-98330000D03*
X78005000Y-98330000D03*
X77505000Y-98330000D03*
X77005000Y-98330000D03*
X76505000Y-98330000D03*
X76005000Y-98330000D03*
X75505000Y-98330000D03*
X75005000Y-98330000D03*
X74505000Y-98330000D03*
X74005000Y-98330000D03*
X73505000Y-98330000D03*
X73005000Y-98330000D03*
D26*
X71055000Y-96380000D03*
X71055000Y-95880000D03*
X71055000Y-95380000D03*
X71055000Y-94880000D03*
X71055000Y-94380000D03*
X71055000Y-93880000D03*
X71055000Y-93380000D03*
X71055000Y-92880000D03*
X71055000Y-92380000D03*
X71055000Y-91880000D03*
X71055000Y-91380000D03*
X71055000Y-90880000D03*
X71055000Y-90380000D03*
X71055000Y-89880000D03*
X71055000Y-89380000D03*
X71055000Y-88880000D03*
D27*
X73005000Y-86930000D03*
X73505000Y-86930000D03*
X74005000Y-86930000D03*
X74505000Y-86930000D03*
X75005000Y-86930000D03*
X75505000Y-86930000D03*
X76005000Y-86930000D03*
X76505000Y-86930000D03*
X77005000Y-86930000D03*
X77505000Y-86930000D03*
X78005000Y-86930000D03*
X78505000Y-86930000D03*
X79005000Y-86930000D03*
X79505000Y-86930000D03*
X80005000Y-86930000D03*
X80505000Y-86930000D03*
%TD*%
D17*
%TO.C,R48*%
X99007500Y-93375000D03*
X99007500Y-91725000D03*
%TD*%
D28*
%TO.C,D23*%
X67375000Y-84610000D03*
X69125000Y-84610000D03*
%TD*%
D14*
%TO.C,R102*%
X84970000Y-116780000D03*
X84970000Y-117930000D03*
%TD*%
D29*
%TO.C,D20*%
X80855000Y-74505000D03*
X80855000Y-71205000D03*
%TD*%
D25*
%TO.C,F67*%
X85600000Y-78550000D03*
X82800000Y-78550000D03*
%TD*%
D24*
%TO.C,R16*%
X68450000Y-119690000D03*
X70100000Y-119690000D03*
%TD*%
D17*
%TO.C,R32*%
X98905000Y-105315000D03*
X98905000Y-103665000D03*
%TD*%
D25*
%TO.C,F59*%
X90810000Y-90220000D03*
X88010000Y-90220000D03*
%TD*%
D22*
%TO.C,R84*%
X93850000Y-82142500D03*
X93850000Y-80317500D03*
%TD*%
D12*
%TO.C,Q23*%
X80245000Y-121797500D03*
X82145000Y-121797500D03*
X81195000Y-123672500D03*
%TD*%
D24*
%TO.C,R40*%
X88145000Y-119785000D03*
X89795000Y-119785000D03*
%TD*%
D30*
%TO.C,FB2*%
X71430000Y-74255000D03*
X69780000Y-74255000D03*
%TD*%
D22*
%TO.C,R85*%
X93900000Y-85935000D03*
X93900000Y-84110000D03*
%TD*%
D31*
%TO.C,C28*%
X67525000Y-66050000D03*
X69075000Y-66050000D03*
%TD*%
D10*
%TO.C,Q32*%
X101032500Y-81655000D03*
X101032500Y-79755000D03*
X102907500Y-80705000D03*
%TD*%
D24*
%TO.C,R20*%
X72445000Y-119735000D03*
X74095000Y-119735000D03*
%TD*%
D32*
%TO.C,F35*%
X88190000Y-104560000D03*
X90990000Y-104560000D03*
%TD*%
D13*
%TO.C,R94*%
X76357500Y-114670000D03*
X78182500Y-114670000D03*
%TD*%
%TO.C,R92*%
X84307500Y-114740000D03*
X86132500Y-114740000D03*
%TD*%
%TO.C,R76*%
X66477500Y-68870000D03*
X68302500Y-68870000D03*
%TD*%
D22*
%TO.C,R88*%
X93830000Y-97845000D03*
X93830000Y-96020000D03*
%TD*%
D10*
%TO.C,Q29*%
X100970000Y-93500000D03*
X100970000Y-91600000D03*
X102845000Y-92550000D03*
%TD*%
%TO.C,Q30*%
X100960000Y-89610000D03*
X100960000Y-87710000D03*
X102835000Y-88660000D03*
%TD*%
D13*
%TO.C,R82*%
X89907500Y-73870000D03*
X91732500Y-73870000D03*
%TD*%
D33*
%TO.C,C30*%
X80205000Y-63680000D03*
X78655000Y-63680000D03*
%TD*%
D10*
%TO.C,Q28*%
X100975000Y-97520000D03*
X100975000Y-95620000D03*
X102850000Y-96570000D03*
%TD*%
D11*
%TO.C,R108*%
X96000000Y-89370000D03*
X97150000Y-89370000D03*
%TD*%
D25*
%TO.C,F57*%
X90810000Y-93490000D03*
X88010000Y-93490000D03*
%TD*%
D31*
%TO.C,C26*%
X67270000Y-79080000D03*
X68820000Y-79080000D03*
%TD*%
D10*
%TO.C,Q31*%
X100972500Y-85710000D03*
X100972500Y-83810000D03*
X102847500Y-84760000D03*
%TD*%
D24*
%TO.C,R24*%
X76445000Y-119735000D03*
X78095000Y-119735000D03*
%TD*%
D34*
%TO.C,R78*%
X77175000Y-77150000D03*
X77175000Y-78800000D03*
%TD*%
D23*
%TO.C,C32*%
X96925000Y-77010000D03*
X96925000Y-75460000D03*
%TD*%
D35*
%TO.C,R74*%
X84517500Y-76410000D03*
X82692500Y-76410000D03*
%TD*%
D24*
%TO.C,R28*%
X80445000Y-119735000D03*
X82095000Y-119735000D03*
%TD*%
D14*
%TO.C,R72*%
X65170000Y-116700000D03*
X65170000Y-117850000D03*
%TD*%
D12*
%TO.C,Q18*%
X60100000Y-121690000D03*
X62000000Y-121690000D03*
X61050000Y-123565000D03*
%TD*%
D24*
%TO.C,R83*%
X67280000Y-82570000D03*
X68930000Y-82570000D03*
%TD*%
D13*
%TO.C,R95*%
X72360000Y-114640000D03*
X74185000Y-114640000D03*
%TD*%
D15*
%TO.C,F49*%
X65220000Y-109710000D03*
X65220000Y-112510000D03*
%TD*%
D14*
%TO.C,R68*%
X61130000Y-116670000D03*
X61130000Y-117820000D03*
%TD*%
D25*
%TO.C,F61*%
X90860000Y-87180000D03*
X88060000Y-87180000D03*
%TD*%
D13*
%TO.C,R96*%
X68260000Y-114730000D03*
X70085000Y-114730000D03*
%TD*%
D14*
%TO.C,R73*%
X69260000Y-116750000D03*
X69260000Y-117900000D03*
%TD*%
D11*
%TO.C,R109*%
X96020000Y-85460000D03*
X97170000Y-85460000D03*
%TD*%
D31*
%TO.C,C27*%
X67230000Y-80720000D03*
X68780000Y-80720000D03*
%TD*%
D24*
%TO.C,R11*%
X60325000Y-119690000D03*
X61975000Y-119690000D03*
%TD*%
D35*
%TO.C,R99*%
X66190000Y-114620000D03*
X64365000Y-114620000D03*
%TD*%
D14*
%TO.C,R100*%
X77210000Y-116790000D03*
X77210000Y-117940000D03*
%TD*%
D35*
%TO.C,R98*%
X61965000Y-114620000D03*
X60140000Y-114620000D03*
%TD*%
D29*
%TO.C,D21*%
X77505000Y-74505000D03*
X77505000Y-71205000D03*
%TD*%
D17*
%TO.C,R77*%
X75475000Y-78775000D03*
X75475000Y-77125000D03*
%TD*%
D14*
%TO.C,R97*%
X73240000Y-116800000D03*
X73240000Y-117950000D03*
%TD*%
D34*
%TO.C,R79*%
X73650000Y-77100000D03*
X73650000Y-78750000D03*
%TD*%
D12*
%TO.C,Q21*%
X72420000Y-121760000D03*
X74320000Y-121760000D03*
X73370000Y-123635000D03*
%TD*%
D25*
%TO.C,F55*%
X90880000Y-96450000D03*
X88080000Y-96450000D03*
%TD*%
D15*
%TO.C,F47*%
X77250000Y-109780000D03*
X77250000Y-112580000D03*
%TD*%
D24*
%TO.C,R12*%
X64425000Y-119690000D03*
X66075000Y-119690000D03*
%TD*%
D17*
%TO.C,R44*%
X98900000Y-97395000D03*
X98900000Y-95745000D03*
%TD*%
D11*
%TO.C,R105*%
X95760000Y-100790000D03*
X96910000Y-100790000D03*
%TD*%
D33*
%TO.C,C31*%
X80205000Y-61170000D03*
X78655000Y-61170000D03*
%TD*%
D34*
%TO.C,R80*%
X71840000Y-77145000D03*
X71840000Y-78795000D03*
%TD*%
D15*
%TO.C,F37*%
X89020000Y-109810000D03*
X89020000Y-112610000D03*
%TD*%
D12*
%TO.C,Q19*%
X64150000Y-121690000D03*
X66050000Y-121690000D03*
X65100000Y-123565000D03*
%TD*%
D17*
%TO.C,R75*%
X78860000Y-78770000D03*
X78860000Y-77120000D03*
%TD*%
D12*
%TO.C,Q25*%
X88145000Y-121797500D03*
X90045000Y-121797500D03*
X89095000Y-123672500D03*
%TD*%
D25*
%TO.C,F63*%
X90880000Y-84270000D03*
X88080000Y-84270000D03*
%TD*%
%TO.C,F66*%
X69190000Y-63810000D03*
X66390000Y-63810000D03*
%TD*%
D15*
%TO.C,F51*%
X60930000Y-109740000D03*
X60930000Y-112540000D03*
%TD*%
D22*
%TO.C,R90*%
X93720000Y-106005000D03*
X93720000Y-104180000D03*
%TD*%
D15*
%TO.C,F44*%
X73170000Y-109700000D03*
X73170000Y-112500000D03*
%TD*%
D12*
%TO.C,Q20*%
X68350000Y-121690000D03*
X70250000Y-121690000D03*
X69300000Y-123565000D03*
%TD*%
D11*
%TO.C,R106*%
X95915000Y-97030000D03*
X97065000Y-97030000D03*
%TD*%
D17*
%TO.C,R56*%
X98952500Y-89475000D03*
X98952500Y-87825000D03*
%TD*%
D14*
%TO.C,R103*%
X88880000Y-116830000D03*
X88880000Y-117980000D03*
%TD*%
D17*
%TO.C,R64*%
X98920000Y-81615000D03*
X98920000Y-79965000D03*
%TD*%
D29*
%TO.C,D22*%
X74155000Y-74505000D03*
X74155000Y-71205000D03*
%TD*%
D17*
%TO.C,R60*%
X98910000Y-85585000D03*
X98910000Y-83935000D03*
%TD*%
D33*
%TO.C,C29*%
X80205000Y-66190000D03*
X78655000Y-66190000D03*
%TD*%
D22*
%TO.C,R87*%
X93910000Y-93895000D03*
X93910000Y-92070000D03*
%TD*%
D10*
%TO.C,Q26*%
X101030000Y-105595000D03*
X101030000Y-103695000D03*
X102905000Y-104645000D03*
%TD*%
M02*
