%TF.GenerationSoftware,KiCad,Pcbnew,9.0.4*%
%TF.CreationDate,2026-05-04T01:12:03+01:00*%
%TF.ProjectId,BMS-Master,424d532d-4d61-4737-9465-722e6b696361,rev?*%
%TF.SameCoordinates,Original*%
%TF.FileFunction,Legend,Bot*%
%TF.FilePolarity,Positive*%
%FSLAX46Y46*%
G04 Gerber Fmt 4.6, Leading zero omitted, Abs format (unit mm)*
G04 Created by KiCad (PCBNEW 9.0.4) date 2026-05-04 01:12:03*
%MOMM*%
%LPD*%
G01*
G04 APERTURE LIST*
%ADD10C,0.150000*%
G04 APERTURE END LIST*
D10*
X121439819Y-58333982D02*
X120963628Y-58000649D01*
X121439819Y-57762554D02*
X120439819Y-57762554D01*
X120439819Y-57762554D02*
X120439819Y-58143506D01*
X120439819Y-58143506D02*
X120487438Y-58238744D01*
X120487438Y-58238744D02*
X120535057Y-58286363D01*
X120535057Y-58286363D02*
X120630295Y-58333982D01*
X120630295Y-58333982D02*
X120773152Y-58333982D01*
X120773152Y-58333982D02*
X120868390Y-58286363D01*
X120868390Y-58286363D02*
X120916009Y-58238744D01*
X120916009Y-58238744D02*
X120963628Y-58143506D01*
X120963628Y-58143506D02*
X120963628Y-57762554D01*
X121439819Y-59286363D02*
X121439819Y-58714935D01*
X121439819Y-59000649D02*
X120439819Y-59000649D01*
X120439819Y-59000649D02*
X120582676Y-58905411D01*
X120582676Y-58905411D02*
X120677914Y-58810173D01*
X120677914Y-58810173D02*
X120725533Y-58714935D01*
X120439819Y-60143506D02*
X120439819Y-59953030D01*
X120439819Y-59953030D02*
X120487438Y-59857792D01*
X120487438Y-59857792D02*
X120535057Y-59810173D01*
X120535057Y-59810173D02*
X120677914Y-59714935D01*
X120677914Y-59714935D02*
X120868390Y-59667316D01*
X120868390Y-59667316D02*
X121249342Y-59667316D01*
X121249342Y-59667316D02*
X121344580Y-59714935D01*
X121344580Y-59714935D02*
X121392200Y-59762554D01*
X121392200Y-59762554D02*
X121439819Y-59857792D01*
X121439819Y-59857792D02*
X121439819Y-60048268D01*
X121439819Y-60048268D02*
X121392200Y-60143506D01*
X121392200Y-60143506D02*
X121344580Y-60191125D01*
X121344580Y-60191125D02*
X121249342Y-60238744D01*
X121249342Y-60238744D02*
X121011247Y-60238744D01*
X121011247Y-60238744D02*
X120916009Y-60191125D01*
X120916009Y-60191125D02*
X120868390Y-60143506D01*
X120868390Y-60143506D02*
X120820771Y-60048268D01*
X120820771Y-60048268D02*
X120820771Y-59857792D01*
X120820771Y-59857792D02*
X120868390Y-59762554D01*
X120868390Y-59762554D02*
X120916009Y-59714935D01*
X120916009Y-59714935D02*
X121011247Y-59667316D01*
%TO.C,R16*%
X78985000Y-48976840D02*
X78985000Y-68976840D01*
X78985000Y-68976840D02*
X163985000Y-68976840D01*
X163985000Y-48976840D02*
X78985000Y-48976840D01*
X163985000Y-68976840D02*
X163985000Y-48976840D01*
%TD*%
M02*
