%TF.GenerationSoftware,KiCad,Pcbnew,9.0.4*%
%TF.CreationDate,2026-05-04T01:12:03+01:00*%
%TF.ProjectId,BMS-Master,424d532d-4d61-4737-9465-722e6b696361,rev?*%
%TF.SameCoordinates,Original*%
%TF.FileFunction,Copper,L2,Bot*%
%TF.FilePolarity,Positive*%
%FSLAX46Y46*%
G04 Gerber Fmt 4.6, Leading zero omitted, Abs format (unit mm)*
G04 Created by KiCad (PCBNEW 9.0.4) date 2026-05-04 01:12:03*
%MOMM*%
%LPD*%
G01*
G04 APERTURE LIST*
G04 Aperture macros list*
%AMRoundRect*
0 Rectangle with rounded corners*
0 $1 Rounding radius*
0 $2 $3 $4 $5 $6 $7 $8 $9 X,Y pos of 4 corners*
0 Add a 4 corners polygon primitive as box body*
4,1,4,$2,$3,$4,$5,$6,$7,$8,$9,$2,$3,0*
0 Add four circle primitives for the rounded corners*
1,1,$1+$1,$2,$3*
1,1,$1+$1,$4,$5*
1,1,$1+$1,$6,$7*
1,1,$1+$1,$8,$9*
0 Add four rect primitives between the rounded corners*
20,1,$1+$1,$2,$3,$4,$5,0*
20,1,$1+$1,$4,$5,$6,$7,0*
20,1,$1+$1,$6,$7,$8,$9,0*
20,1,$1+$1,$8,$9,$2,$3,0*%
G04 Aperture macros list end*
%TA.AperFunction,ComponentPad*%
%ADD10R,2.600000X2.600000*%
%TD*%
%TA.AperFunction,ComponentPad*%
%ADD11C,2.600000*%
%TD*%
%TA.AperFunction,ComponentPad*%
%ADD12O,2.100000X1.000000*%
%TD*%
%TA.AperFunction,ComponentPad*%
%ADD13O,1.800000X1.000000*%
%TD*%
%TA.AperFunction,ComponentPad*%
%ADD14RoundRect,0.250000X-0.600000X-0.750000X0.600000X-0.750000X0.600000X0.750000X-0.600000X0.750000X0*%
%TD*%
%TA.AperFunction,ComponentPad*%
%ADD15O,1.700000X2.000000*%
%TD*%
%TA.AperFunction,ComponentPad*%
%ADD16C,0.600000*%
%TD*%
%TA.AperFunction,SMDPad,CuDef*%
%ADD17R,2.300000X2.800000*%
%TD*%
%TA.AperFunction,ComponentPad*%
%ADD18C,9.500000*%
%TD*%
%TA.AperFunction,ComponentPad*%
%ADD19C,16.000000*%
%TD*%
%TA.AperFunction,ComponentPad*%
%ADD20RoundRect,0.250000X-0.725000X0.600000X-0.725000X-0.600000X0.725000X-0.600000X0.725000X0.600000X0*%
%TD*%
%TA.AperFunction,ComponentPad*%
%ADD21O,1.950000X1.700000*%
%TD*%
%TA.AperFunction,ComponentPad*%
%ADD22RoundRect,0.250000X0.600000X0.725000X-0.600000X0.725000X-0.600000X-0.725000X0.600000X-0.725000X0*%
%TD*%
%TA.AperFunction,ComponentPad*%
%ADD23O,1.700000X1.950000*%
%TD*%
%TA.AperFunction,ComponentPad*%
%ADD24RoundRect,0.250000X-0.750000X0.600000X-0.750000X-0.600000X0.750000X-0.600000X0.750000X0.600000X0*%
%TD*%
%TA.AperFunction,ComponentPad*%
%ADD25O,2.000000X1.700000*%
%TD*%
%TA.AperFunction,ComponentPad*%
%ADD26RoundRect,0.250000X0.600000X0.750000X-0.600000X0.750000X-0.600000X-0.750000X0.600000X-0.750000X0*%
%TD*%
%TA.AperFunction,ComponentPad*%
%ADD27RoundRect,0.250000X0.750000X-0.600000X0.750000X0.600000X-0.750000X0.600000X-0.750000X-0.600000X0*%
%TD*%
%TA.AperFunction,ComponentPad*%
%ADD28RoundRect,0.250000X-0.600000X-0.725000X0.600000X-0.725000X0.600000X0.725000X-0.600000X0.725000X0*%
%TD*%
%TA.AperFunction,SMDPad,CuDef*%
%ADD29R,7.500000X20.000000*%
%TD*%
%TA.AperFunction,SMDPad,CuDef*%
%ADD30R,8.000000X20.000000*%
%TD*%
%TA.AperFunction,ViaPad*%
%ADD31C,0.650000*%
%TD*%
%TA.AperFunction,Conductor*%
%ADD32C,0.250000*%
%TD*%
%TA.AperFunction,Conductor*%
%ADD33C,2.000000*%
%TD*%
%TA.AperFunction,Conductor*%
%ADD34C,0.500000*%
%TD*%
G04 APERTURE END LIST*
D10*
%TO.P,J6,1,Pin_1*%
%TO.N,/Load+*%
X91665000Y-167837500D03*
D11*
%TO.P,J6,2,Pin_2*%
%TO.N,GNDREF*%
X96745000Y-167837500D03*
%TD*%
D12*
%TO.P,J17,SH1,SHIELD*%
%TO.N,GND*%
X166335000Y-120298840D03*
%TO.P,J17,SH2,SHIELD*%
X166335000Y-111658840D03*
D13*
%TO.P,J17,SH3,SHIELD*%
X170515000Y-120298840D03*
%TO.P,J17,SH4,SHIELD*%
X170515000Y-111658840D03*
%TD*%
D14*
%TO.P,J10,1,Pin_1*%
%TO.N,/BMS_OK/Multipurpose_enable_S*%
X148240000Y-124853840D03*
D15*
%TO.P,J10,2,Pin_2*%
%TO.N,/BMS_OK/Discharge_enable_S*%
X150740000Y-124853840D03*
%TD*%
D16*
%TO.P,U11,11,PAD*%
%TO.N,GND*%
X111800000Y-105677840D03*
X111800000Y-107177840D03*
X112300000Y-106427840D03*
D17*
X112300000Y-106427840D03*
D16*
X112800000Y-105677840D03*
X112800000Y-107177840D03*
%TD*%
D18*
%TO.P,J2,*%
%TO.N,*%
X78120001Y-164126840D03*
D19*
%TO.P,J2,1*%
%TO.N,/Load+*%
X91455001Y-145126840D03*
%TO.P,J2,2*%
%TO.N,/BAT+*%
X64785001Y-145126840D03*
%TD*%
D20*
%TO.P,J15,1,Pin_1*%
%TO.N,+3V3*%
X148440000Y-100878840D03*
D21*
%TO.P,J15,2,Pin_2*%
%TO.N,/MCU/SWCLK*%
X148440000Y-103378840D03*
%TO.P,J15,3,Pin_3*%
%TO.N,GND*%
X148440000Y-105878840D03*
%TO.P,J15,4,Pin_4*%
%TO.N,/MCU/SWDIO*%
X148440000Y-108378840D03*
%TO.P,J15,5,Pin_5*%
%TO.N,/MCU/NRST*%
X148440000Y-110878840D03*
%TD*%
D22*
%TO.P,J11,1,Pin_1*%
%TO.N,/CAN/Enable_CAN*%
X169140000Y-86778840D03*
D23*
%TO.P,J11,2,Pin_2*%
%TO.N,/CAN/5V_CAN*%
X166640000Y-86778840D03*
%TO.P,J11,3,Pin_3*%
%TO.N,/CAN/CANH*%
X164140000Y-86778840D03*
%TO.P,J11,4,Pin_4*%
%TO.N,/CAN/CANL*%
X161640000Y-86778840D03*
%TO.P,J11,5,Pin_5*%
%TO.N,/CAN/CAN_GND*%
X159140000Y-86778840D03*
%TD*%
D10*
%TO.P,J13,1,Pin_1*%
%TO.N,Net-(J13-Pin_1)*%
X45170000Y-162720000D03*
D11*
%TO.P,J13,2,Pin_2*%
%TO.N,/Load+*%
X45170000Y-167800000D03*
%TD*%
D24*
%TO.P,J14,1,Pin_1*%
%TO.N,Net-(J14-Pin_1)*%
X111550000Y-86027840D03*
D25*
%TO.P,J14,2,Pin_2*%
%TO.N,GND*%
X111550000Y-88527840D03*
%TD*%
D22*
%TO.P,J5,1,Pin_1*%
%TO.N,GND*%
X152040000Y-86803840D03*
D23*
%TO.P,J5,2,Pin_2*%
%TO.N,/PowerSupply/PushButton*%
X149540000Y-86803840D03*
%TO.P,J5,3,Pin_3*%
%TO.N,+3V3*%
X147040000Y-86803840D03*
%TO.P,J5,4,Pin_4*%
%TO.N,Net-(J5-Pin_4)*%
X144540000Y-86803840D03*
%TO.P,J5,5,Pin_5*%
%TO.N,GND*%
X142040000Y-86803840D03*
%TD*%
D26*
%TO.P,J4,1,Pin_1*%
%TO.N,+12V*%
X102415000Y-108528840D03*
D15*
%TO.P,J4,2,Pin_2*%
%TO.N,GND*%
X99915000Y-108528840D03*
%TD*%
D10*
%TO.P,J1,1,Pin_1*%
%TO.N,/BAT+*%
X45010000Y-150410000D03*
D11*
%TO.P,J1,2,Pin_2*%
%TO.N,GNDA*%
X45010000Y-155490000D03*
%TD*%
D27*
%TO.P,J7,1,Pin_1*%
%TO.N,/MCU/MA_CELL*%
X167533000Y-134726840D03*
D25*
%TO.P,J7,2,Pin_2*%
%TO.N,/MCU/PA_CELL*%
X167533000Y-132226840D03*
%TD*%
D18*
%TO.P,J3,*%
%TO.N,*%
X78150000Y-39976840D03*
D19*
%TO.P,J3,1*%
%TO.N,/PowerMonitor/Current*%
X91485000Y-58976840D03*
%TO.P,J3,2*%
%TO.N,GNDREF*%
X64815000Y-58976840D03*
%TD*%
D14*
%TO.P,J8,1,Pin_1*%
%TO.N,/MCU/MA_TEMP*%
X118765000Y-147678840D03*
D15*
%TO.P,J8,2,Pin_2*%
%TO.N,/MCU/PA_TEMP*%
X121265000Y-147678840D03*
%TD*%
D14*
%TO.P,J9,1,Pin_1*%
%TO.N,/BMS_OK/Charger_Safety_S*%
X138365000Y-124978840D03*
D15*
%TO.P,J9,2,Pin_2*%
%TO.N,/BMS_OK/Charge_enable_S*%
X140865000Y-124978840D03*
%TD*%
D28*
%TO.P,J16,1,Pin_1*%
%TO.N,+3V3*%
X158950000Y-124828840D03*
D23*
%TO.P,J16,2,Pin_2*%
%TO.N,unconnected-(J16-Pin_2-Pad2)*%
X161450000Y-124828840D03*
%TO.P,J16,3,Pin_3*%
%TO.N,/MCU/TX_USB*%
X163950000Y-124828840D03*
%TO.P,J16,4,Pin_4*%
%TO.N,/MCU/RX_USB*%
X166450000Y-124828840D03*
%TO.P,J16,5,Pin_5*%
%TO.N,GND*%
X168950000Y-124828840D03*
%TD*%
D29*
%TO.P,R16,1*%
%TO.N,GNDA*%
X130235000Y-58976840D03*
D19*
X151485000Y-58976840D03*
%TO.P,R16,2*%
%TO.N,/PowerMonitor/Current*%
X91485000Y-58976840D03*
D30*
X112735000Y-58976840D03*
%TD*%
D31*
%TO.N,+3V3*%
X128740000Y-129003840D03*
X152140000Y-106628840D03*
X141940000Y-101703840D03*
X128890000Y-100078840D03*
X83040000Y-94728840D03*
X96990000Y-87028840D03*
X152265000Y-92053840D03*
X110058500Y-91685340D03*
X114840000Y-120578840D03*
X152340000Y-112428840D03*
X134890000Y-129003840D03*
X132683750Y-102235090D03*
X81252500Y-104416340D03*
X142415000Y-109003840D03*
X81170000Y-89558840D03*
X116290000Y-114878840D03*
X125140000Y-120328840D03*
X155390000Y-114628840D03*
X160340000Y-116028840D03*
X128866250Y-91552590D03*
X115690000Y-91685340D03*
X124790000Y-86178840D03*
X151215000Y-98103840D03*
%TO.N,GNDA*%
X125000000Y-69900000D03*
X66765000Y-81728840D03*
X139095000Y-58976840D03*
X71465000Y-81753840D03*
X66420000Y-91370000D03*
X62365000Y-83603840D03*
X118400000Y-71700000D03*
%TO.N,GND*%
X124740000Y-113828840D03*
X117240000Y-115828840D03*
X143940000Y-113028840D03*
X116240000Y-121278840D03*
X136890000Y-99028840D03*
X118690000Y-98878840D03*
X162740000Y-109678840D03*
X136090000Y-133128840D03*
X128240000Y-134678840D03*
X117540000Y-101178840D03*
X162990000Y-113328840D03*
X115750000Y-84800000D03*
X142890000Y-117728840D03*
%TO.N,+12V*%
X114040000Y-108853840D03*
X134490000Y-82628840D03*
X109665000Y-105927840D03*
X110140000Y-82628840D03*
%TO.N,GNDREF*%
X74300000Y-76750000D03*
%TO.N,/PowerMonitor/ISO+5V_LOAD*%
X60815000Y-106403840D03*
X69290000Y-94653840D03*
%TO.N,/USB/Vusb*%
X163290000Y-110878840D03*
X164440000Y-113478840D03*
%TO.N,/CAN/5V_CAN*%
X156240000Y-95778840D03*
X160315000Y-95053840D03*
%TO.N,/CAN/CAN_GND*%
X163890000Y-95453840D03*
X161990000Y-90128840D03*
X159140000Y-90153840D03*
%TO.N,Net-(C47-Pad2)*%
X141740000Y-130528840D03*
X141790000Y-135753840D03*
%TO.N,/PowerMonitor/Vbat*%
X119790000Y-98078840D03*
X105890000Y-96553840D03*
%TO.N,Net-(C48-Pad2)*%
X123940000Y-123028840D03*
X116040000Y-123028840D03*
%TO.N,/MCU/NRST*%
X133965000Y-107103840D03*
X143890000Y-110878840D03*
%TO.N,/USB/D+*%
X163740000Y-116328840D03*
X164440000Y-114878840D03*
X163540000Y-118128840D03*
%TO.N,Net-(D13-A)*%
X117515000Y-103053840D03*
X125265000Y-97803840D03*
%TO.N,/CAN/EnableRequest*%
X142990000Y-97903840D03*
X166040000Y-109628840D03*
%TO.N,/PowerSupply/ChargeDetect*%
X117765000Y-92578840D03*
X85135000Y-111133840D03*
X130815000Y-96178840D03*
%TO.N,Net-(J5-Pin_4)*%
X151365000Y-95528840D03*
X147215000Y-89503840D03*
%TO.N,/BMS_OK/Discharge_enable_S*%
X151840000Y-120978840D03*
X150090000Y-117278840D03*
%TO.N,/PowerMonitor/Current*%
X105695000Y-58976840D03*
%TO.N,/BAT+*%
X44985670Y-92175670D03*
%TO.N,/MCU/TX_USB*%
X132340000Y-113503840D03*
X153440000Y-126078840D03*
%TO.N,/MCU/RX_USB*%
X153040000Y-122403840D03*
X157715000Y-123253840D03*
X133390000Y-113478840D03*
X156140000Y-123278840D03*
%TO.N,/MCU/PowerButton*%
X137715000Y-100553840D03*
X142790000Y-92153840D03*
%TO.N,/MCU/PowerEnable*%
X120965000Y-108928840D03*
X135115000Y-108053840D03*
%TO.N,Net-(Q4-D)*%
X115815000Y-106178840D03*
X128215000Y-95803840D03*
%TO.N,Net-(Q7-G)*%
X137915000Y-116553840D03*
X140765000Y-116278840D03*
%TO.N,/MCU/Vpack*%
X130965000Y-109728840D03*
X104240000Y-104728840D03*
%TO.N,Net-(U4-VOUTP)*%
X85015000Y-98078840D03*
X87990000Y-97878840D03*
%TO.N,Net-(U9A-+)*%
X99945000Y-92523840D03*
X95040000Y-90978840D03*
%TO.N,Net-(U9B--)*%
X95440000Y-102028840D03*
X97740000Y-102023840D03*
%TO.N,Net-(U9B-+)*%
X96440000Y-98628840D03*
X98540000Y-99528840D03*
%TO.N,/MCU/MISO*%
X134190000Y-126678840D03*
X124455380Y-115563460D03*
%TO.N,Net-(U14-IP)*%
X119690000Y-119778840D03*
X121290000Y-123373840D03*
%TO.N,Net-(U14-IM)*%
X118565000Y-120078840D03*
X118487500Y-123576340D03*
%TO.N,Net-(U15-TXD)*%
X157440000Y-121828840D03*
X155165000Y-121528840D03*
%TO.N,/BMS_OK/Multipurpose_enable*%
X144990000Y-120128840D03*
X144790000Y-114278840D03*
%TO.N,Net-(U8-D1)*%
X86840000Y-103128840D03*
X84140000Y-103128840D03*
%TO.N,/MCU/SCL*%
X125315000Y-102878840D03*
X138540000Y-107628840D03*
%TO.N,/MCU/SDA*%
X124490000Y-101153840D03*
X139102500Y-106866340D03*
%TO.N,Net-(U8-D2)*%
X84240000Y-107828840D03*
X87140000Y-107528840D03*
%TO.N,/MCU/MOSI*%
X121665000Y-112178840D03*
X135765000Y-127153840D03*
%TO.N,/MCU/SCK*%
X121284646Y-116328840D03*
X133065000Y-126678840D03*
%TO.N,/CAN/CAN_RX*%
X143490000Y-107353840D03*
X149790000Y-113778840D03*
%TO.N,/CAN/CAN_TX*%
X143665000Y-106378840D03*
X161390000Y-109178840D03*
%TO.N,/MCU/CS_TEMP*%
X119815000Y-112303840D03*
X137940000Y-110228840D03*
%TD*%
D32*
%TO.N,+3V3*%
X119283500Y-91685340D02*
X115690000Y-91685340D01*
X152340000Y-112428840D02*
X152340000Y-112378840D01*
X132683750Y-102235090D02*
X132677500Y-102228840D01*
X158940000Y-114628840D02*
X160340000Y-116028840D01*
X152140000Y-112178840D02*
X152140000Y-106628840D01*
X152265000Y-97053840D02*
X151215000Y-98103840D01*
X80440000Y-90288840D02*
X80440000Y-92128840D01*
X152340000Y-112378840D02*
X152140000Y-112178840D01*
X133215000Y-101703840D02*
X141940000Y-101703840D01*
X80440000Y-92128840D02*
X83040000Y-94728840D01*
X129240000Y-99728840D02*
X128890000Y-100078840D01*
X80370000Y-90358840D02*
X80370000Y-103533840D01*
X125140000Y-120328840D02*
X125140000Y-125403840D01*
X128866250Y-91552590D02*
X129240000Y-91926340D01*
X115690000Y-91685340D02*
X110058500Y-91685340D01*
X105415000Y-87028840D02*
X110058500Y-91672340D01*
X142415000Y-102178840D02*
X141940000Y-101703840D01*
X134890000Y-129003840D02*
X128740000Y-129003840D01*
X142415000Y-109003840D02*
X142415000Y-102178840D01*
X160340000Y-123438840D02*
X160340000Y-116028840D01*
X142765000Y-100878840D02*
X141940000Y-101703840D01*
X125140000Y-125403840D02*
X128740000Y-129003840D01*
X114840000Y-116328840D02*
X114840000Y-120578840D01*
X131040000Y-102228840D02*
X128890000Y-100078840D01*
X116290000Y-114878840D02*
X114840000Y-116328840D01*
X124790000Y-86178840D02*
X119283500Y-91685340D01*
X148440000Y-100878840D02*
X142765000Y-100878840D01*
X129240000Y-91926340D02*
X129240000Y-99728840D01*
X81170000Y-89558840D02*
X80370000Y-90358840D01*
X80370000Y-103533840D02*
X81252500Y-104416340D01*
X132677500Y-102228840D02*
X131040000Y-102228840D01*
X110058500Y-91672340D02*
X110058500Y-91685340D01*
X81170000Y-89558840D02*
X80440000Y-90288840D01*
X132683750Y-102235090D02*
X133215000Y-101703840D01*
X155390000Y-114628840D02*
X158940000Y-114628840D01*
X152265000Y-92053840D02*
X152265000Y-97053840D01*
X96990000Y-87028840D02*
X105415000Y-87028840D01*
X158950000Y-124828840D02*
X160340000Y-123438840D01*
%TO.N,GNDA*%
X71465000Y-81753840D02*
X66790000Y-81753840D01*
D33*
X139095000Y-58976840D02*
X146224000Y-58976840D01*
D32*
X66420000Y-91370000D02*
X62365000Y-87315000D01*
X75639000Y-74694542D02*
X75639000Y-79611000D01*
X49115000Y-145378839D02*
X49115001Y-145378840D01*
D33*
X130235000Y-58976840D02*
X139095000Y-58976840D01*
D32*
X118400000Y-71700000D02*
X78633542Y-71700000D01*
D34*
X62365000Y-83603840D02*
X48980000Y-96988840D01*
X48980000Y-151520000D02*
X45010000Y-155490000D01*
D32*
X118400000Y-71700000D02*
X123200000Y-71700000D01*
X78633542Y-71700000D02*
X75639000Y-74694542D01*
X73496160Y-81753840D02*
X71465000Y-81753840D01*
X66790000Y-81753840D02*
X66765000Y-81728840D01*
X123200000Y-71700000D02*
X125000000Y-69900000D01*
X62365000Y-87315000D02*
X62365000Y-83603840D01*
X75639000Y-79611000D02*
X73496160Y-81753840D01*
D34*
X48980000Y-96988840D02*
X48980000Y-151520000D01*
D32*
X66765000Y-81728840D02*
X64890000Y-83603840D01*
X64890000Y-83603840D02*
X62365000Y-83603840D01*
%TO.N,GND*%
X162640000Y-109778840D02*
X162740000Y-109678840D01*
X117299000Y-101178840D02*
X112800000Y-105677840D01*
X142890000Y-117728840D02*
X143940000Y-116678840D01*
X116240000Y-121278840D02*
X116240000Y-116828840D01*
X118690000Y-98878840D02*
X117540000Y-100028840D01*
X136090000Y-133128840D02*
X134540000Y-134678840D01*
X119240000Y-113828840D02*
X117240000Y-115828840D01*
X162990000Y-113328840D02*
X162640000Y-112978840D01*
X116240000Y-116828840D02*
X117240000Y-115828840D01*
X124740000Y-113828840D02*
X119240000Y-113828840D01*
X117540000Y-100028840D02*
X117540000Y-101178840D01*
X162640000Y-112978840D02*
X162640000Y-109778840D01*
X117540000Y-101178840D02*
X117299000Y-101178840D01*
X112022160Y-88527840D02*
X111550000Y-88527840D01*
X115750000Y-84800000D02*
X112022160Y-88527840D01*
X134540000Y-134678840D02*
X128240000Y-134678840D01*
X143940000Y-116678840D02*
X143940000Y-113028840D01*
%TO.N,+12V*%
X134490000Y-82628840D02*
X110140000Y-82628840D01*
X110815000Y-108853840D02*
X109665000Y-107703840D01*
X114040000Y-108853840D02*
X110815000Y-108853840D01*
X109665000Y-107703840D02*
X109665000Y-105927840D01*
%TO.N,GNDREF*%
X64815000Y-67265000D02*
X64815000Y-58976840D01*
X74300000Y-76750000D02*
X64815000Y-67265000D01*
%TO.N,/PowerMonitor/ISO+5V_LOAD*%
X60815000Y-99078840D02*
X60815000Y-106403840D01*
X69290000Y-94653840D02*
X65240000Y-94653840D01*
X65240000Y-94653840D02*
X60815000Y-99078840D01*
%TO.N,/USB/Vusb*%
X163940000Y-112978840D02*
X163940000Y-111528840D01*
X163940000Y-111528840D02*
X163290000Y-110878840D01*
X164440000Y-113478840D02*
X163940000Y-112978840D01*
%TO.N,/CAN/5V_CAN*%
X156965000Y-95053840D02*
X160315000Y-95053840D01*
X156240000Y-95778840D02*
X156965000Y-95053840D01*
%TO.N,/CAN/CAN_GND*%
X163890000Y-95453840D02*
X163890000Y-92028840D01*
X163890000Y-92028840D02*
X161990000Y-90128840D01*
X159140000Y-90153840D02*
X161965000Y-90153840D01*
X161965000Y-90153840D02*
X161990000Y-90128840D01*
X159140000Y-86778840D02*
X159140000Y-90153840D01*
%TO.N,Net-(C47-Pad2)*%
X141790000Y-130578840D02*
X141740000Y-130528840D01*
X141790000Y-135753840D02*
X141790000Y-130578840D01*
X141815000Y-135728840D02*
X141790000Y-135753840D01*
%TO.N,/PowerMonitor/Vbat*%
X118265000Y-96553840D02*
X119790000Y-98078840D01*
X105890000Y-96553840D02*
X114615000Y-96553840D01*
X114615000Y-96553840D02*
X118265000Y-96553840D01*
%TO.N,Net-(C48-Pad2)*%
X122740000Y-124228840D02*
X117240000Y-124228840D01*
X117240000Y-124228840D02*
X116040000Y-123028840D01*
X123940000Y-123028840D02*
X122740000Y-124228840D01*
%TO.N,/MCU/NRST*%
X140165000Y-110878840D02*
X136390000Y-107103840D01*
X136390000Y-107103840D02*
X133965000Y-107103840D01*
X143890000Y-110878840D02*
X140165000Y-110878840D01*
%TO.N,/USB/D+*%
X163740000Y-117928840D02*
X163540000Y-118128840D01*
X164440000Y-114878840D02*
X164440000Y-115628840D01*
X163740000Y-116328840D02*
X163740000Y-117928840D01*
X164440000Y-115628840D02*
X163740000Y-116328840D01*
%TO.N,Net-(D13-A)*%
X122765000Y-97803840D02*
X125265000Y-97803840D01*
X117515000Y-103053840D02*
X122765000Y-97803840D01*
%TO.N,/CAN/EnableRequest*%
X166040000Y-109628840D02*
X164290000Y-109628840D01*
X144215000Y-99128840D02*
X142990000Y-97903840D01*
X164290000Y-109628840D02*
X153790000Y-99128840D01*
X153790000Y-99128840D02*
X144215000Y-99128840D01*
%TO.N,/PowerSupply/ChargeDetect*%
X120777810Y-90828840D02*
X119027810Y-92578840D01*
X90240000Y-111128840D02*
X85140000Y-111128840D01*
X129290000Y-90828840D02*
X120777810Y-90828840D01*
X108790000Y-92578840D02*
X90240000Y-111128840D01*
X117765000Y-92578840D02*
X108790000Y-92578840D01*
X130815000Y-96178840D02*
X130815000Y-92353840D01*
X119027810Y-92578840D02*
X117765000Y-92578840D01*
X130815000Y-92353840D02*
X129290000Y-90828840D01*
X85140000Y-111128840D02*
X85135000Y-111133840D01*
%TO.N,Net-(J5-Pin_4)*%
X151365000Y-93653840D02*
X151365000Y-95528840D01*
X147215000Y-89503840D02*
X151365000Y-93653840D01*
%TO.N,/BMS_OK/Discharge_enable_S*%
X151840000Y-119028840D02*
X150090000Y-117278840D01*
X151840000Y-120978840D02*
X151840000Y-119028840D01*
D33*
%TO.N,/PowerMonitor/Current*%
X112735000Y-58976840D02*
X105695000Y-58976840D01*
X105695000Y-58976840D02*
X96746000Y-58976840D01*
D34*
%TO.N,/BAT+*%
X45010000Y-92200000D02*
X45010000Y-150410000D01*
X44985670Y-92175670D02*
X45010000Y-92200000D01*
D32*
%TO.N,/MCU/TX_USB*%
X153440000Y-124703840D02*
X153440000Y-126078840D01*
X141090000Y-122253840D02*
X150990000Y-122253840D01*
X132340000Y-113503840D02*
X141090000Y-122253840D01*
X150990000Y-122253840D02*
X153440000Y-124703840D01*
%TO.N,/MCU/RX_USB*%
X141540000Y-121628840D02*
X152265000Y-121628840D01*
X152265000Y-121628840D02*
X153040000Y-122403840D01*
X156165000Y-123253840D02*
X156140000Y-123278840D01*
X157715000Y-123253840D02*
X156165000Y-123253840D01*
X133390000Y-113478840D02*
X141540000Y-121628840D01*
%TO.N,/MCU/PowerButton*%
X142790000Y-92153840D02*
X137715000Y-97228840D01*
X137715000Y-97228840D02*
X137715000Y-100553840D01*
%TO.N,/MCU/PowerEnable*%
X135115000Y-108053840D02*
X134240000Y-108928840D01*
X134240000Y-108928840D02*
X120965000Y-108928840D01*
%TO.N,Net-(Q4-D)*%
X128215000Y-95803840D02*
X117840000Y-106178840D01*
X117840000Y-106178840D02*
X115815000Y-106178840D01*
%TO.N,Net-(Q7-G)*%
X137915000Y-116553840D02*
X138190000Y-116278840D01*
X138190000Y-116278840D02*
X140765000Y-116278840D01*
%TO.N,/MCU/Vpack*%
X109240000Y-109728840D02*
X130965000Y-109728840D01*
X104240000Y-104728840D02*
X109240000Y-109728840D01*
%TO.N,Net-(U4-VOUTP)*%
X87990000Y-97878840D02*
X87840000Y-98028840D01*
X85065000Y-98028840D02*
X85015000Y-98078840D01*
X87840000Y-98028840D02*
X85065000Y-98028840D01*
%TO.N,Net-(U9A-+)*%
X95040000Y-90978840D02*
X98400000Y-90978840D01*
X98400000Y-90978840D02*
X99945000Y-92523840D01*
%TO.N,Net-(U9B--)*%
X97735000Y-102028840D02*
X95440000Y-102028840D01*
X97740000Y-102023840D02*
X97735000Y-102028840D01*
%TO.N,Net-(U9B-+)*%
X96440000Y-98628840D02*
X97640000Y-98628840D01*
X97640000Y-98628840D02*
X98540000Y-99528840D01*
%TO.N,/MCU/MISO*%
X124574620Y-115563460D02*
X134190000Y-125178840D01*
X134190000Y-125178840D02*
X134190000Y-126678840D01*
X124455380Y-115563460D02*
X124574620Y-115563460D01*
%TO.N,Net-(U14-IP)*%
X121290000Y-123373840D02*
X121290000Y-121378840D01*
X121290000Y-121378840D02*
X119690000Y-119778840D01*
%TO.N,Net-(U14-IM)*%
X118487500Y-123576340D02*
X118565000Y-123498840D01*
X118565000Y-123498840D02*
X118565000Y-120078840D01*
%TO.N,Net-(U15-TXD)*%
X155465000Y-121828840D02*
X155165000Y-121528840D01*
X157440000Y-121828840D02*
X155465000Y-121828840D01*
%TO.N,/BMS_OK/Multipurpose_enable*%
X144790000Y-114278840D02*
X144990000Y-114478840D01*
X144990000Y-114478840D02*
X144990000Y-120128840D01*
%TO.N,Net-(U8-D1)*%
X84140000Y-103128840D02*
X86840000Y-103128840D01*
%TO.N,/MCU/SCL*%
X132015000Y-105353840D02*
X129540000Y-102878840D01*
X138540000Y-107628840D02*
X136265000Y-105353840D01*
X136265000Y-105353840D02*
X132015000Y-105353840D01*
X129540000Y-102878840D02*
X125315000Y-102878840D01*
%TO.N,/MCU/SDA*%
X132340000Y-104878840D02*
X137115000Y-104878840D01*
X128615000Y-101153840D02*
X132340000Y-104878840D01*
X124490000Y-101153840D02*
X128615000Y-101153840D01*
X137115000Y-104878840D02*
X139102500Y-106866340D01*
%TO.N,Net-(U8-D2)*%
X87140000Y-107528840D02*
X86840000Y-107828840D01*
X86840000Y-107828840D02*
X84240000Y-107828840D01*
%TO.N,/MCU/MOSI*%
X121665000Y-112178840D02*
X124940000Y-112178840D01*
X135765000Y-123003840D02*
X135765000Y-127153840D01*
X124940000Y-112178840D02*
X135765000Y-123003840D01*
%TO.N,/MCU/SCK*%
X133065000Y-126653840D02*
X133065000Y-126678840D01*
X122740000Y-116328840D02*
X133065000Y-126653840D01*
X121284646Y-116328840D02*
X122740000Y-116328840D01*
%TO.N,/CAN/CAN_RX*%
X145165000Y-109028840D02*
X145165000Y-112345940D01*
X146597900Y-113778840D02*
X149790000Y-113778840D01*
X143490000Y-107353840D02*
X145165000Y-109028840D01*
X145165000Y-112345940D02*
X146597900Y-113778840D01*
%TO.N,/CAN/CAN_TX*%
X145640000Y-108353840D02*
X143665000Y-106378840D01*
X161390000Y-109178840D02*
X157465000Y-113103840D01*
X145640000Y-111928840D02*
X145640000Y-108353840D01*
X157465000Y-113103840D02*
X146815000Y-113103840D01*
X146815000Y-113103840D02*
X145640000Y-111928840D01*
%TO.N,/MCU/CS_TEMP*%
X136990000Y-110228840D02*
X135690000Y-111528840D01*
X120415000Y-111528840D02*
X119815000Y-112128840D01*
X119815000Y-112128840D02*
X119815000Y-112303840D01*
X135690000Y-111528840D02*
X120415000Y-111528840D01*
X137940000Y-110228840D02*
X136990000Y-110228840D01*
%TD*%
M02*
