M48
; DRILL file {KiCad 9.0.4} date 2026-05-04T01:12:08+0100
; FORMAT={-:-/ absolute / metric / decimal}
; #@! TF.CreationDate,2026-05-04T01:12:08+01:00
; #@! TF.GenerationSoftware,Kicad,Pcbnew,9.0.4
; #@! TF.FileFunction,Plated,1,2,PTH
FMAT,2
METRIC
; #@! TA.AperFunction,Plated,PTH,ViaDrill
T1C0.250
; #@! TA.AperFunction,Plated,PTH,ComponentDrill
T2C0.300
; #@! TA.AperFunction,Plated,PTH,ComponentDrill
T3C0.600
; #@! TA.AperFunction,Plated,PTH,ComponentDrill
T4C0.950
; #@! TA.AperFunction,Plated,PTH,ComponentDrill
T5C1.000
; #@! TA.AperFunction,Plated,PTH,ComponentDrill
T6C1.300
; #@! TA.AperFunction,Plated,PTH,ComponentDrill
T7C8.500
; #@! TA.AperFunction,Plated,PTH,ComponentDrill
T8C9.000
%
G90
G05
T1
X44.986Y-92.176
X60.815Y-106.404
X62.365Y-83.604
X66.42Y-91.37
X66.765Y-81.729
X69.29Y-94.654
X71.465Y-81.754
X74.3Y-76.75
X81.17Y-89.559
X81.252Y-104.416
X83.04Y-94.729
X84.14Y-103.129
X84.24Y-107.829
X85.015Y-98.079
X85.135Y-111.134
X86.84Y-103.129
X87.14Y-107.529
X87.99Y-97.879
X95.04Y-90.979
X95.44Y-102.029
X96.44Y-98.629
X96.99Y-87.029
X97.74Y-102.024
X98.54Y-99.529
X99.945Y-92.524
X104.24Y-104.729
X105.695Y-58.977
X105.89Y-96.554
X109.665Y-105.928
X110.058Y-91.685
X110.14Y-82.629
X114.04Y-108.854
X114.84Y-120.579
X115.69Y-91.685
X115.75Y-84.8
X115.815Y-106.179
X116.04Y-123.029
X116.24Y-121.279
X116.29Y-114.879
X117.24Y-115.829
X117.515Y-103.054
X117.54Y-101.179
X117.765Y-92.579
X118.4Y-71.7
X118.487Y-123.576
X118.565Y-120.079
X118.69Y-98.879
X119.69Y-119.779
X119.79Y-98.079
X119.815Y-112.304
X120.965Y-108.929
X121.285Y-116.329
X121.29Y-123.374
X121.665Y-112.179
X123.94Y-123.029
X124.455Y-115.563
X124.49Y-101.154
X124.74Y-113.829
X124.79Y-86.179
X125.0Y-69.9
X125.14Y-120.329
X125.265Y-97.804
X125.315Y-102.879
X128.215Y-95.804
X128.24Y-134.679
X128.74Y-129.004
X128.866Y-91.553
X128.89Y-100.079
X130.815Y-96.179
X130.965Y-109.729
X132.34Y-113.504
X132.684Y-102.235
X133.065Y-126.679
X133.39Y-113.479
X133.965Y-107.104
X134.19Y-126.679
X134.49Y-82.629
X134.89Y-129.004
X135.115Y-108.054
X135.765Y-127.154
X136.09Y-133.129
X136.89Y-99.029
X137.715Y-100.554
X137.915Y-116.554
X137.94Y-110.229
X138.54Y-107.629
X139.095Y-58.977
X139.102Y-106.866
X140.765Y-116.279
X141.74Y-130.529
X141.79Y-135.754
X141.94Y-101.704
X142.415Y-109.004
X142.79Y-92.154
X142.89Y-117.729
X142.99Y-97.904
X143.49Y-107.354
X143.665Y-106.379
X143.89Y-110.879
X143.94Y-113.029
X144.79Y-114.279
X144.99Y-120.129
X147.215Y-89.504
X149.79Y-113.779
X150.09Y-117.279
X151.215Y-98.104
X151.365Y-95.529
X151.84Y-120.979
X152.14Y-106.629
X152.265Y-92.054
X152.34Y-112.429
X153.04Y-122.404
X153.44Y-126.079
X155.165Y-121.529
X155.39Y-114.629
X156.14Y-123.279
X156.24Y-95.779
X157.44Y-121.829
X157.715Y-123.254
X159.14Y-90.154
X160.315Y-95.054
X160.34Y-116.029
X161.39Y-109.179
X161.99Y-90.129
X162.74Y-109.679
X162.99Y-113.329
X163.29Y-110.879
X163.54Y-118.129
X163.74Y-116.329
X163.89Y-95.454
X164.44Y-113.479
X164.44Y-114.879
X166.04Y-109.629
T2
X111.8Y-105.678
X111.8Y-107.178
X112.3Y-106.428
X112.8Y-105.678
X112.8Y-107.178
T4
X142.04Y-86.804
X144.54Y-86.804
X147.04Y-86.804
X148.44Y-100.879
X148.44Y-103.379
X148.44Y-105.879
X148.44Y-108.379
X148.44Y-110.879
X149.54Y-86.804
X152.04Y-86.804
X158.95Y-124.829
X159.14Y-86.779
X161.45Y-124.829
X161.64Y-86.779
X163.95Y-124.829
X164.14Y-86.779
X166.45Y-124.829
X166.64Y-86.779
X168.95Y-124.829
X169.14Y-86.779
T5
X99.915Y-108.529
X102.415Y-108.529
X111.55Y-86.028
X111.55Y-88.528
X118.765Y-147.679
X121.265Y-147.679
X138.365Y-124.979
X140.865Y-124.979
X148.24Y-124.854
X150.74Y-124.854
X167.533Y-132.227
X167.533Y-134.727
T6
X45.01Y-150.41
X45.01Y-155.49
X45.17Y-162.72
X45.17Y-167.8
X91.665Y-167.838
X96.745Y-167.838
T7
X64.785Y-145.127
X64.815Y-58.977
X91.455Y-145.127
X91.485Y-58.977
X91.485Y-58.977
X151.485Y-58.977
T8
X78.12Y-164.127
X78.15Y-39.977
T3
G00X165.785Y-111.659
M15
G01X166.885Y-111.659
M16
G05
G00X165.785Y-120.299
M15
G01X166.885Y-120.299
M16
G05
G00X170.115Y-111.659
M15
G01X170.915Y-111.659
M16
G05
G00X170.115Y-120.299
M15
G01X170.915Y-120.299
M16
G05
M30
