%TF.GenerationSoftware,KiCad,Pcbnew,9.0.4*%
%TF.CreationDate,2026-05-04T01:12:03+01:00*%
%TF.ProjectId,BMS-Master,424d532d-4d61-4737-9465-722e6b696361,rev?*%
%TF.SameCoordinates,Original*%
%TF.FileFunction,Paste,Top*%
%TF.FilePolarity,Positive*%
%FSLAX46Y46*%
G04 Gerber Fmt 4.6, Leading zero omitted, Abs format (unit mm)*
G04 Created by KiCad (PCBNEW 9.0.4) date 2026-05-04 01:12:03*
%MOMM*%
%LPD*%
G01*
G04 APERTURE LIST*
G04 Aperture macros list*
%AMRoundRect*
0 Rectangle with rounded corners*
0 $1 Rounding radius*
0 $2 $3 $4 $5 $6 $7 $8 $9 X,Y pos of 4 corners*
0 Add a 4 corners polygon primitive as box body*
4,1,4,$2,$3,$4,$5,$6,$7,$8,$9,$2,$3,0*
0 Add four circle primitives for the rounded corners*
1,1,$1+$1,$2,$3*
1,1,$1+$1,$4,$5*
1,1,$1+$1,$6,$7*
1,1,$1+$1,$8,$9*
0 Add four rect primitives between the rounded corners*
20,1,$1+$1,$2,$3,$4,$5,0*
20,1,$1+$1,$4,$5,$6,$7,0*
20,1,$1+$1,$6,$7,$8,$9,0*
20,1,$1+$1,$8,$9,$2,$3,0*%
G04 Aperture macros list end*
%ADD10RoundRect,0.250000X-0.250000X-0.475000X0.250000X-0.475000X0.250000X0.475000X-0.250000X0.475000X0*%
%ADD11R,1.300000X1.100000*%
%ADD12RoundRect,0.225000X-0.225000X-0.250000X0.225000X-0.250000X0.225000X0.250000X-0.225000X0.250000X0*%
%ADD13RoundRect,0.225000X-0.225000X-0.375000X0.225000X-0.375000X0.225000X0.375000X-0.225000X0.375000X0*%
%ADD14RoundRect,0.150000X-0.587500X-0.150000X0.587500X-0.150000X0.587500X0.150000X-0.587500X0.150000X0*%
%ADD15R,1.150000X0.600000*%
%ADD16R,1.150000X0.300000*%
%ADD17RoundRect,0.225000X0.250000X-0.225000X0.250000X0.225000X-0.250000X0.225000X-0.250000X-0.225000X0*%
%ADD18RoundRect,0.250000X-1.425000X0.362500X-1.425000X-0.362500X1.425000X-0.362500X1.425000X0.362500X0*%
%ADD19RoundRect,0.218750X0.256250X-0.218750X0.256250X0.218750X-0.256250X0.218750X-0.256250X-0.218750X0*%
%ADD20RoundRect,0.200000X-0.275000X0.200000X-0.275000X-0.200000X0.275000X-0.200000X0.275000X0.200000X0*%
%ADD21RoundRect,0.200000X-0.200000X-0.275000X0.200000X-0.275000X0.200000X0.275000X-0.200000X0.275000X0*%
%ADD22RoundRect,0.200000X0.275000X-0.200000X0.275000X0.200000X-0.275000X0.200000X-0.275000X-0.200000X0*%
%ADD23RoundRect,0.225000X0.225000X0.250000X-0.225000X0.250000X-0.225000X-0.250000X0.225000X-0.250000X0*%
%ADD24RoundRect,0.200000X0.200000X0.275000X-0.200000X0.275000X-0.200000X-0.275000X0.200000X-0.275000X0*%
%ADD25R,0.640000X1.905000*%
%ADD26R,0.230000X0.230000*%
%ADD27O,0.800000X0.230000*%
%ADD28R,0.680000X1.050000*%
%ADD29R,0.260000X0.500000*%
%ADD30RoundRect,0.075000X-0.075000X0.650000X-0.075000X-0.650000X0.075000X-0.650000X0.075000X0.650000X0*%
%ADD31RoundRect,0.250000X0.625000X-0.312500X0.625000X0.312500X-0.625000X0.312500X-0.625000X-0.312500X0*%
%ADD32RoundRect,0.250000X1.400000X1.000000X-1.400000X1.000000X-1.400000X-1.000000X1.400000X-1.000000X0*%
%ADD33RoundRect,0.250000X-0.312500X-0.625000X0.312500X-0.625000X0.312500X0.625000X-0.312500X0.625000X0*%
%ADD34RoundRect,0.225000X-0.250000X0.225000X-0.250000X-0.225000X0.250000X-0.225000X0.250000X0.225000X0*%
%ADD35RoundRect,0.225000X0.225000X0.375000X-0.225000X0.375000X-0.225000X-0.375000X0.225000X-0.375000X0*%
%ADD36RoundRect,0.150000X-0.512500X-0.150000X0.512500X-0.150000X0.512500X0.150000X-0.512500X0.150000X0*%
%ADD37RoundRect,0.250000X-1.400000X-1.000000X1.400000X-1.000000X1.400000X1.000000X-1.400000X1.000000X0*%
%ADD38RoundRect,0.075000X-0.650000X-0.075000X0.650000X-0.075000X0.650000X0.075000X-0.650000X0.075000X0*%
%ADD39RoundRect,0.225000X0.375000X-0.225000X0.375000X0.225000X-0.375000X0.225000X-0.375000X-0.225000X0*%
%ADD40RoundRect,0.250000X0.295000X0.295000X-0.295000X0.295000X-0.295000X-0.295000X0.295000X-0.295000X0*%
%ADD41RoundRect,0.062500X0.350000X0.062500X-0.350000X0.062500X-0.350000X-0.062500X0.350000X-0.062500X0*%
%ADD42RoundRect,0.062500X0.062500X0.350000X-0.062500X0.350000X-0.062500X-0.350000X0.062500X-0.350000X0*%
%ADD43R,1.905000X0.640000*%
%ADD44RoundRect,0.150000X0.512500X0.150000X-0.512500X0.150000X-0.512500X-0.150000X0.512500X-0.150000X0*%
%ADD45RoundRect,0.087500X0.087500X-0.725000X0.087500X0.725000X-0.087500X0.725000X-0.087500X-0.725000X0*%
%ADD46RoundRect,0.250001X-0.499999X-0.639999X0.499999X-0.639999X0.499999X0.639999X-0.499999X0.639999X0*%
%ADD47RoundRect,0.150000X-0.150000X0.587500X-0.150000X-0.587500X0.150000X-0.587500X0.150000X0.587500X0*%
%ADD48RoundRect,0.150000X0.150000X-0.587500X0.150000X0.587500X-0.150000X0.587500X-0.150000X-0.587500X0*%
%ADD49RoundRect,0.075000X-0.662500X-0.075000X0.662500X-0.075000X0.662500X0.075000X-0.662500X0.075000X0*%
%ADD50RoundRect,0.075000X-0.075000X-0.662500X0.075000X-0.662500X0.075000X0.662500X-0.075000X0.662500X0*%
%ADD51RoundRect,0.250000X-0.950000X0.700000X-0.950000X-0.700000X0.950000X-0.700000X0.950000X0.700000X0*%
%ADD52RoundRect,0.150000X-0.150000X0.825000X-0.150000X-0.825000X0.150000X-0.825000X0.150000X0.825000X0*%
%ADD53RoundRect,0.250001X-0.639999X0.499999X-0.639999X-0.499999X0.639999X-0.499999X0.639999X0.499999X0*%
%ADD54RoundRect,0.218750X0.218750X0.256250X-0.218750X0.256250X-0.218750X-0.256250X0.218750X-0.256250X0*%
%ADD55R,5.500000X2.150000*%
%ADD56RoundRect,0.150000X0.587500X0.150000X-0.587500X0.150000X-0.587500X-0.150000X0.587500X-0.150000X0*%
%ADD57R,1.950000X1.020000*%
%ADD58R,1.020000X1.950000*%
%ADD59R,0.650000X2.350000*%
G04 APERTURE END LIST*
D10*
%TO.C,C36*%
X106650000Y-107477840D03*
X108550000Y-107477840D03*
%TD*%
D11*
%TO.C,TR1*%
X72825000Y-80313840D03*
X72825000Y-82853840D03*
X72825000Y-85393840D03*
X81965000Y-85393840D03*
X81965000Y-82853840D03*
X81965000Y-80313840D03*
%TD*%
D12*
%TO.C,C23*%
X122090000Y-91628840D03*
X123640000Y-91628840D03*
%TD*%
D13*
%TO.C,D7*%
X68065000Y-77628840D03*
X71365000Y-77628840D03*
%TD*%
D14*
%TO.C,Q6*%
X161502500Y-110866340D03*
X161502500Y-112766340D03*
X163377500Y-111816340D03*
%TD*%
D15*
%TO.C,J17*%
X165770000Y-119178840D03*
X165770000Y-118378840D03*
D16*
X165770000Y-117228840D03*
X165770000Y-116228840D03*
X165770000Y-115728840D03*
X165770000Y-114728840D03*
D15*
X165770000Y-112778840D03*
X165770000Y-113578840D03*
D16*
X165770000Y-114228840D03*
X165770000Y-115228840D03*
X165770000Y-116728840D03*
X165770000Y-117728840D03*
%TD*%
D17*
%TO.C,C28*%
X90015000Y-100228840D03*
X90015000Y-98678840D03*
%TD*%
D18*
%TO.C,R15*%
X47940001Y-127001340D03*
X47940001Y-132926340D03*
%TD*%
D12*
%TO.C,C56*%
X141315000Y-111928840D03*
X142865000Y-111928840D03*
%TD*%
D13*
%TO.C,D8*%
X66740000Y-84078840D03*
X70040000Y-84078840D03*
%TD*%
D19*
%TO.C,D4*%
X137227500Y-120878840D03*
X137227500Y-119303840D03*
%TD*%
D20*
%TO.C,R77*%
X154940000Y-122653840D03*
X154940000Y-124303840D03*
%TD*%
%TO.C,R51*%
X102170000Y-101898840D03*
X102170000Y-103548840D03*
%TD*%
D21*
%TO.C,R27*%
X120500000Y-89901340D03*
X122150000Y-89901340D03*
%TD*%
D20*
%TO.C,R56*%
X153440000Y-93978840D03*
X153440000Y-95628840D03*
%TD*%
D21*
%TO.C,R37*%
X89540000Y-101903840D03*
X91190000Y-101903840D03*
%TD*%
D22*
%TO.C,R2*%
X116090000Y-99252840D03*
X116090000Y-97602840D03*
%TD*%
D21*
%TO.C,R47*%
X122015000Y-96378840D03*
X123665000Y-96378840D03*
%TD*%
D23*
%TO.C,C44*%
X127790000Y-124653840D03*
X126240000Y-124653840D03*
%TD*%
D22*
%TO.C,R74*%
X123365000Y-118778840D03*
X123365000Y-117128840D03*
%TD*%
D21*
%TO.C,R36*%
X88615000Y-89203840D03*
X90265000Y-89203840D03*
%TD*%
D17*
%TO.C,C13*%
X127265000Y-88301340D03*
X127265000Y-86751340D03*
%TD*%
D24*
%TO.C,R75*%
X134453000Y-130326840D03*
X132803000Y-130326840D03*
%TD*%
D25*
%TO.C,U6*%
X124555000Y-71702500D03*
X123285000Y-71702500D03*
X122015000Y-71702500D03*
X120745000Y-71702500D03*
X120745000Y-82397500D03*
X122015000Y-82397500D03*
X123285000Y-82397500D03*
X124555000Y-82397500D03*
%TD*%
D26*
%TO.C,U11*%
X110540000Y-105427840D03*
D27*
X110825000Y-105427840D03*
D26*
X110540000Y-105927840D03*
D27*
X110825000Y-105927840D03*
D26*
X110540000Y-106427840D03*
D27*
X110825000Y-106427840D03*
D26*
X110540000Y-106927840D03*
D27*
X110825000Y-106927840D03*
D26*
X110540000Y-107427840D03*
D27*
X110825000Y-107427840D03*
X113775000Y-107427840D03*
D26*
X114060000Y-107427840D03*
D27*
X113775000Y-106927840D03*
D26*
X114060000Y-106927840D03*
D27*
X113775000Y-106427840D03*
D26*
X114060000Y-106427840D03*
D27*
X113775000Y-105927840D03*
D26*
X114060000Y-105927840D03*
D27*
X113775000Y-105427840D03*
D26*
X114060000Y-105427840D03*
D28*
X111850000Y-105792840D03*
X111850000Y-107062840D03*
D29*
X112050000Y-104797840D03*
X112050000Y-108057840D03*
X112550000Y-104797840D03*
X112550000Y-108057840D03*
D28*
X112750000Y-105792840D03*
X112750000Y-107062840D03*
%TD*%
D20*
%TO.C,R46*%
X93365000Y-98603840D03*
X93365000Y-100253840D03*
%TD*%
D12*
%TO.C,C4*%
X68010000Y-107853840D03*
X69560000Y-107853840D03*
%TD*%
D30*
%TO.C,U14*%
X121815000Y-114153840D03*
X121315000Y-114153840D03*
X120815000Y-114153840D03*
X120315000Y-114153840D03*
X119815000Y-114153840D03*
X119315000Y-114153840D03*
X118815000Y-114153840D03*
X118315000Y-114153840D03*
X118315000Y-118453840D03*
X118815000Y-118453840D03*
X119315000Y-118453840D03*
X119815000Y-118453840D03*
X120315000Y-118453840D03*
X120815000Y-118453840D03*
X121315000Y-118453840D03*
X121815000Y-118453840D03*
%TD*%
D24*
%TO.C,R61*%
X134790000Y-98403840D03*
X133140000Y-98403840D03*
%TD*%
%TO.C,R62*%
X112535000Y-109578840D03*
X110885000Y-109578840D03*
%TD*%
D22*
%TO.C,R58*%
X135327500Y-85916340D03*
X135327500Y-84266340D03*
%TD*%
D23*
%TO.C,C42*%
X127240000Y-114478840D03*
X125690000Y-114478840D03*
%TD*%
%TO.C,C7*%
X123202500Y-64928840D03*
X121652500Y-64928840D03*
%TD*%
D20*
%TO.C,R20*%
X68027500Y-98973840D03*
X68027500Y-100623840D03*
%TD*%
D17*
%TO.C,C31*%
X125690000Y-100528840D03*
X125690000Y-98978840D03*
%TD*%
D31*
%TO.C,R9*%
X52477500Y-102728840D03*
X52477500Y-99803840D03*
%TD*%
D32*
%TO.C,D1*%
X64470000Y-167650000D03*
X64470000Y-160850000D03*
%TD*%
D33*
%TO.C,R13*%
X58087500Y-89710000D03*
X61012500Y-89710000D03*
%TD*%
D12*
%TO.C,C22*%
X84415000Y-106078840D03*
X85965000Y-106078840D03*
%TD*%
D22*
%TO.C,R67*%
X140490000Y-132753840D03*
X140490000Y-131103840D03*
%TD*%
D34*
%TO.C,C9*%
X69762500Y-89773840D03*
X69762500Y-91323840D03*
%TD*%
D21*
%TO.C,R64*%
X109457000Y-94438840D03*
X111107000Y-94438840D03*
%TD*%
D24*
%TO.C,R54*%
X117677500Y-87291340D03*
X116027500Y-87291340D03*
%TD*%
D34*
%TO.C,C50*%
X114990000Y-117503840D03*
X114990000Y-119053840D03*
%TD*%
D35*
%TO.C,D13*%
X135377500Y-91016340D03*
X132077500Y-91016340D03*
%TD*%
D34*
%TO.C,C11*%
X69877500Y-99023840D03*
X69877500Y-100573840D03*
%TD*%
D24*
%TO.C,R50*%
X125165000Y-105326340D03*
X123515000Y-105326340D03*
%TD*%
D12*
%TO.C,C14*%
X85315000Y-87028840D03*
X86865000Y-87028840D03*
%TD*%
D17*
%TO.C,C34*%
X106480000Y-100098840D03*
X106480000Y-98548840D03*
%TD*%
D20*
%TO.C,R60*%
X115450000Y-107377840D03*
X115450000Y-109027840D03*
%TD*%
D10*
%TO.C,C2*%
X62810000Y-109553840D03*
X64710000Y-109553840D03*
%TD*%
D36*
%TO.C,U7*%
X87452500Y-80678840D03*
X87452500Y-81628840D03*
X87452500Y-82578840D03*
X89727500Y-82578840D03*
X89727500Y-80678840D03*
%TD*%
D17*
%TO.C,C33*%
X104805000Y-100073840D03*
X104805000Y-98523840D03*
%TD*%
D22*
%TO.C,R44*%
X125415000Y-96353840D03*
X125415000Y-94703840D03*
%TD*%
D34*
%TO.C,C30*%
X118590000Y-94728840D03*
X118590000Y-96278840D03*
%TD*%
D17*
%TO.C,C52*%
X116790000Y-119028840D03*
X116790000Y-117478840D03*
%TD*%
D21*
%TO.C,R73*%
X136753000Y-130326840D03*
X138403000Y-130326840D03*
%TD*%
D35*
%TO.C,D15*%
X135327500Y-93641340D03*
X132027500Y-93641340D03*
%TD*%
D17*
%TO.C,C27*%
X90190000Y-92503840D03*
X90190000Y-90953840D03*
%TD*%
D22*
%TO.C,R72*%
X117440000Y-124623840D03*
X117440000Y-122973840D03*
%TD*%
D37*
%TO.C,D2*%
X64420000Y-38412500D03*
X64420000Y-45212500D03*
%TD*%
D10*
%TO.C,C1*%
X63215000Y-81293840D03*
X65115000Y-81293840D03*
%TD*%
D38*
%TO.C,U13*%
X133588000Y-132151840D03*
X133588000Y-132651840D03*
X133588000Y-133151840D03*
X133588000Y-133651840D03*
X133588000Y-134151840D03*
X133588000Y-134651840D03*
X133588000Y-135151840D03*
X133588000Y-135651840D03*
X137888000Y-135651840D03*
X137888000Y-135151840D03*
X137888000Y-134651840D03*
X137888000Y-134151840D03*
X137888000Y-133651840D03*
X137888000Y-133151840D03*
X137888000Y-132651840D03*
X137888000Y-132151840D03*
%TD*%
D21*
%TO.C,R26*%
X68262500Y-87898840D03*
X69912500Y-87898840D03*
%TD*%
D23*
%TO.C,C41*%
X114307000Y-92738840D03*
X112757000Y-92738840D03*
%TD*%
D20*
%TO.C,R55*%
X153440000Y-90653840D03*
X153440000Y-92303840D03*
%TD*%
D13*
%TO.C,D17*%
X132127500Y-96266340D03*
X135427500Y-96266340D03*
%TD*%
D34*
%TO.C,C54*%
X127380000Y-99058840D03*
X127380000Y-100608840D03*
%TD*%
D22*
%TO.C,R39*%
X95440000Y-95353840D03*
X95440000Y-93703840D03*
%TD*%
D24*
%TO.C,R29*%
X90315000Y-94828840D03*
X88665000Y-94828840D03*
%TD*%
D11*
%TO.C,TR2*%
X73125000Y-102888840D03*
X73125000Y-105428840D03*
X73125000Y-107968840D03*
X82265000Y-107968840D03*
X82265000Y-105428840D03*
X82265000Y-102888840D03*
%TD*%
D20*
%TO.C,R34*%
X125440000Y-91528840D03*
X125440000Y-93178840D03*
%TD*%
D14*
%TO.C,Q5*%
X125690000Y-110853840D03*
X125690000Y-112753840D03*
X127565000Y-111803840D03*
%TD*%
D13*
%TO.C,D9*%
X67310000Y-103528840D03*
X70610000Y-103528840D03*
%TD*%
D21*
%TO.C,R53*%
X120290000Y-105301340D03*
X121940000Y-105301340D03*
%TD*%
D24*
%TO.C,R5*%
X162854500Y-119955840D03*
X161204500Y-119955840D03*
%TD*%
D21*
%TO.C,R69*%
X142915000Y-130328840D03*
X144565000Y-130328840D03*
%TD*%
D12*
%TO.C,C49*%
X129663000Y-134676840D03*
X131213000Y-134676840D03*
%TD*%
D35*
%TO.C,D16*%
X135415000Y-100528840D03*
X132115000Y-100528840D03*
%TD*%
D20*
%TO.C,R79*%
X154127500Y-114753840D03*
X154127500Y-116403840D03*
%TD*%
D24*
%TO.C,R1*%
X149715000Y-96103840D03*
X148065000Y-96103840D03*
%TD*%
D22*
%TO.C,R6*%
X60865000Y-80143840D03*
X60865000Y-78493840D03*
%TD*%
D21*
%TO.C,R38*%
X92090000Y-97003840D03*
X93740000Y-97003840D03*
%TD*%
D39*
%TO.C,D11*%
X148690000Y-94203840D03*
X148690000Y-90903840D03*
%TD*%
D36*
%TO.C,U8*%
X88077500Y-103703840D03*
X88077500Y-104653840D03*
X88077500Y-105603840D03*
X90352500Y-105603840D03*
X90352500Y-103703840D03*
%TD*%
D39*
%TO.C,D12*%
X151215000Y-94228840D03*
X151215000Y-90928840D03*
%TD*%
D23*
%TO.C,C45*%
X144535000Y-133120000D03*
X142985000Y-133120000D03*
%TD*%
D22*
%TO.C,R52*%
X103920000Y-103523840D03*
X103920000Y-101873840D03*
%TD*%
D23*
%TO.C,C16*%
X85565000Y-80903840D03*
X84015000Y-80903840D03*
%TD*%
D21*
%TO.C,R59*%
X120265000Y-107078840D03*
X121915000Y-107078840D03*
%TD*%
D22*
%TO.C,R43*%
X120315000Y-96353840D03*
X120315000Y-94703840D03*
%TD*%
D23*
%TO.C,C51*%
X131215000Y-136303840D03*
X129665000Y-136303840D03*
%TD*%
%TO.C,C47*%
X144640000Y-137528840D03*
X143090000Y-137528840D03*
%TD*%
D13*
%TO.C,D10*%
X67360000Y-109928840D03*
X70660000Y-109928840D03*
%TD*%
D14*
%TO.C,Q8*%
X141102500Y-119053840D03*
X141102500Y-120953840D03*
X142977500Y-120003840D03*
%TD*%
D40*
%TO.C,U15*%
X158377500Y-119178840D03*
X158377500Y-117828840D03*
X157027500Y-119178840D03*
X157027500Y-117828840D03*
D41*
X159665000Y-119753840D03*
X159665000Y-119253840D03*
X159665000Y-118753840D03*
X159665000Y-118253840D03*
X159665000Y-117753840D03*
X159665000Y-117253840D03*
D42*
X158952500Y-116541340D03*
X158452500Y-116541340D03*
X157952500Y-116541340D03*
X157452500Y-116541340D03*
X156952500Y-116541340D03*
X156452500Y-116541340D03*
D41*
X155740000Y-117253840D03*
X155740000Y-117753840D03*
X155740000Y-118253840D03*
X155740000Y-118753840D03*
X155740000Y-119253840D03*
X155740000Y-119753840D03*
D42*
X156452500Y-120466340D03*
X156952500Y-120466340D03*
X157452500Y-120466340D03*
X157952500Y-120466340D03*
X158452500Y-120466340D03*
X158952500Y-120466340D03*
%TD*%
D43*
%TO.C,U3*%
X72192500Y-88473840D03*
X72192500Y-89743840D03*
X72192500Y-91013840D03*
X72192500Y-92283840D03*
X82887500Y-92283840D03*
X82887500Y-91013840D03*
X82887500Y-89743840D03*
X82887500Y-88473840D03*
%TD*%
D20*
%TO.C,R33*%
X120265000Y-91553840D03*
X120265000Y-93203840D03*
%TD*%
D21*
%TO.C,R24*%
X68252500Y-97328840D03*
X69902500Y-97328840D03*
%TD*%
D20*
%TO.C,R80*%
X159340000Y-111503840D03*
X159340000Y-113153840D03*
%TD*%
D21*
%TO.C,R22*%
X118167500Y-64931340D03*
X119817500Y-64931340D03*
%TD*%
D33*
%TO.C,R17*%
X63037500Y-89710000D03*
X65962500Y-89710000D03*
%TD*%
D12*
%TO.C,C48*%
X120940000Y-121378840D03*
X122490000Y-121378840D03*
%TD*%
D20*
%TO.C,R71*%
X122540000Y-122973840D03*
X122540000Y-124623840D03*
%TD*%
D34*
%TO.C,C57*%
X152402500Y-114828840D03*
X152402500Y-116378840D03*
%TD*%
D44*
%TO.C,U1*%
X65240000Y-79193840D03*
X65240000Y-78243840D03*
X65240000Y-77293840D03*
X62965000Y-77293840D03*
X62965000Y-79193840D03*
%TD*%
D24*
%TO.C,R4*%
X160490000Y-114728840D03*
X158840000Y-114728840D03*
%TD*%
D12*
%TO.C,C19*%
X88590000Y-85853840D03*
X90140000Y-85853840D03*
%TD*%
D20*
%TO.C,R78*%
X154915000Y-125903840D03*
X154915000Y-127553840D03*
%TD*%
D22*
%TO.C,R84*%
X146164500Y-120828840D03*
X146164500Y-119178840D03*
%TD*%
D45*
%TO.C,U10*%
X121790000Y-102888840D03*
X122290000Y-102888840D03*
X122790000Y-102888840D03*
X123290000Y-102888840D03*
X123790000Y-102888840D03*
X123790000Y-98663840D03*
X123290000Y-98663840D03*
X122790000Y-98663840D03*
X122290000Y-98663840D03*
X121790000Y-98663840D03*
%TD*%
D46*
%TO.C,U5*%
X73000000Y-111133840D03*
X73000000Y-113673840D03*
X82530000Y-113673840D03*
X82530000Y-111133840D03*
%TD*%
D13*
%TO.C,D14*%
X132102500Y-88316340D03*
X135402500Y-88316340D03*
%TD*%
D47*
%TO.C,Q3*%
X118012500Y-104665340D03*
X116112500Y-104665340D03*
X117062500Y-106540340D03*
%TD*%
D20*
%TO.C,R42*%
X95390000Y-97003840D03*
X95390000Y-98653840D03*
%TD*%
D12*
%TO.C,C26*%
X122165000Y-93953840D03*
X123715000Y-93953840D03*
%TD*%
D23*
%TO.C,C24*%
X88415000Y-91003840D03*
X86865000Y-91003840D03*
%TD*%
D21*
%TO.C,R65*%
X109457000Y-92733840D03*
X111107000Y-92733840D03*
%TD*%
D12*
%TO.C,C38*%
X106865000Y-109503840D03*
X108415000Y-109503840D03*
%TD*%
D21*
%TO.C,R49*%
X98745000Y-102023840D03*
X100395000Y-102023840D03*
%TD*%
D33*
%TO.C,R12*%
X53302500Y-97303840D03*
X56227500Y-97303840D03*
%TD*%
D17*
%TO.C,C63*%
X153890000Y-104578840D03*
X153890000Y-103028840D03*
%TD*%
D21*
%TO.C,R66*%
X126265000Y-126378840D03*
X127915000Y-126378840D03*
%TD*%
D48*
%TO.C,D19*%
X156902500Y-93391340D03*
X158802500Y-93391340D03*
X157852500Y-91516340D03*
%TD*%
D19*
%TO.C,D3*%
X116115000Y-102527840D03*
X116115000Y-100952840D03*
%TD*%
D20*
%TO.C,R19*%
X68062500Y-89723840D03*
X68062500Y-91373840D03*
%TD*%
D49*
%TO.C,U12*%
X132352500Y-104728840D03*
X132352500Y-105228840D03*
X132352500Y-105728840D03*
X132352500Y-106228840D03*
X132352500Y-106728840D03*
X132352500Y-107228840D03*
X132352500Y-107728840D03*
X132352500Y-108228840D03*
X132352500Y-108728840D03*
X132352500Y-109228840D03*
X132352500Y-109728840D03*
X132352500Y-110228840D03*
D50*
X133765000Y-111641340D03*
X134265000Y-111641340D03*
X134765000Y-111641340D03*
X135265000Y-111641340D03*
X135765000Y-111641340D03*
X136265000Y-111641340D03*
X136765000Y-111641340D03*
X137265000Y-111641340D03*
X137765000Y-111641340D03*
X138265000Y-111641340D03*
X138765000Y-111641340D03*
X139265000Y-111641340D03*
D49*
X140677500Y-110228840D03*
X140677500Y-109728840D03*
X140677500Y-109228840D03*
X140677500Y-108728840D03*
X140677500Y-108228840D03*
X140677500Y-107728840D03*
X140677500Y-107228840D03*
X140677500Y-106728840D03*
X140677500Y-106228840D03*
X140677500Y-105728840D03*
X140677500Y-105228840D03*
X140677500Y-104728840D03*
D50*
X139265000Y-103316340D03*
X138765000Y-103316340D03*
X138265000Y-103316340D03*
X137765000Y-103316340D03*
X137265000Y-103316340D03*
X136765000Y-103316340D03*
X136265000Y-103316340D03*
X135765000Y-103316340D03*
X135265000Y-103316340D03*
X134765000Y-103316340D03*
X134265000Y-103316340D03*
X133765000Y-103316340D03*
%TD*%
D33*
%TO.C,R11*%
X53212500Y-89685000D03*
X56137500Y-89685000D03*
%TD*%
D21*
%TO.C,R41*%
X92840000Y-101928840D03*
X94490000Y-101928840D03*
%TD*%
D20*
%TO.C,R45*%
X93665000Y-90978840D03*
X93665000Y-92628840D03*
%TD*%
%TO.C,R85*%
X169197000Y-92995840D03*
X169197000Y-94645840D03*
%TD*%
D51*
%TO.C,Y1*%
X126990000Y-116728840D03*
X126990000Y-120828840D03*
%TD*%
D34*
%TO.C,C62*%
X153815000Y-106378840D03*
X153815000Y-107928840D03*
%TD*%
D23*
%TO.C,C8*%
X69890000Y-86178840D03*
X68340000Y-86178840D03*
%TD*%
D47*
%TO.C,Q1*%
X117927500Y-89266340D03*
X116027500Y-89266340D03*
X116977500Y-91141340D03*
%TD*%
D52*
%TO.C,U9*%
X103060000Y-94673840D03*
X101790000Y-94673840D03*
X100520000Y-94673840D03*
X99250000Y-94673840D03*
X99250000Y-99623840D03*
X100520000Y-99623840D03*
X101790000Y-99623840D03*
X103060000Y-99623840D03*
%TD*%
D34*
%TO.C,C21*%
X85290000Y-82628840D03*
X85290000Y-84178840D03*
%TD*%
D21*
%TO.C,R40*%
X91965000Y-89228840D03*
X93615000Y-89228840D03*
%TD*%
D19*
%TO.C,D5*%
X60840000Y-83678840D03*
X60840000Y-82103840D03*
%TD*%
D24*
%TO.C,R25*%
X66302500Y-100518840D03*
X64652500Y-100518840D03*
%TD*%
D10*
%TO.C,C37*%
X106645000Y-105247840D03*
X108545000Y-105247840D03*
%TD*%
D20*
%TO.C,R76*%
X123315000Y-113853840D03*
X123315000Y-115503840D03*
%TD*%
D17*
%TO.C,C64*%
X163017000Y-93505840D03*
X163017000Y-91955840D03*
%TD*%
D12*
%TO.C,C17*%
X84415000Y-104278840D03*
X85965000Y-104278840D03*
%TD*%
D24*
%TO.C,R57*%
X146065000Y-94853840D03*
X144415000Y-94853840D03*
%TD*%
D10*
%TO.C,C5*%
X68340000Y-79943840D03*
X70240000Y-79943840D03*
%TD*%
D20*
%TO.C,R82*%
X139115000Y-119203840D03*
X139115000Y-120853840D03*
%TD*%
D34*
%TO.C,C65*%
X160792000Y-91955840D03*
X160792000Y-93505840D03*
%TD*%
D53*
%TO.C,U17*%
X170067000Y-97755840D03*
X167527000Y-97755840D03*
X167527000Y-107285840D03*
X170067000Y-107285840D03*
%TD*%
D54*
%TO.C,D6*%
X68447500Y-112103840D03*
X66872500Y-112103840D03*
%TD*%
D55*
%TO.C,L1*%
X111832000Y-102438840D03*
X111832000Y-98578840D03*
%TD*%
D33*
%TO.C,R18*%
X63402500Y-97353840D03*
X66327500Y-97353840D03*
%TD*%
D34*
%TO.C,C61*%
X157515000Y-111558090D03*
X157515000Y-113108090D03*
%TD*%
D21*
%TO.C,R35*%
X92065000Y-94828840D03*
X93715000Y-94828840D03*
%TD*%
D24*
%TO.C,R68*%
X119190000Y-121278840D03*
X117540000Y-121278840D03*
%TD*%
D56*
%TO.C,Q4*%
X132927500Y-86041340D03*
X132927500Y-84141340D03*
X131052500Y-85091340D03*
%TD*%
D24*
%TO.C,R31*%
X87865000Y-101928840D03*
X86215000Y-101928840D03*
%TD*%
D23*
%TO.C,C39*%
X114232000Y-96138840D03*
X112682000Y-96138840D03*
%TD*%
D33*
%TO.C,R8*%
X48362500Y-89710000D03*
X51287500Y-89710000D03*
%TD*%
D57*
%TO.C,TR3*%
X147250000Y-131540000D03*
X147250000Y-134080000D03*
X147250000Y-136620000D03*
X162890000Y-131540000D03*
X162890000Y-134080000D03*
X162890000Y-136620000D03*
%TD*%
D44*
%TO.C,U2*%
X64810000Y-107403840D03*
X64810000Y-106453840D03*
X64810000Y-105503840D03*
X62535000Y-105503840D03*
X62535000Y-107403840D03*
%TD*%
D17*
%TO.C,C12*%
X126850000Y-71800000D03*
X126850000Y-70250000D03*
%TD*%
D22*
%TO.C,R3*%
X138927500Y-117353840D03*
X138927500Y-115703840D03*
%TD*%
D17*
%TO.C,C46*%
X120015000Y-124573840D03*
X120015000Y-123023840D03*
%TD*%
D12*
%TO.C,C3*%
X68465000Y-81893840D03*
X70015000Y-81893840D03*
%TD*%
D24*
%TO.C,R32*%
X90515000Y-97003840D03*
X88865000Y-97003840D03*
%TD*%
D23*
%TO.C,C35*%
X145990000Y-96578840D03*
X144440000Y-96578840D03*
%TD*%
D43*
%TO.C,U4*%
X72322500Y-96133840D03*
X72322500Y-97403840D03*
X72322500Y-98673840D03*
X72322500Y-99943840D03*
X83017500Y-99943840D03*
X83017500Y-98673840D03*
X83017500Y-97403840D03*
X83017500Y-96133840D03*
%TD*%
D56*
%TO.C,Q2*%
X146252500Y-93078840D03*
X146252500Y-91178840D03*
X144377500Y-92128840D03*
%TD*%
D23*
%TO.C,C53*%
X125150000Y-107076340D03*
X123600000Y-107076340D03*
%TD*%
D12*
%TO.C,C25*%
X86790000Y-99903840D03*
X88340000Y-99903840D03*
%TD*%
D14*
%TO.C,Q9*%
X147940000Y-115236340D03*
X147940000Y-117136340D03*
X149815000Y-116186340D03*
%TD*%
D34*
%TO.C,C32*%
X127140000Y-94778840D03*
X127140000Y-96328840D03*
%TD*%
D21*
%TO.C,R63*%
X109407000Y-96138840D03*
X111057000Y-96138840D03*
%TD*%
D12*
%TO.C,C15*%
X85365000Y-95053840D03*
X86915000Y-95053840D03*
%TD*%
D22*
%TO.C,R83*%
X145965000Y-117086340D03*
X145965000Y-115436340D03*
%TD*%
D12*
%TO.C,C20*%
X85390000Y-96728840D03*
X86940000Y-96728840D03*
%TD*%
D23*
%TO.C,C40*%
X114307000Y-94453840D03*
X112757000Y-94453840D03*
%TD*%
D24*
%TO.C,R70*%
X144640000Y-135828840D03*
X142990000Y-135828840D03*
%TD*%
D21*
%TO.C,R48*%
X101515000Y-92323840D03*
X103165000Y-92323840D03*
%TD*%
D12*
%TO.C,C55*%
X141240000Y-103103840D03*
X142790000Y-103103840D03*
%TD*%
D24*
%TO.C,R28*%
X125375000Y-89876340D03*
X123725000Y-89876340D03*
%TD*%
D23*
%TO.C,C10*%
X69752500Y-95598840D03*
X68202500Y-95598840D03*
%TD*%
D34*
%TO.C,C60*%
X155790000Y-111528840D03*
X155790000Y-113078840D03*
%TD*%
D23*
%TO.C,C43*%
X127815000Y-123003840D03*
X126265000Y-123003840D03*
%TD*%
D24*
%TO.C,R30*%
X86840000Y-89203840D03*
X85190000Y-89203840D03*
%TD*%
%TO.C,R7*%
X64910000Y-112053840D03*
X63260000Y-112053840D03*
%TD*%
D23*
%TO.C,C59*%
X154002500Y-118728840D03*
X152452500Y-118728840D03*
%TD*%
D34*
%TO.C,C18*%
X127315000Y-90001340D03*
X127315000Y-91551340D03*
%TD*%
D18*
%TO.C,R10*%
X48040001Y-135763840D03*
X48040001Y-141688840D03*
%TD*%
D14*
%TO.C,Q10*%
X148152500Y-119098840D03*
X148152500Y-120998840D03*
X150027500Y-120048840D03*
%TD*%
D24*
%TO.C,R21*%
X126492500Y-64981340D03*
X124842500Y-64981340D03*
%TD*%
D58*
%TO.C,TR4*%
X122680000Y-127208840D03*
X120140000Y-127208840D03*
X117600000Y-127208840D03*
X122680000Y-142848840D03*
X120140000Y-142848840D03*
X117600000Y-142848840D03*
%TD*%
D59*
%TO.C,U16*%
X156305000Y-106978840D03*
X158845000Y-106978840D03*
X161385000Y-106978840D03*
X163925000Y-106978840D03*
X163925000Y-97553840D03*
X161385000Y-97528840D03*
X158845000Y-97528840D03*
X156305000Y-97528840D03*
%TD*%
D34*
%TO.C,C29*%
X119850000Y-100298840D03*
X119850000Y-101848840D03*
%TD*%
D10*
%TO.C,C6*%
X67810000Y-105928840D03*
X69710000Y-105928840D03*
%TD*%
D14*
%TO.C,Q7*%
X141052500Y-115316340D03*
X141052500Y-117216340D03*
X142927500Y-116266340D03*
%TD*%
%TO.C,D18*%
X161840000Y-116203840D03*
X161840000Y-118103840D03*
X163715000Y-117153840D03*
%TD*%
D24*
%TO.C,R23*%
X69762500Y-93098840D03*
X68112500Y-93098840D03*
%TD*%
D33*
%TO.C,R14*%
X58327500Y-97278840D03*
X61252500Y-97278840D03*
%TD*%
D17*
%TO.C,C58*%
X153540000Y-113078840D03*
X153540000Y-111528840D03*
%TD*%
D20*
%TO.C,R81*%
X136927500Y-115678840D03*
X136927500Y-117328840D03*
%TD*%
M02*
